NotoAmalgamated-SemiBold.ufo
<glyph name="exclam.mono" format="2">
  <advance width="600"/>
  <unicode hex="0021"/>
  <outline>
    <contour>
      <point x="237" y="237" type="line"/>
      <point x="364" y="237" type="line"/>
      <point x="385" y="714" type="line"/>
      <point x="216" y="714" type="line"/>
    </contour>
    <contour>
      <point x="300" y="-10" type="curve" smooth="yes"/>
      <point x="356" y="-10"/>
      <point x="390" y="24"/>
      <point x="390" y="78" type="curve" smooth="yes"/>
      <point x="390" y="134"/>
      <point x="357" y="166"/>
      <point x="300" y="166" type="curve" smooth="yes"/>
      <point x="241" y="166"/>
      <point x="209" y="136"/>
      <point x="209" y="78" type="curve" smooth="yes"/>
      <point x="209" y="22"/>
      <point x="242" y="-10"/>
    </contour>
  </outline>
</glyph>
<glyph name="exclam.serif" format="2">
  <advance width="382"/>
  <unicode hex="0021"/>
  <outline>
    <contour>
      <point x="157" y="228" type="line"/>
      <point x="226" y="228" type="line"/>
      <point x="278" y="714" type="line"/>
      <point x="104" y="714" type="line"/>
    </contour>
    <contour>
      <point x="192" y="-8" type="curve" smooth="yes"/>
      <point x="236" y="-8"/>
      <point x="274" y="12"/>
      <point x="274" y="72" type="curve" smooth="yes"/>
      <point x="274" y="133"/>
      <point x="236" y="152"/>
      <point x="192" y="152" type="curve" smooth="yes"/>
      <point x="146" y="152"/>
      <point x="110" y="133"/>
      <point x="110" y="72" type="curve" smooth="yes"/>
      <point x="110" y="12"/>
      <point x="146" y="-8"/>
    </contour>
  </outline>
</glyph>
<glyph name="quotedbl.mono" format="2">
  <advance width="600"/>
  <unicode hex="0022"/>
  <outline>
    <contour>
      <point x="350" y="456" type="line"/>
      <point x="451" y="456" type="line"/>
      <point x="470" y="714" type="line"/>
      <point x="331" y="714" type="line"/>
    </contour>
    <contour>
      <point x="149" y="456" type="line"/>
      <point x="250" y="456" type="line"/>
      <point x="269" y="714" type="line"/>
      <point x="130" y="714" type="line"/>
    </contour>
  </outline>
</glyph>
<glyph name="numbersign.mono" format="2">
  <advance width="600"/>
  <unicode hex="0023"/>
  <outline>
    <contour>
      <point x="99" y="0" type="line"/>
      <point x="199" y="0" type="line"/>
      <point x="230" y="200" type="line"/>
      <point x="316" y="200" type="line"/>
      <point x="283" y="0" type="line"/>
      <point x="385" y="0" type="line"/>
      <point x="418" y="200" type="line"/>
      <point x="556" y="200" type="line"/>
      <point x="556" y="298" type="line"/>
      <point x="433" y="298" type="line"/>
      <point x="453" y="418" type="line"/>
      <point x="585" y="418" type="line"/>
      <point x="585" y="517" type="line"/>
      <point x="469" y="517" type="line"/>
      <point x="501" y="714" type="line"/>
      <point x="401" y="714" type="line"/>
      <point x="369" y="517" type="line"/>
      <point x="282" y="517" type="line"/>
      <point x="315" y="714" type="line"/>
      <point x="214" y="714" type="line"/>
      <point x="181" y="517" type="line"/>
      <point x="44" y="517" type="line"/>
      <point x="44" y="418" type="line"/>
      <point x="166" y="418" type="line"/>
      <point x="146" y="298" type="line"/>
      <point x="15" y="298" type="line"/>
      <point x="15" y="200" type="line"/>
      <point x="130" y="200" type="line"/>
    </contour>
    <contour>
      <point x="247" y="298" type="line"/>
      <point x="267" y="418" type="line"/>
      <point x="353" y="418" type="line"/>
      <point x="333" y="298" type="line"/>
    </contour>
  </outline>
</glyph>
<glyph name="dollar.mono" format="2">
  <advance width="600"/>
  <unicode hex="0024"/>
  <outline>
    <contour>
      <point x="270" y="35" type="curve"/>
      <point x="270" y="-58" type="line"/>
      <point x="335" y="-58" type="line"/>
      <point x="335" y="37" type="line"/>
      <point x="457" y="54"/>
      <point x="520" y="127"/>
      <point x="520" y="226" type="curve" smooth="yes"/>
      <point x="520" y="331"/>
      <point x="443" y="375"/>
      <point x="335" y="416" type="curve"/>
      <point x="335" y="578" type="line"/>
      <point x="379" y="574"/>
      <point x="430" y="562"/>
      <point x="474" y="541" type="curve"/>
      <point x="512" y="648" type="line"/>
      <point x="458" y="674"/>
      <point x="398" y="688"/>
      <point x="335" y="691" type="curve"/>
      <point x="335" y="759" type="line"/>
      <point x="270" y="759" type="line"/>
      <point x="270" y="690" type="line"/>
      <point x="159" y="678"/>
      <point x="81" y="616"/>
      <point x="81" y="507" type="curve" smooth="yes"/>
      <point x="81" y="415"/>
      <point x="136" y="365"/>
      <point x="270" y="313" type="curve"/>
      <point x="270" y="142" type="line"/>
      <point x="207" y="145"/>
      <point x="130" y="171"/>
      <point x="81" y="199" type="curve"/>
      <point x="81" y="75" type="line"/>
      <point x="132" y="51"/>
      <point x="197" y="37"/>
    </contour>
    <contour>
      <point x="335" y="148" type="curve"/>
      <point x="335" y="287" type="line"/>
      <point x="375" y="268"/>
      <point x="395" y="252"/>
      <point x="395" y="218" type="curve" smooth="yes"/>
      <point x="395" y="178"/>
      <point x="375" y="156"/>
    </contour>
    <contour>
      <point x="270" y="577" type="curve"/>
      <point x="270" y="443" type="line"/>
      <point x="228" y="461"/>
      <point x="207" y="480"/>
      <point x="207" y="511" type="curve" smooth="yes"/>
      <point x="207" y="551"/>
      <point x="230" y="572"/>
    </contour>
  </outline>
</glyph>
<glyph name="dollar.serif" format="2">
  <advance width="559"/>
  <unicode hex="0024"/>
  <outline>
    <contour>
      <point x="256" y="43" type="curve"/>
      <point x="256" y="-79" type="line"/>
      <point x="312" y="-79" type="line"/>
      <point x="312" y="45" type="line"/>
      <point x="436" y="59"/>
      <point x="509" y="133"/>
      <point x="509" y="235" type="curve" smooth="yes"/>
      <point x="509" y="367"/>
      <point x="392" y="390"/>
      <point x="312" y="430" type="curve"/>
      <point x="312" y="625" type="line"/>
      <point x="356" y="606"/>
      <point x="373" y="551"/>
      <point x="373" y="511" type="curve"/>
      <point x="447" y="511"/>
      <point x="483" y="542"/>
      <point x="483" y="584" type="curve" smooth="yes"/>
      <point x="483" y="637"/>
      <point x="430" y="680"/>
      <point x="312" y="684" type="curve"/>
      <point x="312" y="760" type="line"/>
      <point x="256" y="760" type="line"/>
      <point x="256" y="683" type="line"/>
      <point x="147" y="671"/>
      <point x="71" y="605"/>
      <point x="71" y="509" type="curve" smooth="yes"/>
      <point x="71" y="421"/>
      <point x="110" y="372"/>
      <point x="256" y="312" type="curve"/>
      <point x="256" y="96" type="line"/>
      <point x="188" y="107"/>
      <point x="143" y="163"/>
      <point x="143" y="263" type="curve"/>
      <point x="95" y="263"/>
      <point x="49" y="241"/>
      <point x="49" y="183" type="curve" smooth="yes"/>
      <point x="49" y="120"/>
      <point x="103" y="47"/>
    </contour>
    <contour>
      <point x="312" y="98" type="curve"/>
      <point x="312" y="287" type="line"/>
      <point x="364" y="260"/>
      <point x="390" y="232"/>
      <point x="390" y="190" type="curve" smooth="yes"/>
      <point x="390" y="145"/>
      <point x="362" y="109"/>
    </contour>
    <contour>
      <point x="256" y="630" type="curve"/>
      <point x="256" y="457" type="line"/>
      <point x="202" y="487"/>
      <point x="188" y="515"/>
      <point x="188" y="551" type="curve" smooth="yes"/>
      <point x="188" y="596"/>
      <point x="217" y="623"/>
    </contour>
  </outline>
</glyph>
<glyph name="percent.mono" format="2">
  <advance width="600"/>
  <unicode hex="0025"/>
  <outline>
    <contour>
      <point x="59" y="0" type="line"/>
      <point x="167" y="0" type="line"/>
      <point x="531" y="714" type="line"/>
      <point x="424" y="714" type="line"/>
    </contour>
    <contour>
      <point x="456" y="-9" type="curve" smooth="yes"/>
      <point x="548" y="-9"/>
      <point x="600" y="52"/>
      <point x="600" y="158" type="curve" smooth="yes"/>
      <point x="600" y="269"/>
      <point x="548" y="330"/>
      <point x="456" y="330" type="curve" smooth="yes"/>
      <point x="369" y="330"/>
      <point x="314" y="269"/>
      <point x="314" y="158" type="curve" smooth="yes"/>
      <point x="314" y="52"/>
      <point x="369" y="-9"/>
    </contour>
    <contour>
      <point x="458" y="76" type="curve" smooth="yes"/>
      <point x="425" y="76"/>
      <point x="412" y="103"/>
      <point x="412" y="158" type="curve" smooth="yes"/>
      <point x="412" y="218"/>
      <point x="425" y="245"/>
      <point x="458" y="245" type="curve" smooth="yes"/>
      <point x="486" y="245"/>
      <point x="502" y="218"/>
      <point x="502" y="158" type="curve" smooth="yes"/>
      <point x="502" y="103"/>
      <point x="486" y="76"/>
    </contour>
    <contour>
      <point x="142" y="383" type="curve" smooth="yes"/>
      <point x="234" y="383"/>
      <point x="286" y="444"/>
      <point x="286" y="550" type="curve" smooth="yes"/>
      <point x="286" y="661"/>
      <point x="234" y="722"/>
      <point x="142" y="722" type="curve" smooth="yes"/>
      <point x="55" y="722"/>
      <point x="0" y="661"/>
      <point x="0" y="550" type="curve" smooth="yes"/>
      <point x="0" y="444"/>
      <point x="55" y="383"/>
    </contour>
    <contour>
      <point x="144" y="468" type="curve" smooth="yes"/>
      <point x="111" y="468"/>
      <point x="98" y="495"/>
      <point x="98" y="550" type="curve" smooth="yes"/>
      <point x="98" y="610"/>
      <point x="111" y="637"/>
      <point x="144" y="637" type="curve" smooth="yes"/>
      <point x="172" y="637"/>
      <point x="188" y="610"/>
      <point x="188" y="550" type="curve" smooth="yes"/>
      <point x="188" y="495"/>
      <point x="172" y="468"/>
    </contour>
  </outline>
</glyph>
<glyph name="ampersand.mono" format="2">
  <advance width="600"/>
  <unicode hex="0026"/>
  <outline>
    <contour>
      <point x="217" y="-10" type="curve" smooth="yes"/>
      <point x="426" y="-10"/>
      <point x="534" y="197"/>
      <point x="557" y="377" type="curve"/>
      <point x="429" y="377" type="line"/>
      <point x="413" y="277"/>
      <point x="354" y="107"/>
      <point x="233" y="107" type="curve" smooth="yes"/>
      <point x="184" y="107"/>
      <point x="158" y="147"/>
      <point x="158" y="188" type="curve" smooth="yes"/>
      <point x="158" y="247"/>
      <point x="196" y="280"/>
      <point x="260" y="332" type="curve" smooth="yes"/>
      <point x="355" y="409"/>
      <point x="415" y="486"/>
      <point x="415" y="564" type="curve" smooth="yes"/>
      <point x="415" y="662"/>
      <point x="355" y="723"/>
      <point x="248" y="723" type="curve" smooth="yes"/>
      <point x="150" y="723"/>
      <point x="87" y="659"/>
      <point x="87" y="554" type="curve" smooth="yes"/>
      <point x="87" y="455"/>
      <point x="146" y="390"/>
      <point x="175" y="349" type="curve" smooth="yes"/>
      <point x="427" y="0" type="line"/>
      <point x="585" y="0" type="line"/>
      <point x="265" y="422" type="line" smooth="yes"/>
      <point x="250" y="442"/>
      <point x="207" y="491"/>
      <point x="207" y="562" type="curve" smooth="yes"/>
      <point x="207" y="605"/>
      <point x="226" y="626"/>
      <point x="255" y="626" type="curve" smooth="yes"/>
      <point x="282" y="626"/>
      <point x="299" y="606"/>
      <point x="299" y="566" type="curve" smooth="yes"/>
      <point x="299" y="507"/>
      <point x="249" y="468"/>
      <point x="197" y="430" type="curve" smooth="yes"/>
      <point x="84" y="347"/>
      <point x="30" y="277"/>
      <point x="30" y="179" type="curve" smooth="yes"/>
      <point x="30" y="71"/>
      <point x="89" y="-10"/>
    </contour>
  </outline>
</glyph>
<glyph name="ampersand.serif" format="2">
  <advance width="801"/>
  <unicode hex="0026"/>
  <outline>
    <contour>
      <point x="301" y="-10" type="curve" smooth="yes"/>
      <point x="401" y="-10"/>
      <point x="471" y="24"/>
      <point x="521" y="73" type="curve"/>
      <point x="590" y="0" type="line"/>
      <point x="788" y="0" type="line"/>
      <point x="788" y="53" type="line"/>
      <point x="779" y="53" type="line" smooth="yes"/>
      <point x="743" y="53"/>
      <point x="716" y="58"/>
      <point x="697" y="78" type="curve" smooth="yes"/>
      <point x="597" y="182" type="line"/>
      <point x="617" y="225"/>
      <point x="631" y="268"/>
      <point x="641" y="305" type="curve" smooth="yes"/>
      <point x="658" y="366"/>
      <point x="699" y="373"/>
      <point x="744" y="373" type="curve" smooth="yes"/>
      <point x="760" y="373" type="line"/>
      <point x="760" y="426" type="line"/>
      <point x="541" y="426" type="line"/>
      <point x="541" y="382" type="line" smooth="yes"/>
      <point x="541" y="344"/>
      <point x="539" y="297"/>
      <point x="531" y="251" type="curve"/>
      <point x="382" y="407" type="line"/>
      <point x="486" y="455"/>
      <point x="534" y="501"/>
      <point x="534" y="582" type="curve" smooth="yes"/>
      <point x="534" y="659"/>
      <point x="471" y="724"/>
      <point x="343" y="724" type="curve" smooth="yes"/>
      <point x="210" y="724"/>
      <point x="142" y="665"/>
      <point x="142" y="577" type="curve" smooth="yes"/>
      <point x="142" y="510"/>
      <point x="165" y="463"/>
      <point x="218" y="400" type="curve"/>
      <point x="126" y="364"/>
      <point x="47" y="320"/>
      <point x="47" y="203" type="curve" smooth="yes"/>
      <point x="47" y="69"/>
      <point x="137" y="-10"/>
    </contour>
    <contour>
      <point x="326" y="57" type="curve" smooth="yes"/>
      <point x="246" y="57"/>
      <point x="194" y="119"/>
      <point x="194" y="198" type="curve" smooth="yes"/>
      <point x="194" y="259"/>
      <point x="207" y="309"/>
      <point x="263" y="349" type="curve"/>
      <point x="477" y="121" type="line"/>
      <point x="445" y="82"/>
      <point x="397" y="57"/>
    </contour>
    <contour>
      <point x="340" y="452" type="curve"/>
      <point x="298" y="499"/>
      <point x="278" y="534"/>
      <point x="278" y="580" type="curve" smooth="yes"/>
      <point x="278" y="628"/>
      <point x="298" y="664"/>
      <point x="343" y="664" type="curve" smooth="yes"/>
      <point x="399" y="664"/>
      <point x="413" y="628"/>
      <point x="413" y="581" type="curve" smooth="yes"/>
      <point x="413" y="520"/>
      <point x="396" y="484"/>
    </contour>
  </outline>
</glyph>
<glyph name="parenleft.mono" format="2">
  <advance width="600"/>
  <unicode hex="0028"/>
  <outline>
    <contour>
      <point x="331" y="-165" type="curve"/>
      <point x="449" y="-165" type="line"/>
      <point x="363" y="-37"/>
      <point x="316" y="113"/>
      <point x="316" y="272" type="curve" smooth="yes"/>
      <point x="316" y="435"/>
      <point x="361" y="587"/>
      <point x="450" y="714" type="curve"/>
      <point x="331" y="714" type="line"/>
      <point x="240" y="597"/>
      <point x="190" y="443"/>
      <point x="190" y="271" type="curve" smooth="yes"/>
      <point x="190" y="101"/>
      <point x="239" y="-49"/>
    </contour>
  </outline>
</glyph>
<glyph name="parenright.serif" format="2">
  <advance width="400"/>
  <unicode hex="0029"/>
  <outline>
    <contour>
      <point x="32" y="-75" type="curve"/>
      <point x="32" y="-139" type="line"/>
      <point x="255" y="-50"/>
      <point x="343" y="102"/>
      <point x="343" y="318" type="curve" smooth="yes"/>
      <point x="343" y="533"/>
      <point x="255" y="683"/>
      <point x="32" y="772" type="curve"/>
      <point x="32" y="709" type="line"/>
      <point x="156" y="627"/>
      <point x="182" y="476"/>
      <point x="182" y="318" type="curve"/>
      <point x="182" y="159"/>
      <point x="156" y="7"/>
    </contour>
  </outline>
</glyph>
<glyph name="asterisk.mono" format="2">
  <advance width="600"/>
  <unicode hex="002A"/>
  <outline>
    <contour>
      <point x="376" y="321" type="line"/>
      <point x="473" y="380" type="line"/>
      <point x="374" y="507" type="line"/>
      <point x="525" y="525" type="line"/>
      <point x="503" y="634" type="line"/>
      <point x="345" y="590" type="line"/>
      <point x="359" y="755" type="line"/>
      <point x="242" y="755" type="line"/>
      <point x="255" y="591" type="line"/>
      <point x="99" y="632" type="line"/>
      <point x="75" y="527" type="line"/>
      <point x="226" y="507" type="line"/>
      <point x="128" y="379" type="line"/>
      <point x="224" y="322" type="line"/>
      <point x="299" y="465" type="line"/>
    </contour>
  </outline>
</glyph>
<glyph name="asterisk.serif" format="2">
  <advance width="502"/>
  <unicode hex="002A"/>
  <outline>
    <contour>
      <point x="196" y="367" type="line"/>
      <point x="308" y="367" type="line"/>
      <point x="272" y="528" type="line"/>
      <point x="422" y="424" type="line"/>
      <point x="467" y="524" type="line"/>
      <point x="311" y="563" type="line"/>
      <point x="467" y="603" type="line"/>
      <point x="422" y="703" type="line"/>
      <point x="272" y="598" type="line"/>
      <point x="308" y="760" type="line"/>
      <point x="196" y="760" type="line"/>
      <point x="228" y="597" type="line"/>
      <point x="80" y="703" type="line"/>
      <point x="35" y="604" type="line"/>
      <point x="191" y="563" type="line"/>
      <point x="35" y="523" type="line"/>
      <point x="80" y="424" type="line"/>
      <point x="228" y="529" type="line"/>
    </contour>
  </outline>
</glyph>
<glyph name="plus.mono" format="2">
  <advance width="600"/>
  <unicode hex="002B"/>
  <outline>
    <contour>
      <point x="248" y="117" type="line"/>
      <point x="355" y="117" type="line"/>
      <point x="355" y="300" type="line"/>
      <point x="530" y="300" type="line"/>
      <point x="530" y="406" type="line"/>
      <point x="355" y="406" type="line"/>
      <point x="355" y="592" type="line"/>
      <point x="248" y="592" type="line"/>
      <point x="248" y="406" type="line"/>
      <point x="70" y="406" type="line"/>
      <point x="70" y="300" type="line"/>
      <point x="248" y="300" type="line"/>
    </contour>
  </outline>
</glyph>
<glyph name="comma.mono" format="2">
  <advance width="600"/>
  <unicode hex="002C"/>
  <outline>
    <contour>
      <point x="194" y="-156" type="curve"/>
      <point x="301" y="-156" type="line"/>
      <point x="342" y="-66"/>
      <point x="375" y="59"/>
      <point x="392" y="125" type="curve"/>
      <point x="385" y="136" type="line"/>
      <point x="248" y="136" type="line"/>
      <point x="236" y="60"/>
      <point x="215" y="-69"/>
    </contour>
  </outline>
</glyph>
<glyph name="period.serif" format="2">
  <advance width="294"/>
  <unicode hex="002E"/>
  <outline>
    <contour>
      <point x="147" y="-8" type="curve" smooth="yes"/>
      <point x="191" y="-8"/>
      <point x="229" y="12"/>
      <point x="229" y="72" type="curve" smooth="yes"/>
      <point x="229" y="133"/>
      <point x="191" y="152"/>
      <point x="147" y="152" type="curve" smooth="yes"/>
      <point x="101" y="152"/>
      <point x="65" y="133"/>
      <point x="65" y="72" type="curve" smooth="yes"/>
      <point x="65" y="12"/>
      <point x="101" y="-8"/>
    </contour>
  </outline>
</glyph>
<glyph name="slash.mono" format="2">
  <advance width="600"/>
  <unicode hex="002F"/>
  <outline>
    <contour>
      <point x="100" y="-4" type="line"/>
      <point x="226" y="-4" type="line"/>
      <point x="500" y="718" type="line"/>
      <point x="375" y="718" type="line"/>
    </contour>
  </outline>
</glyph>
<glyph name="zero.mono" format="2">
  <advance width="600"/>
  <unicode hex="0030"/>
  <outline>
    <contour>
      <point x="302" y="-10" type="curve" smooth="yes"/>
      <point x="487" y="-10"/>
      <point x="550" y="139"/>
      <point x="550" y="352" type="curve" smooth="yes"/>
      <point x="550" y="593"/>
      <point x="470" y="724"/>
      <point x="297" y="724" type="curve" smooth="yes"/>
      <point x="128" y="724"/>
      <point x="50" y="599"/>
      <point x="50" y="361" type="curve" smooth="yes"/>
      <point x="50" y="121"/>
      <point x="129" y="-10"/>
    </contour>
    <contour>
      <point x="201" y="106" type="line"/>
      <point x="460" y="529" type="line"/>
      <point x="385" y="603" type="line"/>
      <point x="125" y="172" type="line"/>
    </contour>
    <contour>
      <point x="299" y="107" type="curve" smooth="yes"/>
      <point x="217" y="107"/>
      <point x="190" y="188"/>
      <point x="190" y="352" type="curve" smooth="yes"/>
      <point x="190" y="515"/>
      <point x="217" y="603"/>
      <point x="299" y="603" type="curve" smooth="yes"/>
      <point x="384" y="603"/>
      <point x="407" y="506"/>
      <point x="407" y="350" type="curve" smooth="yes"/>
      <point x="407" y="188"/>
      <point x="382" y="107"/>
    </contour>
  </outline>
</glyph>
<glyph name="one.mono" format="2">
  <advance width="600"/>
  <unicode hex="0031"/>
  <outline>
    <contour>
      <point x="251" y="413" type="curve" smooth="yes"/>
      <point x="251" y="0" type="line"/>
      <point x="396" y="0" type="line"/>
      <point x="396" y="714" type="line"/>
      <point x="278" y="714" type="line"/>
      <point x="68" y="602" type="line"/>
      <point x="133" y="485" type="line"/>
      <point x="201" y="522" type="line" smooth="yes"/>
      <point x="216" y="530"/>
      <point x="235" y="542"/>
      <point x="255" y="555" type="curve"/>
      <point x="252" y="508"/>
      <point x="251" y="465"/>
    </contour>
    <contour>
      <point x="113" y="0" type="line"/>
      <point x="530" y="0" type="line"/>
      <point x="530" y="101" type="line"/>
      <point x="396" y="116" type="line"/>
      <point x="252" y="116" type="line"/>
      <point x="113" y="101" type="line"/>
    </contour>
  </outline>
</glyph>
<glyph name="two.mono" format="2">
  <advance width="600"/>
  <unicode hex="0032"/>
  <outline>
    <contour>
      <point x="57" y="0" type="line"/>
      <point x="555" y="0" type="line"/>
      <point x="555" y="124" type="line"/>
      <point x="243" y="124" type="line"/>
      <point x="243" y="134" type="line"/>
      <point x="335" y="215" type="line" smooth="yes"/>
      <point x="443" y="310"/>
      <point x="536" y="398"/>
      <point x="536" y="526" type="curve" smooth="yes"/>
      <point x="536" y="639"/>
      <point x="450" y="724"/>
      <point x="305" y="724" type="curve" smooth="yes"/>
      <point x="192" y="724"/>
      <point x="133" y="689"/>
      <point x="55" y="622" type="curve"/>
      <point x="137" y="525" type="line"/>
      <point x="194" y="574"/>
      <point x="241" y="598"/>
      <point x="294" y="598" type="curve" smooth="yes"/>
      <point x="348" y="598"/>
      <point x="385" y="565"/>
      <point x="385" y="508" type="curve" smooth="yes"/>
      <point x="385" y="428"/>
      <point x="315" y="363"/>
      <point x="231" y="279" type="curve" smooth="yes"/>
      <point x="57" y="105" type="line"/>
    </contour>
  </outline>
</glyph>
<glyph name="three.mono" format="2">
  <advance width="600"/>
  <unicode hex="0033"/>
  <outline>
    <contour>
      <point x="273" y="-10" type="curve" smooth="yes"/>
      <point x="418" y="-10"/>
      <point x="535" y="55"/>
      <point x="535" y="208" type="curve" smooth="yes"/>
      <point x="535" y="300"/>
      <point x="487" y="357"/>
      <point x="375" y="373" type="curve"/>
      <point x="375" y="376" type="line"/>
      <point x="465" y="399"/>
      <point x="514" y="470"/>
      <point x="514" y="553" type="curve" smooth="yes"/>
      <point x="514" y="674"/>
      <point x="411" y="724"/>
      <point x="297" y="724" type="curve" smooth="yes"/>
      <point x="217" y="724"/>
      <point x="136" y="699"/>
      <point x="69" y="654" type="curve"/>
      <point x="134" y="550" type="line"/>
      <point x="198" y="585"/>
      <point x="247" y="600"/>
      <point x="289" y="600" type="curve" smooth="yes"/>
      <point x="354" y="600"/>
      <point x="376" y="565"/>
      <point x="376" y="521" type="curve" smooth="yes"/>
      <point x="376" y="459"/>
      <point x="332" y="425"/>
      <point x="230" y="425" type="curve" smooth="yes"/>
      <point x="175" y="425" type="line"/>
      <point x="175" y="309" type="line"/>
      <point x="229" y="309" type="line" smooth="yes"/>
      <point x="343" y="309"/>
      <point x="387" y="284"/>
      <point x="387" y="215" type="curve" smooth="yes"/>
      <point x="387" y="148"/>
      <point x="346" y="112"/>
      <point x="262" y="112" type="curve" smooth="yes"/>
      <point x="204" y="112"/>
      <point x="130" y="129"/>
      <point x="71" y="157" type="curve"/>
      <point x="71" y="29" type="line"/>
      <point x="135" y="3"/>
      <point x="208" y="-10"/>
    </contour>
  </outline>
</glyph>
<glyph name="four.mono" format="2">
  <advance width="600"/>
  <unicode hex="0034"/>
  <outline>
    <contour>
      <point x="330" y="0" type="line"/>
      <point x="468" y="0" type="line"/>
      <point x="468" y="148" type="line"/>
      <point x="560" y="148" type="line"/>
      <point x="560" y="265" type="line"/>
      <point x="468" y="265" type="line"/>
      <point x="468" y="714" type="line"/>
      <point x="333" y="714" type="line"/>
      <point x="40" y="253" type="line"/>
      <point x="40" y="148" type="line"/>
      <point x="330" y="148" type="line"/>
    </contour>
    <contour>
      <point x="173" y="265" type="line"/>
      <point x="290" y="461" type="line" smooth="yes"/>
      <point x="306" y="488"/>
      <point x="321" y="512"/>
      <point x="333" y="539" type="curve"/>
      <point x="337" y="539" type="line"/>
      <point x="335" y="528"/>
      <point x="330" y="416"/>
      <point x="330" y="386" type="curve" smooth="yes"/>
      <point x="330" y="265" type="line"/>
    </contour>
  </outline>
</glyph>
<glyph name="five.mono" format="2">
  <advance width="600"/>
  <unicode hex="0035"/>
  <outline>
    <contour>
      <point x="253" y="-10" type="curve" smooth="yes"/>
      <point x="407" y="-10"/>
      <point x="525" y="71"/>
      <point x="525" y="232" type="curve" smooth="yes"/>
      <point x="525" y="375"/>
      <point x="433" y="454"/>
      <point x="311" y="454" type="curve" smooth="yes"/>
      <point x="292" y="454"/>
      <point x="266" y="452"/>
      <point x="235" y="446" type="curve"/>
      <point x="246" y="590" type="line"/>
      <point x="486" y="590" type="line"/>
      <point x="486" y="714" type="line"/>
      <point x="116" y="714" type="line"/>
      <point x="88" y="350" type="line"/>
      <point x="148" y="320" type="line"/>
      <point x="174" y="331"/>
      <point x="216" y="337"/>
      <point x="254" y="337" type="curve" smooth="yes"/>
      <point x="316" y="337"/>
      <point x="373" y="308"/>
      <point x="373" y="222" type="curve" smooth="yes"/>
      <point x="373" y="150"/>
      <point x="333" y="116"/>
      <point x="255" y="116" type="curve" smooth="yes"/>
      <point x="200" y="116"/>
      <point x="134" y="130"/>
      <point x="76" y="159" type="curve"/>
      <point x="76" y="29" type="line"/>
      <point x="125" y="3"/>
      <point x="193" y="-10"/>
    </contour>
  </outline>
</glyph>
<glyph name="six.mono" format="2">
  <advance width="600"/>
  <unicode hex="0036"/>
  <outline>
    <contour>
      <point x="309" y="-11" type="curve"/>
      <point x="458" y="-11"/>
      <point x="545" y="85"/>
      <point x="545" y="238" type="curve" smooth="yes"/>
      <point x="545" y="376"/>
      <point x="478" y="464"/>
      <point x="352" y="464" type="curve" smooth="yes"/>
      <point x="280" y="464"/>
      <point x="232" y="436"/>
      <point x="200" y="381" type="curve"/>
      <point x="194" y="381" type="line"/>
      <point x="206" y="530"/>
      <point x="270" y="604"/>
      <point x="405" y="604" type="curve" smooth="yes"/>
      <point x="437" y="604"/>
      <point x="466" y="601"/>
      <point x="495" y="594" type="curve"/>
      <point x="495" y="715" type="line"/>
      <point x="472" y="720"/>
      <point x="440" y="722"/>
      <point x="411" y="722" type="curve" smooth="yes"/>
      <point x="170" y="722"/>
      <point x="55" y="586"/>
      <point x="55" y="326" type="curve" smooth="yes"/>
      <point x="55" y="105"/>
      <point x="155" y="-11"/>
    </contour>
    <contour>
      <point x="306" y="116" type="curve" smooth="yes"/>
      <point x="244" y="116"/>
      <point x="205" y="162"/>
      <point x="205" y="230" type="curve" smooth="yes"/>
      <point x="205" y="305"/>
      <point x="253" y="348"/>
      <point x="309" y="348" type="curve" smooth="yes"/>
      <point x="370" y="348"/>
      <point x="399" y="306"/>
      <point x="399" y="236" type="curve" smooth="yes"/>
      <point x="399" y="156"/>
      <point x="366" y="116"/>
    </contour>
  </outline>
</glyph>
<glyph name="seven.mono" format="2">
  <advance width="600"/>
  <unicode hex="0037"/>
  <outline>
    <contour>
      <point x="122" y="0" type="line"/>
      <point x="280" y="0" type="line"/>
      <point x="550" y="618" type="line"/>
      <point x="550" y="713" type="line"/>
      <point x="50" y="713" type="line"/>
      <point x="50" y="590" type="line"/>
      <point x="390" y="590" type="line"/>
    </contour>
  </outline>
</glyph>
<glyph name="eight.mono" format="2">
  <advance width="600"/>
  <unicode hex="0038"/>
  <outline>
    <contour>
      <point x="300" y="-10" type="curve" smooth="yes"/>
      <point x="432" y="-10"/>
      <point x="541" y="58"/>
      <point x="541" y="185" type="curve" smooth="yes"/>
      <point x="541" y="259"/>
      <point x="500" y="320"/>
      <point x="400" y="377" type="curve"/>
      <point x="483" y="422"/>
      <point x="519" y="478"/>
      <point x="519" y="551" type="curve" smooth="yes"/>
      <point x="519" y="666"/>
      <point x="420" y="723"/>
      <point x="300" y="723" type="curve" smooth="yes"/>
      <point x="182" y="723"/>
      <point x="81" y="664"/>
      <point x="81" y="552" type="curve" smooth="yes"/>
      <point x="81" y="482"/>
      <point x="111" y="424"/>
      <point x="186" y="373" type="curve"/>
      <point x="97" y="325"/>
      <point x="59" y="263"/>
      <point x="59" y="181" type="curve" smooth="yes"/>
      <point x="59" y="49"/>
      <point x="162" y="-10"/>
    </contour>
    <contour>
      <point x="298" y="107" type="curve" smooth="yes"/>
      <point x="237" y="107"/>
      <point x="199" y="139"/>
      <point x="199" y="190" type="curve" smooth="yes"/>
      <point x="199" y="239"/>
      <point x="230" y="279"/>
      <point x="293" y="311" type="curve"/>
      <point x="368" y="268"/>
      <point x="401" y="232"/>
      <point x="401" y="189" type="curve" smooth="yes"/>
      <point x="401" y="141"/>
      <point x="367" y="107"/>
    </contour>
    <contour>
      <point x="300" y="440" type="curve"/>
      <point x="253" y="466"/>
      <point x="223" y="493"/>
      <point x="223" y="540" type="curve" smooth="yes"/>
      <point x="223" y="579"/>
      <point x="254" y="605"/>
      <point x="299" y="605" type="curve" smooth="yes"/>
      <point x="345" y="605"/>
      <point x="377" y="580"/>
      <point x="377" y="540" type="curve" smooth="yes"/>
      <point x="377" y="499"/>
      <point x="357" y="470"/>
    </contour>
  </outline>
</glyph>
<glyph name="nine.mono" format="2">
  <advance width="600"/>
  <unicode hex="0039"/>
  <outline>
    <contour>
      <point x="187" y="-10" type="curve" smooth="yes"/>
      <point x="429" y="-10"/>
      <point x="545" y="126"/>
      <point x="545" y="394" type="curve" smooth="yes"/>
      <point x="545" y="608"/>
      <point x="445" y="725"/>
      <point x="291" y="725" type="curve" smooth="yes"/>
      <point x="142" y="725"/>
      <point x="55" y="628"/>
      <point x="55" y="474" type="curve" smooth="yes"/>
      <point x="55" y="337"/>
      <point x="122" y="250"/>
      <point x="248" y="250" type="curve" smooth="yes"/>
      <point x="319" y="250"/>
      <point x="368" y="277"/>
      <point x="399" y="331" type="curve"/>
      <point x="405" y="331" type="line"/>
      <point x="394" y="190"/>
      <point x="338" y="108"/>
      <point x="193" y="108" type="curve" smooth="yes"/>
      <point x="161" y="108"/>
      <point x="132" y="111"/>
      <point x="103" y="118" type="curve"/>
      <point x="103" y="-3" type="line"/>
      <point x="126" y="-8"/>
      <point x="158" y="-10"/>
    </contour>
    <contour>
      <point x="291" y="366" type="curve" smooth="yes"/>
      <point x="230" y="366"/>
      <point x="201" y="407"/>
      <point x="201" y="476" type="curve" smooth="yes"/>
      <point x="201" y="557"/>
      <point x="234" y="598"/>
      <point x="294" y="598" type="curve" smooth="yes"/>
      <point x="356" y="598"/>
      <point x="395" y="551"/>
      <point x="395" y="479" type="curve" smooth="yes"/>
      <point x="395" y="408"/>
      <point x="347" y="366"/>
    </contour>
  </outline>
</glyph>
<glyph name="colon.mono" format="2">
  <advance width="600"/>
  <unicode hex="003A"/>
  <outline>
    <contour>
      <point x="300" y="380" type="curve" smooth="yes"/>
      <point x="356" y="380"/>
      <point x="390" y="414"/>
      <point x="390" y="468" type="curve" smooth="yes"/>
      <point x="390" y="524"/>
      <point x="357" y="556"/>
      <point x="300" y="556" type="curve" smooth="yes"/>
      <point x="241" y="556"/>
      <point x="209" y="526"/>
      <point x="209" y="468" type="curve" smooth="yes"/>
      <point x="209" y="412"/>
      <point x="242" y="380"/>
    </contour>
    <contour>
      <point x="300" y="-10" type="curve" smooth="yes"/>
      <point x="356" y="-10"/>
      <point x="390" y="24"/>
      <point x="390" y="78" type="curve" smooth="yes"/>
      <point x="390" y="134"/>
      <point x="357" y="166"/>
      <point x="300" y="166" type="curve" smooth="yes"/>
      <point x="241" y="166"/>
      <point x="209" y="136"/>
      <point x="209" y="78" type="curve" smooth="yes"/>
      <point x="209" y="22"/>
      <point x="242" y="-10"/>
    </contour>
  </outline>
</glyph>
<glyph name="semicolon.mono" format="2">
  <advance width="600"/>
  <unicode hex="003B"/>
  <outline>
    <contour>
      <point x="194" y="-156" type="curve"/>
      <point x="301" y="-156" type="line"/>
      <point x="342" y="-66"/>
      <point x="375" y="59"/>
      <point x="392" y="125" type="curve"/>
      <point x="385" y="136" type="line"/>
      <point x="248" y="136" type="line"/>
      <point x="236" y="60"/>
      <point x="215" y="-69"/>
    </contour>
    <contour>
      <point x="322" y="380" type="curve" smooth="yes"/>
      <point x="378" y="380"/>
      <point x="412" y="414"/>
      <point x="412" y="468" type="curve" smooth="yes"/>
      <point x="412" y="524"/>
      <point x="379" y="556"/>
      <point x="322" y="556" type="curve" smooth="yes"/>
      <point x="263" y="556"/>
      <point x="231" y="526"/>
      <point x="231" y="468" type="curve" smooth="yes"/>
      <point x="231" y="412"/>
      <point x="264" y="380"/>
    </contour>
  </outline>
</glyph>
<glyph name="greater.mono" format="2">
  <advance width="600"/>
  <unicode hex="003E"/>
  <outline>
    <contour>
      <point x="85" y="110" type="line"/>
      <point x="515" y="319" type="line"/>
      <point x="515" y="389" type="line"/>
      <point x="85" y="611" type="line"/>
      <point x="85" y="493" type="line"/>
      <point x="363" y="356" type="line"/>
      <point x="85" y="227" type="line"/>
    </contour>
  </outline>
</glyph>
<glyph name="question.mono" format="2">
  <advance width="600"/>
  <unicode hex="003F"/>
  <outline>
    <contour>
      <point x="207" y="273" type="curve" smooth="yes"/>
      <point x="207" y="237" type="line"/>
      <point x="336" y="237" type="line"/>
      <point x="336" y="266" type="line" smooth="yes"/>
      <point x="336" y="313"/>
      <point x="359" y="330"/>
      <point x="408" y="366" type="curve" smooth="yes"/>
      <point x="486" y="423"/>
      <point x="520" y="460"/>
      <point x="520" y="547" type="curve" smooth="yes"/>
      <point x="520" y="663"/>
      <point x="427" y="724"/>
      <point x="306" y="724" type="curve" smooth="yes"/>
      <point x="226" y="724"/>
      <point x="156" y="704"/>
      <point x="80" y="663" type="curve"/>
      <point x="133" y="556" type="line"/>
      <point x="200" y="588"/>
      <point x="248" y="604"/>
      <point x="295" y="604" type="curve" smooth="yes"/>
      <point x="347" y="604"/>
      <point x="379" y="582"/>
      <point x="379" y="539" type="curve" smooth="yes"/>
      <point x="379" y="492"/>
      <point x="350" y="464"/>
      <point x="300" y="428" type="curve" smooth="yes"/>
      <point x="236" y="382"/>
      <point x="207" y="343"/>
    </contour>
    <contour>
      <point x="273" y="-10" type="curve" smooth="yes"/>
      <point x="329" y="-10"/>
      <point x="363" y="24"/>
      <point x="363" y="78" type="curve" smooth="yes"/>
      <point x="363" y="134"/>
      <point x="330" y="166"/>
      <point x="273" y="166" type="curve" smooth="yes"/>
      <point x="214" y="166"/>
      <point x="182" y="136"/>
      <point x="182" y="78" type="curve" smooth="yes"/>
      <point x="182" y="22"/>
      <point x="215" y="-10"/>
    </contour>
  </outline>
</glyph>
<glyph name="at.mono" format="2">
  <advance width="600"/>
  <unicode hex="0040"/>
  <outline>
    <contour>
      <point x="320" y="-89" type="curve" smooth="yes"/>
      <point x="389" y="-89"/>
      <point x="448" y="-74"/>
      <point x="496" y="-49" type="curve"/>
      <point x="496" y="35" type="line"/>
      <point x="444" y="11"/>
      <point x="378" y="-6"/>
      <point x="315" y="-6" type="curve" smooth="yes"/>
      <point x="178" y="-6"/>
      <point x="98" y="99"/>
      <point x="98" y="289" type="curve" smooth="yes"/>
      <point x="98" y="487"/>
      <point x="181" y="632"/>
      <point x="326" y="632" type="curve" smooth="yes"/>
      <point x="429" y="632"/>
      <point x="503" y="543"/>
      <point x="503" y="363" type="curve" smooth="yes"/>
      <point x="503" y="270"/>
      <point x="486" y="197"/>
      <point x="460" y="197" type="curve" smooth="yes"/>
      <point x="444" y="197"/>
      <point x="434" y="211"/>
      <point x="435" y="265" type="curve" smooth="yes"/>
      <point x="435" y="277"/>
      <point x="435" y="286"/>
      <point x="436" y="296" type="curve" smooth="yes"/>
      <point x="446" y="493" type="line"/>
      <point x="409" y="506"/>
      <point x="362" y="520"/>
      <point x="316" y="520" type="curve" smooth="yes"/>
      <point x="214" y="520"/>
      <point x="154" y="428"/>
      <point x="154" y="299" type="curve" smooth="yes"/>
      <point x="154" y="185"/>
      <point x="198" y="108"/>
      <point x="276" y="108" type="curve" smooth="yes"/>
      <point x="321" y="108"/>
      <point x="351" y="135"/>
      <point x="370" y="165" type="curve"/>
      <point x="372" y="165" type="line"/>
      <point x="386" y="132"/>
      <point x="413" y="108"/>
      <point x="454" y="108" type="curve" smooth="yes"/>
      <point x="549" y="108"/>
      <point x="600" y="227"/>
      <point x="600" y="365" type="curve" smooth="yes"/>
      <point x="600" y="576"/>
      <point x="489" y="714"/>
      <point x="326" y="714" type="curve" smooth="yes"/>
      <point x="121" y="714"/>
      <point x="0" y="527"/>
      <point x="0" y="282" type="curve" smooth="yes"/>
      <point x="0" y="52"/>
      <point x="119" y="-89"/>
    </contour>
    <contour>
      <point x="289" y="197" type="curve" smooth="yes"/>
      <point x="262" y="197"/>
      <point x="249" y="226"/>
      <point x="249" y="297" type="curve" smooth="yes"/>
      <point x="249" y="364"/>
      <point x="266" y="431"/>
      <point x="320" y="431" type="curve" smooth="yes"/>
      <point x="328" y="431"/>
      <point x="339" y="429"/>
      <point x="346" y="426" type="curve"/>
      <point x="341" y="326" type="line" smooth="yes"/>
      <point x="337" y="253"/>
      <point x="324" y="197"/>
    </contour>
  </outline>
</glyph>
<glyph name="at.serif" format="2">
  <advance width="921"/>
  <unicode hex="0040"/>
  <outline>
    <contour>
      <point x="466" y="-142" type="curve" smooth="yes"/>
      <point x="593" y="-142"/>
      <point x="704" y="-98"/>
      <point x="774" y="-45" type="curve"/>
      <point x="750" y="-7" type="line"/>
      <point x="688" y="-49"/>
      <point x="588" y="-91"/>
      <point x="480" y="-91" type="curve" smooth="yes"/>
      <point x="300" y="-91"/>
      <point x="149" y="2"/>
      <point x="149" y="238" type="curve" smooth="yes"/>
      <point x="149" y="501"/>
      <point x="333" y="663"/>
      <point x="523" y="663" type="curve" smooth="yes"/>
      <point x="684" y="663"/>
      <point x="801" y="571"/>
      <point x="801" y="388" type="curve" smooth="yes"/>
      <point x="801" y="224"/>
      <point x="739" y="135"/>
      <point x="686" y="135" type="curve"/>
      <point x="664" y="135"/>
      <point x="638" y="147"/>
      <point x="638" y="202" type="curve"/>
      <point x="638" y="218"/>
      <point x="642" y="254"/>
      <point x="645" y="270" type="curve"/>
      <point x="687" y="520" type="line"/>
      <point x="663" y="520" type="line"/>
      <point x="621" y="499" type="line"/>
      <point x="600" y="515"/>
      <point x="567" y="529"/>
      <point x="521" y="529" type="curve"/>
      <point x="327" y="529"/>
      <point x="252" y="355"/>
      <point x="252" y="248" type="curve" smooth="yes"/>
      <point x="252" y="131"/>
      <point x="325" y="77"/>
      <point x="409" y="77" type="curve" smooth="yes"/>
      <point x="479" y="77"/>
      <point x="519" y="119"/>
      <point x="547" y="171" type="curve"/>
      <point x="553" y="171" type="line"/>
      <point x="575" y="104"/>
      <point x="617" y="77"/>
      <point x="676" y="77" type="curve"/>
      <point x="776" y="77"/>
      <point x="882" y="193"/>
      <point x="882" y="392" type="curve"/>
      <point x="882" y="573"/>
      <point x="761" y="714"/>
      <point x="530" y="714" type="curve" smooth="yes"/>
      <point x="253" y="714"/>
      <point x="51" y="512"/>
      <point x="51" y="244" type="curve" smooth="yes"/>
      <point x="51" y="-15"/>
      <point x="238" y="-142"/>
    </contour>
    <contour>
      <point x="439" y="135" type="curve" smooth="yes"/>
      <point x="401" y="135"/>
      <point x="375" y="172"/>
      <point x="375" y="238" type="curve" smooth="yes"/>
      <point x="375" y="318"/>
      <point x="416" y="485"/>
      <point x="517" y="485" type="curve"/>
      <point x="538" y="485"/>
      <point x="562" y="475"/>
      <point x="570" y="457" type="curve"/>
      <point x="530" y="253" type="line" smooth="yes"/>
      <point x="519" y="195"/>
      <point x="496" y="135"/>
    </contour>
  </outline>
</glyph>
<glyph name="A.mono" format="2">
  <advance width="600"/>
  <unicode hex="0041"/>
  <anchor x="300" y="0" name="bottom"/>
  <anchor x="540" y="10" name="ogonek"/>
  <anchor x="300" y="714" name="top"/>
  <anchor x="580" y="714" name="topright"/>
  <outline>
    <contour>
      <point x="10" y="0" type="line"/>
      <point x="151" y="0" type="line"/>
      <point x="269" y="473" type="line" smooth="yes"/>
      <point x="280" y="518"/>
      <point x="290" y="562"/>
      <point x="300" y="607" type="curve"/>
      <point x="310" y="562"/>
      <point x="320" y="518"/>
      <point x="331" y="473" type="curve" smooth="yes"/>
      <point x="445" y="0" type="line"/>
      <point x="590" y="0" type="line"/>
      <point x="392" y="717" type="line"/>
      <point x="207" y="717" type="line"/>
    </contour>
    <contour>
      <point x="168" y="177" type="line"/>
      <point x="418" y="177" type="line"/>
      <point x="404" y="297" type="line"/>
      <point x="198" y="297" type="line"/>
    </contour>
  </outline>
</glyph>
<glyph name="A.serif" format="2">
  <advance width="753"/>
  <unicode hex="0041"/>
  <anchor x="593" y="0" name="bottom"/>
  <anchor x="377" y="714" name="top"/>
  <anchor x="603" y="714" name="topright"/>
  <outline>
    <contour>
      <point x="4" y="0" type="line"/>
      <point x="264" y="0" type="line"/>
      <point x="264" y="53" type="line"/>
      <point x="222" y="53" type="line" smooth="yes"/>
      <point x="199" y="53"/>
      <point x="177" y="66"/>
      <point x="177" y="92" type="curve" smooth="yes"/>
      <point x="177" y="108"/>
      <point x="184" y="133"/>
      <point x="189" y="149" type="curve" smooth="yes"/>
      <point x="218" y="235" type="line"/>
      <point x="461" y="235" type="line"/>
      <point x="496" y="135" type="line" smooth="yes"/>
      <point x="500" y="124"/>
      <point x="505" y="108"/>
      <point x="505" y="92" type="curve" smooth="yes"/>
      <point x="505" y="64"/>
      <point x="482" y="53"/>
      <point x="462" y="53" type="curve" smooth="yes"/>
      <point x="423" y="53" type="line"/>
      <point x="423" y="0" type="line"/>
      <point x="753" y="0" type="line"/>
      <point x="753" y="53" type="line"/>
      <point x="735" y="53" type="line" smooth="yes"/>
      <point x="703" y="53"/>
      <point x="679" y="69"/>
      <point x="659" y="125" type="curve" smooth="yes"/>
      <point x="450" y="714" type="line"/>
      <point x="313" y="714" type="line"/>
      <point x="96" y="126" type="line" smooth="yes"/>
      <point x="74" y="66"/>
      <point x="52" y="53"/>
      <point x="16" y="53" type="curve"/>
      <point x="4" y="53" type="line"/>
    </contour>
    <contour>
      <point x="239" y="296" type="line"/>
      <point x="298" y="465" type="line" smooth="yes"/>
      <point x="314" y="511"/>
      <point x="333" y="570"/>
      <point x="345" y="613" type="curve"/>
      <point x="356" y="566"/>
      <point x="374" y="505"/>
      <point x="388" y="460" type="curve" smooth="yes"/>
      <point x="441" y="296" type="line"/>
    </contour>
  </outline>
</glyph>
<glyph name="B.mono" format="2">
  <advance width="600"/>
  <unicode hex="0042"/>
  <anchor x="300" y="0" name="bottom"/>
  <anchor x="300" y="714" name="top"/>
  <anchor x="580" y="714" name="topright"/>
  <outline>
    <contour>
      <point x="80" y="0" type="line"/>
      <point x="327" y="0" type="line" smooth="yes"/>
      <point x="474" y="0"/>
      <point x="560" y="78"/>
      <point x="560" y="209" type="curve" smooth="yes"/>
      <point x="560" y="308"/>
      <point x="511" y="356"/>
      <point x="438" y="374" type="curve"/>
      <point x="438" y="379" type="line"/>
      <point x="503" y="393"/>
      <point x="545" y="452"/>
      <point x="545" y="539" type="curve" smooth="yes"/>
      <point x="545" y="662"/>
      <point x="460" y="714"/>
      <point x="303" y="714" type="curve" smooth="yes"/>
      <point x="80" y="714" type="line"/>
    </contour>
    <contour>
      <point x="313" y="119" type="curve" smooth="yes"/>
      <point x="215" y="119" type="line"/>
      <point x="215" y="310" type="line"/>
      <point x="308" y="310" type="line" smooth="yes"/>
      <point x="385" y="310"/>
      <point x="409" y="278"/>
      <point x="409" y="217" type="curve" smooth="yes"/>
      <point x="409" y="156"/>
      <point x="385" y="119"/>
    </contour>
    <contour>
      <point x="302" y="433" type="curve" smooth="yes"/>
      <point x="215" y="433" type="line"/>
      <point x="215" y="595" type="line"/>
      <point x="297" y="595" type="line" smooth="yes"/>
      <point x="370" y="595"/>
      <point x="398" y="571"/>
      <point x="398" y="514" type="curve" smooth="yes"/>
      <point x="398" y="458"/>
      <point x="372" y="433"/>
    </contour>
  </outline>
</glyph>
<glyph name="C.mono" format="2">
  <advance width="600"/>
  <unicode hex="0043"/>
  <anchor x="336" y="0" name="bottom"/>
  <anchor x="354" y="714" name="top"/>
  <anchor x="580" y="714" name="topright"/>
  <outline>
    <contour>
      <point x="351" y="-10" type="curve" smooth="yes"/>
      <point x="411" y="-10"/>
      <point x="474" y="2"/>
      <point x="532" y="27" type="curve"/>
      <point x="532" y="157" type="line"/>
      <point x="466" y="127"/>
      <point x="422" y="117"/>
      <point x="375" y="117" type="curve" smooth="yes"/>
      <point x="249" y="117"/>
      <point x="197" y="191"/>
      <point x="197" y="348" type="curve" smooth="yes"/>
      <point x="197" y="498"/>
      <point x="244" y="597"/>
      <point x="383" y="597" type="curve" smooth="yes"/>
      <point x="422" y="597"/>
      <point x="462" y="589"/>
      <point x="512" y="564" type="curve"/>
      <point x="560" y="683" type="line"/>
      <point x="505" y="710"/>
      <point x="457" y="724"/>
      <point x="388" y="724" type="curve" smooth="yes"/>
      <point x="168" y="724"/>
      <point x="50" y="579"/>
      <point x="50" y="342" type="curve" smooth="yes"/>
      <point x="50" y="129"/>
      <point x="145" y="-10"/>
    </contour>
  </outline>
</glyph>
<glyph name="D.mono" format="2">
  <advance width="600"/>
  <unicode hex="0044"/>
  <anchor x="255" y="0" name="bottom"/>
  <anchor x="305" y="357" name="center"/>
  <anchor x="284" y="714" name="top"/>
  <anchor x="600" y="714" name="topright"/>
  <outline>
    <contour>
      <point x="45" y="0" type="line"/>
      <point x="255" y="0" type="line" smooth="yes"/>
      <point x="449" y="0"/>
      <point x="570" y="129"/>
      <point x="570" y="363" type="curve" smooth="yes"/>
      <point x="570" y="595"/>
      <point x="451" y="714"/>
      <point x="266" y="714" type="curve" smooth="yes"/>
      <point x="45" y="714" type="line"/>
    </contour>
    <contour>
      <point x="247" y="123" type="curve" smooth="yes"/>
      <point x="188" y="123" type="line"/>
      <point x="188" y="591" type="line"/>
      <point x="259" y="591" type="line" smooth="yes"/>
      <point x="368" y="591"/>
      <point x="423" y="522"/>
      <point x="423" y="362" type="curve" smooth="yes"/>
      <point x="423" y="201"/>
      <point x="368" y="123"/>
    </contour>
  </outline>
</glyph>
<glyph name="D.serif" format="2">
  <advance width="767"/>
  <unicode hex="0044"/>
  <anchor x="370" y="0" name="bottom"/>
  <anchor x="384" y="357" name="center"/>
  <anchor x="372" y="714" name="top"/>
  <anchor x="747" y="714" name="topright"/>
  <outline>
    <contour>
      <point x="28" y="0" type="line"/>
      <point x="358" y="0" type="line"/>
      <point x="591" y="0"/>
      <point x="712" y="151"/>
      <point x="712" y="370" type="curve" smooth="yes"/>
      <point x="712" y="597"/>
      <point x="579" y="714"/>
      <point x="358" y="714" type="curve"/>
      <point x="28" y="714" type="line"/>
      <point x="28" y="661" type="line"/>
      <point x="70" y="661" type="line"/>
      <point x="98" y="661"/>
      <point x="121" y="653"/>
      <point x="121" y="600" type="curve" smooth="yes"/>
      <point x="121" y="118" type="line"/>
      <point x="121" y="61"/>
      <point x="99" y="53"/>
      <point x="70" y="53" type="curve"/>
      <point x="28" y="53" type="line"/>
    </contour>
    <contour>
      <point x="335" y="62" type="curve"/>
      <point x="279" y="62" type="line"/>
      <point x="279" y="653" type="line"/>
      <point x="336" y="653" type="line"/>
      <point x="472" y="653"/>
      <point x="543" y="561"/>
      <point x="543" y="370" type="curve" smooth="yes"/>
      <point x="543" y="179"/>
      <point x="472" y="62"/>
    </contour>
  </outline>
</glyph>
<glyph name="E.mono" format="2">
  <advance width="600"/>
  <unicode hex="0045"/>
  <anchor x="304" y="0" name="bottom"/>
  <anchor x="461" y="10" name="ogonek"/>
  <anchor x="306" y="714" name="top"/>
  <anchor x="20" y="714" name="topleft"/>
  <anchor x="580" y="714" name="topright"/>
  <outline>
    <contour>
      <point x="80" y="0" type="line"/>
      <point x="530" y="0" type="line"/>
      <point x="530" y="125" type="line"/>
      <point x="220" y="125" type="line"/>
      <point x="220" y="308" type="line"/>
      <point x="515" y="308" type="line"/>
      <point x="515" y="433" type="line"/>
      <point x="220" y="433" type="line"/>
      <point x="220" y="589" type="line"/>
      <point x="530" y="589" type="line"/>
      <point x="530" y="714" type="line"/>
      <point x="80" y="714" type="line"/>
    </contour>
  </outline>
</glyph>
<glyph name="E.serif" format="2">
  <advance width="653"/>
  <unicode hex="0045"/>
  <anchor x="327" y="0" name="bottom"/>
  <anchor x="327" y="714" name="top"/>
  <anchor x="633" y="714" name="topright"/>
  <outline>
    <contour>
      <point x="28" y="0" type="line"/>
      <point x="614" y="0" type="line"/>
      <point x="621" y="184" type="line"/>
      <point x="552" y="184" type="line"/>
      <point x="544" y="137" type="line" smooth="yes"/>
      <point x="537" y="93"/>
      <point x="520" y="61"/>
      <point x="480" y="61" type="curve"/>
      <point x="280" y="61" type="line"/>
      <point x="280" y="343" type="line"/>
      <point x="517" y="343" type="line"/>
      <point x="517" y="403" type="line"/>
      <point x="280" y="403" type="line"/>
      <point x="280" y="653" type="line"/>
      <point x="448" y="653" type="line" smooth="yes"/>
      <point x="489" y="653"/>
      <point x="507" y="626"/>
      <point x="512" y="577" type="curve" smooth="yes"/>
      <point x="517" y="530" type="line"/>
      <point x="587" y="530" type="line"/>
      <point x="583" y="714" type="line"/>
      <point x="28" y="714" type="line"/>
      <point x="28" y="661" type="line"/>
      <point x="70" y="661" type="line"/>
      <point x="99" y="661"/>
      <point x="121" y="653"/>
      <point x="121" y="596" type="curve"/>
      <point x="121" y="113" type="line" smooth="yes"/>
      <point x="121" y="60"/>
      <point x="98" y="53"/>
      <point x="70" y="53" type="curve"/>
      <point x="28" y="53" type="line"/>
    </contour>
  </outline>
</glyph>
<glyph name="F.mono" format="2">
  <advance width="600"/>
  <unicode hex="0046"/>
  <anchor x="310" y="0" name="bottom"/>
  <anchor x="310" y="714" name="top"/>
  <anchor x="580" y="714" name="topright"/>
  <outline>
    <contour>
      <point x="80" y="0" type="line"/>
      <point x="220" y="0" type="line"/>
      <point x="220" y="278" type="line"/>
      <point x="515" y="278" type="line"/>
      <point x="515" y="403" type="line"/>
      <point x="220" y="403" type="line"/>
      <point x="220" y="589" type="line"/>
      <point x="530" y="589" type="line"/>
      <point x="530" y="714" type="line"/>
      <point x="80" y="714" type="line"/>
    </contour>
  </outline>
</glyph>
<glyph name="F.serif" format="2">
  <advance width="621"/>
  <unicode hex="0046"/>
  <anchor x="200" y="0" name="bottom"/>
  <anchor x="311" y="714" name="top"/>
  <anchor x="601" y="714" name="topright"/>
  <outline>
    <contour>
      <point x="28" y="0" type="line"/>
      <point x="393" y="0" type="line"/>
      <point x="393" y="53" type="line"/>
      <point x="331" y="53" type="line"/>
      <point x="302" y="53"/>
      <point x="279" y="61"/>
      <point x="279" y="118" type="curve"/>
      <point x="279" y="321" type="line"/>
      <point x="516" y="321" type="line"/>
      <point x="516" y="380" type="line"/>
      <point x="279" y="380" type="line"/>
      <point x="279" y="653" type="line"/>
      <point x="438" y="653" type="line"/>
      <point x="479" y="653"/>
      <point x="506" y="631"/>
      <point x="512" y="578" type="curve" smooth="yes"/>
      <point x="517" y="530" type="line"/>
      <point x="587" y="530" type="line"/>
      <point x="582" y="714" type="line"/>
      <point x="28" y="714" type="line"/>
      <point x="28" y="661" type="line"/>
      <point x="70" y="661" type="line"/>
      <point x="98" y="661"/>
      <point x="121" y="653"/>
      <point x="121" y="600" type="curve" smooth="yes"/>
      <point x="121" y="113" type="line" smooth="yes"/>
      <point x="121" y="60"/>
      <point x="98" y="53"/>
      <point x="70" y="53" type="curve"/>
      <point x="28" y="53" type="line"/>
    </contour>
  </outline>
</glyph>
<glyph name="G.mono" format="2">
  <advance width="600"/>
  <unicode hex="0047"/>
  <anchor x="332" y="0" name="bottom"/>
  <anchor x="327" y="714" name="top"/>
  <anchor x="580" y="714" name="topright"/>
  <outline>
    <contour>
      <point x="343" y="-10" type="curve" smooth="yes"/>
      <point x="423" y="-10"/>
      <point x="485" y="0"/>
      <point x="555" y="31" type="curve"/>
      <point x="555" y="402" type="line"/>
      <point x="325" y="402" type="line"/>
      <point x="325" y="282" type="line"/>
      <point x="424" y="282" type="line"/>
      <point x="424" y="123" type="line"/>
      <point x="400" y="117"/>
      <point x="375" y="113"/>
      <point x="346" y="113" type="curve" smooth="yes"/>
      <point x="230" y="113"/>
      <point x="175" y="207"/>
      <point x="175" y="352" type="curve" smooth="yes"/>
      <point x="175" y="508"/>
      <point x="238" y="599"/>
      <point x="368" y="599" type="curve" smooth="yes"/>
      <point x="414" y="599"/>
      <point x="462" y="588"/>
      <point x="504" y="564" type="curve"/>
      <point x="549" y="680" type="line"/>
      <point x="496" y="706"/>
      <point x="428" y="724"/>
      <point x="353" y="724" type="curve" smooth="yes"/>
      <point x="145" y="724"/>
      <point x="30" y="584"/>
      <point x="30" y="349" type="curve" smooth="yes"/>
      <point x="30" y="127"/>
      <point x="132" y="-10"/>
    </contour>
  </outline>
</glyph>
<glyph name="G.serif" format="2">
  <advance width="769"/>
  <unicode hex="0047"/>
  <anchor x="425" y="0" name="bottom"/>
  <anchor x="427" y="714" name="top"/>
  <anchor x="749" y="714" name="topright"/>
  <outline>
    <contour>
      <point x="423" y="-10" type="curve"/>
      <point x="514" y="-10"/>
      <point x="591" y="8"/>
      <point x="669" y="44" type="curve"/>
      <point x="669" y="208" type="line"/>
      <point x="669" y="265"/>
      <point x="687" y="283"/>
      <point x="728" y="283" type="curve"/>
      <point x="741" y="283" type="line"/>
      <point x="741" y="336" type="line"/>
      <point x="427" y="336" type="line"/>
      <point x="427" y="283" type="line"/>
      <point x="440" y="283" type="line"/>
      <point x="487" y="283"/>
      <point x="511" y="265"/>
      <point x="511" y="212" type="curve"/>
      <point x="511" y="65" type="line"/>
      <point x="488" y="60"/>
      <point x="463" y="58"/>
      <point x="438" y="58" type="curve" smooth="yes"/>
      <point x="281" y="58"/>
      <point x="223" y="165"/>
      <point x="223" y="358" type="curve" smooth="yes"/>
      <point x="223" y="551"/>
      <point x="279" y="660"/>
      <point x="425" y="660" type="curve" smooth="yes"/>
      <point x="510" y="660"/>
      <point x="549" y="604"/>
      <point x="549" y="523" type="curve"/>
      <point x="633" y="523"/>
      <point x="678" y="561"/>
      <point x="678" y="608" type="curve" smooth="yes"/>
      <point x="678" y="673"/>
      <point x="594" y="724"/>
      <point x="428" y="724" type="curve" smooth="yes"/>
      <point x="183" y="724"/>
      <point x="55" y="574"/>
      <point x="55" y="358" type="curve" smooth="yes"/>
      <point x="55" y="137"/>
      <point x="175" y="-10"/>
    </contour>
  </outline>
</glyph>
<glyph name="H.mono" format="2">
  <advance width="600"/>
  <unicode hex="0048"/>
  <anchor x="300" y="0" name="bottom"/>
  <anchor x="300" y="374" name="center"/>
  <anchor x="300" y="714" name="top"/>
  <anchor x="20" y="714" name="topleft"/>
  <anchor x="600" y="714" name="topright"/>
  <outline>
    <contour>
      <point x="45" y="0" type="line"/>
      <point x="190" y="0" type="line"/>
      <point x="190" y="310" type="line"/>
      <point x="410" y="310" type="line"/>
      <point x="410" y="0" type="line"/>
      <point x="555" y="0" type="line"/>
      <point x="555" y="714" type="line"/>
      <point x="410" y="714" type="line"/>
      <point x="410" y="435" type="line"/>
      <point x="190" y="435" type="line"/>
      <point x="190" y="714" type="line"/>
      <point x="45" y="714" type="line"/>
    </contour>
  </outline>
</glyph>
<glyph name="H.serif" format="2">
  <advance width="819"/>
  <unicode hex="0048"/>
  <anchor x="410" y="0" name="bottom"/>
  <anchor x="410" y="366" name="center"/>
  <anchor x="410" y="714" name="top"/>
  <anchor x="799" y="714" name="topright"/>
  <outline>
    <contour>
      <point x="28" y="0" type="line"/>
      <point x="373" y="0" type="line"/>
      <point x="373" y="53" type="line"/>
      <point x="330" y="53" type="line"/>
      <point x="302" y="53"/>
      <point x="279" y="61"/>
      <point x="279" y="118" type="curve"/>
      <point x="279" y="342" type="line"/>
      <point x="540" y="342" type="line"/>
      <point x="540" y="118" type="line"/>
      <point x="540" y="61"/>
      <point x="517" y="53"/>
      <point x="489" y="53" type="curve"/>
      <point x="446" y="53" type="line"/>
      <point x="446" y="0" type="line"/>
      <point x="791" y="0" type="line"/>
      <point x="791" y="53" type="line"/>
      <point x="749" y="53" type="line"/>
      <point x="722" y="53"/>
      <point x="698" y="60"/>
      <point x="698" y="113" type="curve" smooth="yes"/>
      <point x="698" y="596" type="line"/>
      <point x="698" y="653"/>
      <point x="721" y="661"/>
      <point x="749" y="661" type="curve"/>
      <point x="791" y="661" type="line"/>
      <point x="791" y="714" type="line"/>
      <point x="446" y="714" type="line"/>
      <point x="446" y="661" type="line"/>
      <point x="489" y="661" type="line"/>
      <point x="517" y="661"/>
      <point x="540" y="653"/>
      <point x="540" y="596" type="curve"/>
      <point x="540" y="403" type="line"/>
      <point x="279" y="403" type="line"/>
      <point x="279" y="596" type="line"/>
      <point x="279" y="653"/>
      <point x="302" y="661"/>
      <point x="330" y="661" type="curve"/>
      <point x="373" y="661" type="line"/>
      <point x="373" y="714" type="line"/>
      <point x="28" y="714" type="line"/>
      <point x="28" y="661" type="line"/>
      <point x="70" y="661" type="line"/>
      <point x="97" y="661"/>
      <point x="121" y="653"/>
      <point x="121" y="600" type="curve" smooth="yes"/>
      <point x="121" y="118" type="line"/>
      <point x="121" y="61"/>
      <point x="98" y="53"/>
      <point x="70" y="53" type="curve"/>
      <point x="28" y="53" type="line"/>
    </contour>
  </outline>
</glyph>
<glyph name="I.mono" format="2">
  <advance width="600"/>
  <unicode hex="0049"/>
  <anchor x="300" y="0" name="bottom"/>
  <anchor x="386" y="10" name="ogonek"/>
  <anchor x="300" y="714" name="top"/>
  <anchor x="20" y="714" name="topleft"/>
  <anchor x="580" y="714" name="topright"/>
  <outline>
    <contour>
      <point x="90" y="0" type="line"/>
      <point x="510" y="0" type="line"/>
      <point x="510" y="100" type="line"/>
      <point x="368" y="116" type="line"/>
      <point x="368" y="598" type="line"/>
      <point x="510" y="614" type="line"/>
      <point x="510" y="714" type="line"/>
      <point x="90" y="714" type="line"/>
      <point x="90" y="614" type="line"/>
      <point x="229" y="598" type="line"/>
      <point x="229" y="116" type="line"/>
      <point x="90" y="100" type="line"/>
    </contour>
  </outline>
</glyph>
<glyph name="I.serif" format="2">
  <advance width="401"/>
  <unicode hex="0049"/>
  <anchor x="201" y="0" name="bottom"/>
  <anchor x="201" y="714" name="top"/>
  <anchor x="381" y="714" name="topright"/>
  <outline>
    <contour>
      <point x="28" y="0" type="line"/>
      <point x="373" y="0" type="line"/>
      <point x="373" y="53" type="line"/>
      <point x="331" y="53" type="line"/>
      <point x="302" y="53"/>
      <point x="280" y="61"/>
      <point x="280" y="118" type="curve"/>
      <point x="280" y="596" type="line"/>
      <point x="280" y="653"/>
      <point x="302" y="661"/>
      <point x="331" y="661" type="curve"/>
      <point x="373" y="661" type="line"/>
      <point x="373" y="714" type="line"/>
      <point x="28" y="714" type="line"/>
      <point x="28" y="661" type="line"/>
      <point x="70" y="661" type="line"/>
      <point x="99" y="661"/>
      <point x="121" y="653"/>
      <point x="121" y="596" type="curve"/>
      <point x="121" y="118" type="line"/>
      <point x="121" y="61"/>
      <point x="99" y="53"/>
      <point x="70" y="53" type="curve"/>
      <point x="28" y="53" type="line"/>
    </contour>
  </outline>
</glyph>
<glyph name="J.mono" format="2">
  <advance width="600"/>
  <unicode hex="004A"/>
  <anchor x="300" y="0" name="bottom"/>
  <anchor x="416" y="714" name="top"/>
  <anchor x="580" y="714" name="topright"/>
  <outline>
    <contour>
      <point x="235" y="-10" type="curve" smooth="yes"/>
      <point x="415" y="-10"/>
      <point x="490" y="78"/>
      <point x="490" y="246" type="curve" smooth="yes"/>
      <point x="490" y="714" type="line"/>
      <point x="348" y="714" type="line"/>
      <point x="348" y="245" type="line" smooth="yes"/>
      <point x="348" y="154"/>
      <point x="311" y="116"/>
      <point x="230" y="116" type="curve" smooth="yes"/>
      <point x="200" y="116"/>
      <point x="147" y="121"/>
      <point x="85" y="135" type="curve"/>
      <point x="85" y="11" type="line"/>
      <point x="134" y="-4"/>
      <point x="188" y="-10"/>
    </contour>
  </outline>
</glyph>
<glyph name="J.serif" format="2">
  <advance width="397"/>
  <unicode hex="004A"/>
  <anchor x="112" y="-240" name="bottom"/>
  <anchor x="202" y="714" name="top"/>
  <anchor x="366" y="714" name="topright"/>
  <outline>
    <contour>
      <point x="-21" y="-240" type="line"/>
      <point x="15" y="-240" type="line" smooth="yes"/>
      <point x="152" y="-240"/>
      <point x="281" y="-183"/>
      <point x="281" y="-2" type="curve" smooth="yes"/>
      <point x="281" y="596" type="line" smooth="yes"/>
      <point x="281" y="653"/>
      <point x="304" y="661"/>
      <point x="333" y="661" type="curve" smooth="yes"/>
      <point x="375" y="661" type="line"/>
      <point x="375" y="714" type="line"/>
      <point x="30" y="714" type="line"/>
      <point x="30" y="661" type="line"/>
      <point x="72" y="661" type="line" smooth="yes"/>
      <point x="100" y="661"/>
      <point x="123" y="653"/>
      <point x="123" y="600" type="curve"/>
      <point x="123" y="-3" type="line" smooth="yes"/>
      <point x="123" y="-137"/>
      <point x="61" y="-182"/>
      <point x="-3" y="-182" type="curve" smooth="yes"/>
      <point x="-21" y="-182" type="line"/>
    </contour>
  </outline>
</glyph>
<glyph name="K.mono" format="2">
  <advance width="600"/>
  <unicode hex="004B"/>
  <anchor x="308" y="0" name="bottom"/>
  <anchor x="300" y="714" name="top"/>
  <anchor x="580" y="714" name="topright"/>
  <outline>
    <contour>
      <point x="45" y="0" type="line"/>
      <point x="187" y="0" type="line"/>
      <point x="187" y="235" type="line"/>
      <point x="247" y="291" type="line"/>
      <point x="401" y="0" type="line"/>
      <point x="560" y="0" type="line"/>
      <point x="341" y="395" type="line"/>
      <point x="566" y="714" type="line"/>
      <point x="407" y="714" type="line"/>
      <point x="251" y="480" type="line" smooth="yes"/>
      <point x="227" y="445"/>
      <point x="208" y="413"/>
      <point x="187" y="372" type="curve"/>
      <point x="187" y="714" type="line"/>
      <point x="45" y="714" type="line"/>
    </contour>
  </outline>
</glyph>
<glyph name="K.serif" format="2">
  <advance width="734"/>
  <unicode hex="004B"/>
  <anchor x="415" y="0" name="bottom"/>
  <anchor x="400" y="714" name="top"/>
  <anchor x="714" y="714" name="topright"/>
  <outline>
    <contour>
      <point x="28" y="0" type="line"/>
      <point x="373" y="0" type="line"/>
      <point x="373" y="53" type="line"/>
      <point x="331" y="53" type="line" smooth="yes"/>
      <point x="302" y="53"/>
      <point x="279" y="61"/>
      <point x="279" y="118" type="curve" smooth="yes"/>
      <point x="279" y="287" type="line"/>
      <point x="323" y="322" type="line"/>
      <point x="458" y="92" type="line" smooth="yes"/>
      <point x="495" y="29"/>
      <point x="527" y="0"/>
      <point x="680" y="0" type="curve" smooth="yes"/>
      <point x="734" y="0" type="line"/>
      <point x="734" y="53" type="line"/>
      <point x="730" y="53" type="line" smooth="yes"/>
      <point x="686" y="53"/>
      <point x="656" y="72"/>
      <point x="616" y="134" type="curve"/>
      <point x="430" y="429" type="line"/>
      <point x="562" y="574" type="line" smooth="yes"/>
      <point x="609" y="626"/>
      <point x="652" y="662"/>
      <point x="706" y="662" type="curve"/>
      <point x="706" y="714" type="line"/>
      <point x="435" y="714" type="line"/>
      <point x="435" y="662" type="line"/>
      <point x="476" y="662"/>
      <point x="491" y="655"/>
      <point x="491" y="633" type="curve" smooth="yes"/>
      <point x="491" y="605"/>
      <point x="477" y="578"/>
      <point x="434" y="532" type="curve" smooth="yes"/>
      <point x="279" y="363" type="line"/>
      <point x="279" y="596" type="line" smooth="yes"/>
      <point x="279" y="653"/>
      <point x="302" y="661"/>
      <point x="331" y="661" type="curve" smooth="yes"/>
      <point x="373" y="661" type="line"/>
      <point x="373" y="714" type="line"/>
      <point x="28" y="714" type="line"/>
      <point x="28" y="661" type="line"/>
      <point x="70" y="661" type="line" smooth="yes"/>
      <point x="98" y="661"/>
      <point x="121" y="653"/>
      <point x="121" y="600" type="curve" smooth="yes"/>
      <point x="121" y="113" type="line" smooth="yes"/>
      <point x="121" y="60"/>
      <point x="98" y="53"/>
      <point x="70" y="53" type="curve" smooth="yes"/>
      <point x="28" y="53" type="line"/>
    </contour>
  </outline>
</glyph>
<glyph name="L.mono" format="2">
  <advance width="600"/>
  <unicode hex="004C"/>
  <anchor x="330" y="0" name="bottom"/>
  <anchor x="300" y="357" name="center"/>
  <anchor x="161" y="714" name="top"/>
  <anchor x="454" y="714" name="topright"/>
  <outline>
    <contour>
      <point x="90" y="0" type="line"/>
      <point x="530" y="0" type="line"/>
      <point x="530" y="128" type="line"/>
      <point x="235" y="128" type="line"/>
      <point x="235" y="714" type="line"/>
      <point x="90" y="714" type="line"/>
    </contour>
  </outline>
</glyph>
<glyph name="M.mono" format="2">
  <advance width="600"/>
  <unicode hex="004D"/>
  <anchor x="300" y="0" name="bottom"/>
  <anchor x="300" y="714" name="top"/>
  <anchor x="600" y="714" name="topright"/>
  <outline>
    <contour>
      <point x="40" y="0" type="line"/>
      <point x="170" y="0" type="line"/>
      <point x="170" y="155" type="line" smooth="yes"/>
      <point x="170" y="294"/>
      <point x="149" y="532"/>
      <point x="145" y="583" type="curve"/>
      <point x="151" y="583" type="line"/>
      <point x="230" y="168" type="line"/>
      <point x="371" y="168" type="line"/>
      <point x="444" y="582" type="line"/>
      <point x="450" y="582" type="line"/>
      <point x="448" y="538"/>
      <point x="429" y="292"/>
      <point x="429" y="163" type="curve" smooth="yes"/>
      <point x="429" y="0" type="line"/>
      <point x="559" y="0" type="line"/>
      <point x="559" y="714" type="line"/>
      <point x="373" y="714" type="line"/>
      <point x="301" y="309" type="line"/>
      <point x="297" y="309" type="line"/>
      <point x="236" y="714" type="line"/>
      <point x="40" y="714" type="line"/>
    </contour>
  </outline>
</glyph>
<glyph name="N.mono" format="2">
  <advance width="600"/>
  <unicode hex="004E"/>
  <anchor x="300" y="0" name="bottom"/>
  <anchor x="305" y="714" name="top"/>
  <anchor x="600" y="714" name="topright"/>
  <outline>
    <contour>
      <point x="45" y="0" type="line"/>
      <point x="174" y="0" type="line"/>
      <point x="174" y="356" type="line" smooth="yes"/>
      <point x="174" y="396"/>
      <point x="170" y="485"/>
      <point x="164" y="580" type="curve"/>
      <point x="168" y="580" type="line"/>
      <point x="356" y="0" type="line"/>
      <point x="555" y="0" type="line"/>
      <point x="555" y="714" type="line"/>
      <point x="426" y="714" type="line"/>
      <point x="426" y="356" type="line" smooth="yes"/>
      <point x="426" y="317"/>
      <point x="428" y="232"/>
      <point x="433" y="139" type="curve"/>
      <point x="430" y="139" type="line"/>
      <point x="242" y="714" type="line"/>
      <point x="45" y="714" type="line"/>
    </contour>
  </outline>
</glyph>
<glyph name="N.serif" format="2">
  <advance width="788"/>
  <unicode hex="004E"/>
  <anchor x="394" y="0" name="bottom"/>
  <anchor x="394" y="714" name="top"/>
  <anchor x="768" y="714" name="topright"/>
  <outline>
    <contour>
      <point x="28" y="0" type="line"/>
      <point x="289" y="0" type="line"/>
      <point x="289" y="53" type="line"/>
      <point x="247" y="53" type="line"/>
      <point x="219" y="53"/>
      <point x="196" y="61"/>
      <point x="196" y="118" type="curve"/>
      <point x="196" y="551" type="line"/>
      <point x="586" y="0" type="line"/>
      <point x="678" y="0" type="line"/>
      <point x="678" y="596" type="line"/>
      <point x="678" y="653"/>
      <point x="701" y="661"/>
      <point x="729" y="661" type="curve"/>
      <point x="771" y="661" type="line"/>
      <point x="771" y="714" type="line"/>
      <point x="510" y="714" type="line"/>
      <point x="510" y="661" type="line"/>
      <point x="552" y="661" type="line"/>
      <point x="579" y="661"/>
      <point x="603" y="653"/>
      <point x="603" y="600" type="curve"/>
      <point x="603" y="215" type="line"/>
      <point x="250" y="714" type="line"/>
      <point x="28" y="714" type="line"/>
      <point x="28" y="661" type="line"/>
      <point x="70" y="661" type="line"/>
      <point x="97" y="661"/>
      <point x="121" y="653"/>
      <point x="121" y="600" type="curve" smooth="yes"/>
      <point x="121" y="118" type="line"/>
      <point x="121" y="61"/>
      <point x="98" y="53"/>
      <point x="70" y="53" type="curve"/>
      <point x="28" y="53" type="line"/>
    </contour>
  </outline>
</glyph>
<glyph name="O.mono" format="2">
  <advance width="600"/>
  <unicode hex="004F"/>
  <anchor x="300" y="0" name="bottom"/>
  <anchor x="300" y="357" name="center"/>
  <anchor x="297" y="10" name="ogonek"/>
  <anchor x="300" y="714" name="top"/>
  <anchor x="20" y="714" name="topleft"/>
  <anchor x="600" y="714" name="topright"/>
  <outline>
    <contour>
      <point x="300" y="-10" type="curve" smooth="yes"/>
      <point x="487" y="-10"/>
      <point x="570" y="127"/>
      <point x="570" y="358" type="curve" smooth="yes"/>
      <point x="570" y="588"/>
      <point x="487" y="726"/>
      <point x="300" y="726" type="curve" smooth="yes"/>
      <point x="114" y="726"/>
      <point x="30" y="590"/>
      <point x="30" y="358" type="curve" smooth="yes"/>
      <point x="30" y="127"/>
      <point x="113" y="-10"/>
    </contour>
    <contour>
      <point x="300" y="115" type="curve" smooth="yes"/>
      <point x="213" y="115"/>
      <point x="177" y="198"/>
      <point x="177" y="358" type="curve" smooth="yes"/>
      <point x="177" y="517"/>
      <point x="213" y="601"/>
      <point x="300" y="601" type="curve" smooth="yes"/>
      <point x="387" y="601"/>
      <point x="423" y="518"/>
      <point x="423" y="359" type="curve" smooth="yes"/>
      <point x="423" y="197"/>
      <point x="386" y="115"/>
    </contour>
  </outline>
</glyph>
<glyph name="P.mono" format="2">
  <advance width="600"/>
  <unicode hex="0050"/>
  <anchor x="300" y="0" name="bottom"/>
  <anchor x="300" y="714" name="top"/>
  <anchor x="600" y="714" name="topright"/>
  <outline>
    <contour>
      <point x="80" y="0" type="line"/>
      <point x="220" y="0" type="line"/>
      <point x="220" y="254" type="line"/>
      <point x="308" y="254" type="line" smooth="yes"/>
      <point x="487" y="254"/>
      <point x="560" y="350"/>
      <point x="560" y="492" type="curve" smooth="yes"/>
      <point x="560" y="634"/>
      <point x="481" y="714"/>
      <point x="317" y="714" type="curve" smooth="yes"/>
      <point x="80" y="714" type="line"/>
    </contour>
    <contour>
      <point x="293" y="377" type="curve" smooth="yes"/>
      <point x="220" y="377" type="line"/>
      <point x="220" y="591" type="line"/>
      <point x="312" y="591" type="line" smooth="yes"/>
      <point x="384" y="591"/>
      <point x="416" y="557"/>
      <point x="416" y="486" type="curve" smooth="yes"/>
      <point x="416" y="416"/>
      <point x="376" y="377"/>
    </contour>
  </outline>
</glyph>
<glyph name="P.serif" format="2">
  <advance width="638"/>
  <unicode hex="0050"/>
  <anchor x="200" y="0" name="bottom"/>
  <anchor x="319" y="714" name="top"/>
  <anchor x="628" y="714" name="topright"/>
  <outline>
    <contour>
      <point x="28" y="0" type="line"/>
      <point x="393" y="0" type="line"/>
      <point x="393" y="53" type="line"/>
      <point x="332" y="53" type="line"/>
      <point x="304" y="53"/>
      <point x="279" y="60"/>
      <point x="279" y="113" type="curve" smooth="yes"/>
      <point x="279" y="273" type="line"/>
      <point x="313" y="273" type="line"/>
      <point x="529" y="273"/>
      <point x="608" y="382"/>
      <point x="608" y="502" type="curve" smooth="yes"/>
      <point x="608" y="633"/>
      <point x="520" y="714"/>
      <point x="335" y="714" type="curve" smooth="yes"/>
      <point x="28" y="714" type="line"/>
      <point x="28" y="661" type="line"/>
      <point x="70" y="661" type="line"/>
      <point x="98" y="661"/>
      <point x="121" y="653"/>
      <point x="121" y="600" type="curve" smooth="yes"/>
      <point x="121" y="118" type="line"/>
      <point x="121" y="61"/>
      <point x="99" y="53"/>
      <point x="70" y="53" type="curve"/>
      <point x="28" y="53" type="line"/>
    </contour>
    <contour>
      <point x="303" y="331" type="curve"/>
      <point x="279" y="331" type="line"/>
      <point x="279" y="655" type="line"/>
      <point x="318" y="655" type="line"/>
      <point x="407" y="655"/>
      <point x="440" y="605"/>
      <point x="440" y="498" type="curve" smooth="yes"/>
      <point x="440" y="378"/>
      <point x="402" y="331"/>
    </contour>
  </outline>
</glyph>
<glyph name="Q.serif" format="2">
  <advance width="787"/>
  <unicode hex="0051"/>
  <anchor x="394" y="-240" name="bottom"/>
  <anchor x="394" y="714" name="top"/>
  <anchor x="767" y="714" name="topright"/>
  <outline>
    <contour>
      <point x="577" y="-240" type="curve" smooth="yes"/>
      <point x="649" y="-240" type="line"/>
      <point x="649" y="-182" type="line"/>
      <point x="633" y="-182" type="line" smooth="yes"/>
      <point x="567" y="-182"/>
      <point x="500" y="-147"/>
      <point x="489" y="0" type="curve"/>
      <point x="646" y="38"/>
      <point x="732" y="171"/>
      <point x="732" y="358" type="curve" smooth="yes"/>
      <point x="732" y="580"/>
      <point x="611" y="725"/>
      <point x="395" y="725" type="curve" smooth="yes"/>
      <point x="166" y="725"/>
      <point x="55" y="580"/>
      <point x="55" y="359" type="curve" smooth="yes"/>
      <point x="55" y="162"/>
      <point x="142" y="24"/>
      <point x="322" y="-4" type="curve"/>
      <point x="335" y="-173"/>
      <point x="457" y="-240"/>
    </contour>
    <contour>
      <point x="394" y="55" type="curve" smooth="yes"/>
      <point x="270" y="55"/>
      <point x="223" y="167"/>
      <point x="223" y="358" type="curve" smooth="yes"/>
      <point x="223" y="549"/>
      <point x="270" y="660"/>
      <point x="395" y="660" type="curve" smooth="yes"/>
      <point x="519" y="660"/>
      <point x="564" y="549"/>
      <point x="564" y="358" type="curve" smooth="yes"/>
      <point x="564" y="167"/>
      <point x="519" y="55"/>
    </contour>
  </outline>
</glyph>
<glyph name="R.mono" format="2">
  <advance width="600"/>
  <unicode hex="0052"/>
  <anchor x="325" y="0" name="bottom"/>
  <anchor x="300" y="714" name="top"/>
  <anchor x="580" y="714" name="topright"/>
  <outline>
    <contour>
      <point x="80" y="0" type="line"/>
      <point x="225" y="0" type="line"/>
      <point x="225" y="269" type="line"/>
      <point x="282" y="269" type="line"/>
      <point x="431" y="0" type="line"/>
      <point x="585" y="0" type="line"/>
      <point x="410" y="302" type="line"/>
      <point x="484" y="338"/>
      <point x="531" y="402"/>
      <point x="531" y="499" type="curve" smooth="yes"/>
      <point x="531" y="634"/>
      <point x="440" y="714"/>
      <point x="271" y="714" type="curve" smooth="yes"/>
      <point x="80" y="714" type="line"/>
    </contour>
    <contour>
      <point x="268" y="392" type="curve" smooth="yes"/>
      <point x="225" y="392" type="line"/>
      <point x="225" y="591" type="line"/>
      <point x="265" y="591" type="line" smooth="yes"/>
      <point x="343" y="591"/>
      <point x="385" y="566"/>
      <point x="385" y="496" type="curve" smooth="yes"/>
      <point x="385" y="426"/>
      <point x="344" y="392"/>
    </contour>
  </outline>
</glyph>
<glyph name="R.serif" format="2">
  <advance width="707"/>
  <unicode hex="0052"/>
  <anchor x="394" y="0" name="bottom"/>
  <anchor x="354" y="714" name="top"/>
  <anchor x="687" y="714" name="topright"/>
  <outline>
    <contour>
      <point x="28" y="0" type="line"/>
      <point x="373" y="0" type="line"/>
      <point x="373" y="53" type="line"/>
      <point x="330" y="53" type="line" smooth="yes"/>
      <point x="303" y="53"/>
      <point x="279" y="60"/>
      <point x="279" y="113" type="curve" smooth="yes"/>
      <point x="279" y="310" type="line"/>
      <point x="345" y="310" type="line"/>
      <point x="464" y="90" type="line" smooth="yes"/>
      <point x="505" y="15"/>
      <point x="558" y="0"/>
      <point x="678" y="0" type="curve" smooth="yes"/>
      <point x="711" y="0" type="line"/>
      <point x="711" y="53" type="line"/>
      <point x="707" y="53" type="line" smooth="yes"/>
      <point x="669" y="53"/>
      <point x="641" y="77"/>
      <point x="607" y="135" type="curve" smooth="yes"/>
      <point x="488" y="340" type="line"/>
      <point x="555" y="367"/>
      <point x="624" y="423"/>
      <point x="624" y="529" type="curve" smooth="yes"/>
      <point x="624" y="649"/>
      <point x="539" y="714"/>
      <point x="350" y="714" type="curve" smooth="yes"/>
      <point x="28" y="714" type="line"/>
      <point x="28" y="661" type="line"/>
      <point x="70" y="661" type="line" smooth="yes"/>
      <point x="97" y="661"/>
      <point x="121" y="653"/>
      <point x="121" y="600" type="curve" smooth="yes"/>
      <point x="121" y="113" type="line" smooth="yes"/>
      <point x="121" y="60"/>
      <point x="97" y="53"/>
      <point x="70" y="53" type="curve" smooth="yes"/>
      <point x="28" y="53" type="line"/>
    </contour>
    <contour>
      <point x="335" y="368" type="curve" smooth="yes"/>
      <point x="279" y="368" type="line"/>
      <point x="279" y="655" type="line"/>
      <point x="333" y="655" type="line" smooth="yes"/>
      <point x="422" y="655"/>
      <point x="456" y="616"/>
      <point x="456" y="515" type="curve" smooth="yes"/>
      <point x="456" y="417"/>
      <point x="427" y="368"/>
    </contour>
  </outline>
</glyph>
<glyph name="S.mono" format="2">
  <advance width="600"/>
  <unicode hex="0053"/>
  <anchor x="300" y="0" name="bottom"/>
  <anchor x="314" y="714" name="top"/>
  <anchor x="580" y="714" name="topright"/>
  <outline>
    <contour>
      <point x="275" y="-10" type="curve" smooth="yes"/>
      <point x="437" y="-10"/>
      <point x="545" y="60"/>
      <point x="545" y="199" type="curve" smooth="yes"/>
      <point x="545" y="310"/>
      <point x="477" y="352"/>
      <point x="359" y="411" type="curve" smooth="yes"/>
      <point x="273" y="454"/>
      <point x="232" y="468"/>
      <point x="232" y="527" type="curve" smooth="yes"/>
      <point x="232" y="576"/>
      <point x="261" y="604"/>
      <point x="326" y="604" type="curve" smooth="yes"/>
      <point x="367" y="604"/>
      <point x="421" y="593"/>
      <point x="486" y="565" type="curve"/>
      <point x="532" y="678" type="line"/>
      <point x="457" y="714"/>
      <point x="374" y="724"/>
      <point x="318" y="724" type="curve" smooth="yes"/>
      <point x="178" y="724"/>
      <point x="84" y="662"/>
      <point x="84" y="534" type="curve" smooth="yes"/>
      <point x="84" y="421"/>
      <point x="157" y="366"/>
      <point x="250" y="316" type="curve" smooth="yes"/>
      <point x="342" y="267"/>
      <point x="397" y="254"/>
      <point x="397" y="191" type="curve" smooth="yes"/>
      <point x="397" y="129"/>
      <point x="348" y="110"/>
      <point x="279" y="110" type="curve" smooth="yes"/>
      <point x="213" y="110"/>
      <point x="144" y="127"/>
      <point x="70" y="165" type="curve"/>
      <point x="70" y="33" type="line"/>
      <point x="131" y="4"/>
      <point x="203" y="-10"/>
    </contour>
  </outline>
</glyph>
<glyph name="S.serif" format="2">
  <advance width="586"/>
  <unicode hex="0053"/>
  <anchor x="293" y="0" name="bottom"/>
  <anchor x="293" y="714" name="top"/>
  <anchor x="566" y="714" name="topright"/>
  <outline>
    <contour>
      <point x="264" y="-10" type="curve" smooth="yes"/>
      <point x="430" y="-10"/>
      <point x="536" y="80"/>
      <point x="536" y="209" type="curve" smooth="yes"/>
      <point x="536" y="307"/>
      <point x="482" y="365"/>
      <point x="345" y="421" type="curve" smooth="yes"/>
      <point x="210" y="475"/>
      <point x="180" y="514"/>
      <point x="180" y="571" type="curve" smooth="yes"/>
      <point x="180" y="631"/>
      <point x="225" y="663"/>
      <point x="279" y="663" type="curve" smooth="yes"/>
      <point x="356" y="663"/>
      <point x="385" y="581"/>
      <point x="385" y="525" type="curve"/>
      <point x="467" y="525"/>
      <point x="508" y="561"/>
      <point x="508" y="608" type="curve" smooth="yes"/>
      <point x="508" y="673"/>
      <point x="442" y="724"/>
      <point x="295" y="724" type="curve" smooth="yes"/>
      <point x="154" y="724"/>
      <point x="50" y="645"/>
      <point x="50" y="523" type="curve" smooth="yes"/>
      <point x="50" y="425"/>
      <point x="97" y="362"/>
      <point x="237" y="305" type="curve" smooth="yes"/>
      <point x="349" y="259"/>
      <point x="404" y="226"/>
      <point x="404" y="158" type="curve" smooth="yes"/>
      <point x="404" y="97"/>
      <point x="358" y="50"/>
      <point x="280" y="50" type="curve" smooth="yes"/>
      <point x="200" y="50"/>
      <point x="143" y="109"/>
      <point x="143" y="223" type="curve"/>
      <point x="85" y="223"/>
      <point x="30" y="198"/>
      <point x="30" y="130" type="curve" smooth="yes"/>
      <point x="30" y="65"/>
      <point x="85" y="-10"/>
    </contour>
  </outline>
</glyph>
<glyph name="T.mono" format="2">
  <advance width="600"/>
  <unicode hex="0054"/>
  <anchor x="300" y="0" name="bottom"/>
  <anchor x="300" y="357" name="center"/>
  <anchor x="300" y="714" name="top"/>
  <anchor x="580" y="714" name="topright"/>
  <outline>
    <contour>
      <point x="227" y="0" type="line"/>
      <point x="372" y="0" type="line"/>
      <point x="372" y="589" type="line"/>
      <point x="570" y="589" type="line"/>
      <point x="570" y="714" type="line"/>
      <point x="30" y="714" type="line"/>
      <point x="30" y="589" type="line"/>
      <point x="227" y="589" type="line"/>
    </contour>
  </outline>
</glyph>
<glyph name="T.serif" format="2">
  <advance width="653"/>
  <unicode hex="0054"/>
  <anchor x="327" y="0" name="bottom"/>
  <anchor x="327" y="357" name="center"/>
  <anchor x="327" y="714" name="top"/>
  <anchor x="633" y="714" name="topright"/>
  <outline>
    <contour>
      <point x="154" y="0" type="line"/>
      <point x="499" y="0" type="line"/>
      <point x="499" y="53" type="line"/>
      <point x="457" y="53" type="line"/>
      <point x="428" y="53"/>
      <point x="406" y="61"/>
      <point x="406" y="118" type="curve"/>
      <point x="406" y="653" type="line"/>
      <point x="486" y="653" type="line" smooth="yes"/>
      <point x="546" y="653"/>
      <point x="564" y="626"/>
      <point x="569" y="582" type="curve" smooth="yes"/>
      <point x="576" y="520" type="line"/>
      <point x="643" y="520" type="line"/>
      <point x="638" y="714" type="line"/>
      <point x="15" y="714" type="line"/>
      <point x="10" y="520" type="line"/>
      <point x="77" y="520" type="line"/>
      <point x="84" y="582" type="line" smooth="yes"/>
      <point x="89" y="626"/>
      <point x="107" y="653"/>
      <point x="167" y="653" type="curve" smooth="yes"/>
      <point x="247" y="653" type="line"/>
      <point x="247" y="118" type="line"/>
      <point x="247" y="61"/>
      <point x="225" y="53"/>
      <point x="196" y="53" type="curve"/>
      <point x="154" y="53" type="line"/>
    </contour>
  </outline>
</glyph>
<glyph name="U.mono" format="2">
  <advance width="600"/>
  <unicode hex="0055"/>
  <anchor x="300" y="0" name="bottom"/>
  <anchor x="540" y="10" name="ogonek"/>
  <anchor x="300" y="714" name="top"/>
  <anchor x="580" y="714" name="topright"/>
  <outline>
    <contour>
      <point x="298" y="-10" type="curve" smooth="yes"/>
      <point x="470" y="-10"/>
      <point x="555" y="88"/>
      <point x="555" y="244" type="curve" smooth="yes"/>
      <point x="555" y="714" type="line"/>
      <point x="410" y="714" type="line"/>
      <point x="410" y="269" type="line" smooth="yes"/>
      <point x="410" y="159"/>
      <point x="378" y="115"/>
      <point x="300" y="115" type="curve" smooth="yes"/>
      <point x="225" y="115"/>
      <point x="190" y="156"/>
      <point x="190" y="268" type="curve" smooth="yes"/>
      <point x="190" y="714" type="line"/>
      <point x="45" y="714" type="line"/>
      <point x="45" y="243" type="line" smooth="yes"/>
      <point x="45" y="82"/>
      <point x="132" y="-10"/>
    </contour>
  </outline>
</glyph>
<glyph name="U.serif" format="2">
  <advance width="747"/>
  <unicode hex="0055"/>
  <anchor x="374" y="0" name="bottom"/>
  <anchor x="409" y="714" name="top"/>
  <anchor x="747" y="714" name="topright"/>
  <outline>
    <contour>
      <point x="387" y="-10" type="curve" smooth="yes"/>
      <point x="562" y="-10"/>
      <point x="637" y="72"/>
      <point x="637" y="206" type="curve"/>
      <point x="637" y="596" type="line"/>
      <point x="637" y="653"/>
      <point x="660" y="661"/>
      <point x="688" y="661" type="curve"/>
      <point x="731" y="661" type="line"/>
      <point x="731" y="714" type="line"/>
      <point x="469" y="714" type="line"/>
      <point x="469" y="661" type="line"/>
      <point x="511" y="661" type="line"/>
      <point x="539" y="661"/>
      <point x="562" y="653"/>
      <point x="562" y="600" type="curve" smooth="yes"/>
      <point x="562" y="208" type="line"/>
      <point x="562" y="106"/>
      <point x="506" y="61"/>
      <point x="417" y="61" type="curve" smooth="yes"/>
      <point x="326" y="61"/>
      <point x="268" y="98"/>
      <point x="268" y="210" type="curve"/>
      <point x="268" y="596" type="line"/>
      <point x="268" y="653"/>
      <point x="291" y="661"/>
      <point x="319" y="661" type="curve"/>
      <point x="361" y="661" type="line"/>
      <point x="361" y="714" type="line"/>
      <point x="16" y="714" type="line"/>
      <point x="16" y="661" type="line"/>
      <point x="59" y="661" type="line"/>
      <point x="86" y="661"/>
      <point x="110" y="653"/>
      <point x="110" y="600" type="curve" smooth="yes"/>
      <point x="110" y="218" type="line"/>
      <point x="110" y="54"/>
      <point x="213" y="-10"/>
    </contour>
  </outline>
</glyph>
<glyph name="V.mono" format="2">
  <advance width="600"/>
  <unicode hex="0056"/>
  <anchor x="300" y="0" name="bottom"/>
  <anchor x="300" y="714" name="top"/>
  <anchor x="580" y="714" name="topright"/>
  <outline>
    <contour>
      <point x="219" y="0" type="line"/>
      <point x="381" y="0" type="line"/>
      <point x="590" y="714" type="line"/>
      <point x="442" y="714" type="line"/>
      <point x="337" y="290" type="line" smooth="yes"/>
      <point x="328" y="253"/>
      <point x="313" y="174"/>
      <point x="307" y="130" type="curve"/>
      <point x="298" y="130" type="line"/>
      <point x="292" y="173"/>
      <point x="274" y="257"/>
      <point x="265" y="290" type="curve" smooth="yes"/>
      <point x="156" y="714" type="line"/>
      <point x="10" y="714" type="line"/>
    </contour>
  </outline>
</glyph>
<glyph name="V.serif" format="2">
  <advance width="698"/>
  <unicode hex="0056"/>
  <anchor x="349" y="0" name="bottom"/>
  <anchor x="379" y="714" name="top"/>
  <anchor x="678" y="714" name="topright"/>
  <outline>
    <contour>
      <point x="85" y="613" type="curve" smooth="yes"/>
      <point x="298" y="0" type="line"/>
      <point x="398" y="0" type="line"/>
      <point x="602" y="588" type="line" smooth="yes"/>
      <point x="623" y="649"/>
      <point x="632" y="661"/>
      <point x="650" y="661" type="curve" smooth="yes"/>
      <point x="698" y="661" type="line"/>
      <point x="698" y="714" type="line"/>
      <point x="440" y="714" type="line"/>
      <point x="440" y="661" type="line"/>
      <point x="492" y="661" type="line" smooth="yes"/>
      <point x="516" y="661"/>
      <point x="532" y="649"/>
      <point x="532" y="627" type="curve" smooth="yes"/>
      <point x="532" y="616"/>
      <point x="525" y="592"/>
      <point x="520" y="578" type="curve" smooth="yes"/>
      <point x="417" y="274" type="line" smooth="yes"/>
      <point x="405" y="238"/>
      <point x="390" y="186"/>
      <point x="385" y="153" type="curve"/>
      <point x="381" y="189"/>
      <point x="366" y="247"/>
      <point x="356" y="277" type="curve" smooth="yes"/>
      <point x="254" y="585" type="line" smooth="yes"/>
      <point x="250" y="596"/>
      <point x="245" y="615"/>
      <point x="245" y="628" type="curve" smooth="yes"/>
      <point x="245" y="653"/>
      <point x="265" y="661"/>
      <point x="284" y="661" type="curve" smooth="yes"/>
      <point x="330" y="661" type="line"/>
      <point x="330" y="714" type="line"/>
      <point x="0" y="714" type="line"/>
      <point x="0" y="661" type="line"/>
      <point x="23" y="661" type="line" smooth="yes"/>
      <point x="43" y="661"/>
      <point x="72" y="651"/>
    </contour>
  </outline>
</glyph>
<glyph name="W.mono" format="2">
  <advance width="600"/>
  <unicode hex="0057"/>
  <anchor x="300" y="0" name="bottom"/>
  <anchor x="300" y="714" name="top"/>
  <anchor x="580" y="714" name="topright"/>
  <outline>
    <contour>
      <point x="63" y="0" type="line"/>
      <point x="241" y="0" type="line"/>
      <point x="277" y="244" type="line" smooth="yes"/>
      <point x="283" y="282"/>
      <point x="292" y="343"/>
      <point x="298" y="397" type="curve"/>
      <point x="304" y="397" type="line"/>
      <point x="310" y="343"/>
      <point x="318" y="283"/>
      <point x="324" y="244" type="curve" smooth="yes"/>
      <point x="360" y="0" type="line"/>
      <point x="540" y="0" type="line"/>
      <point x="590" y="714" type="line"/>
      <point x="464" y="714" type="line"/>
      <point x="443" y="428"/>
      <point x="438" y="357"/>
      <point x="438" y="302" type="curve" smooth="yes"/>
      <point x="438" y="264"/>
      <point x="440" y="182"/>
      <point x="443" y="120" type="curve"/>
      <point x="436" y="120" type="line"/>
      <point x="427" y="185"/>
      <point x="413" y="261"/>
      <point x="404" y="320" type="curve" smooth="yes"/>
      <point x="370" y="546" type="line"/>
      <point x="232" y="546" type="line"/>
      <point x="197" y="320" type="line" smooth="yes"/>
      <point x="192" y="287"/>
      <point x="179" y="192"/>
      <point x="170" y="121" type="curve"/>
      <point x="163" y="121" type="line"/>
      <point x="165" y="165"/>
      <point x="165" y="219"/>
      <point x="165" y="268" type="curve" smooth="yes"/>
      <point x="165" y="349"/>
      <point x="165" y="425"/>
      <point x="136" y="714" type="curve"/>
      <point x="10" y="714" type="line"/>
    </contour>
  </outline>
</glyph>
<glyph name="X.mono" format="2">
  <advance width="600"/>
  <unicode hex="0058"/>
  <anchor x="300" y="0" name="bottom"/>
  <anchor x="300" y="714" name="top"/>
  <anchor x="580" y="714" name="topright"/>
  <outline>
    <contour>
      <point x="20" y="0" type="line"/>
      <point x="168" y="0" type="line"/>
      <point x="299" y="248" type="line"/>
      <point x="427" y="0" type="line"/>
      <point x="580" y="0" type="line"/>
      <point x="366" y="369" type="line"/>
      <point x="566" y="714" type="line"/>
      <point x="416" y="714" type="line"/>
      <point x="300" y="489" type="line"/>
      <point x="182" y="714" type="line"/>
      <point x="34" y="714" type="line"/>
      <point x="234" y="368" type="line"/>
    </contour>
  </outline>
</glyph>
<glyph name="X.serif" format="2">
  <advance width="732"/>
  <unicode hex="0058"/>
  <anchor x="366" y="0" name="bottom"/>
  <anchor x="366" y="714" name="top"/>
  <anchor x="712" y="714" name="topright"/>
  <outline>
    <contour>
      <point x="10" y="0" type="line"/>
      <point x="262" y="0" type="line"/>
      <point x="262" y="53" type="line"/>
      <point x="259" y="53" type="line" smooth="yes"/>
      <point x="215" y="53"/>
      <point x="198" y="65"/>
      <point x="198" y="87" type="curve" smooth="yes"/>
      <point x="198" y="108"/>
      <point x="212" y="131"/>
      <point x="224" y="148" type="curve" smooth="yes"/>
      <point x="332" y="294" type="line"/>
      <point x="424" y="155" type="line" smooth="yes"/>
      <point x="453" y="112"/>
      <point x="457" y="101"/>
      <point x="457" y="86" type="curve" smooth="yes"/>
      <point x="457" y="64"/>
      <point x="437" y="53"/>
      <point x="397" y="53" type="curve" smooth="yes"/>
      <point x="392" y="53" type="line"/>
      <point x="392" y="0" type="line"/>
      <point x="722" y="0" type="line"/>
      <point x="722" y="53" type="line"/>
      <point x="709" y="53" type="line" smooth="yes"/>
      <point x="684" y="53"/>
      <point x="655" y="65"/>
      <point x="629" y="106" type="curve" smooth="yes"/>
      <point x="445" y="391" type="line"/>
      <point x="590" y="589" type="line" smooth="yes"/>
      <point x="629" y="643"/>
      <point x="650" y="661"/>
      <point x="689" y="661" type="curve" smooth="yes"/>
      <point x="698" y="661" type="line"/>
      <point x="698" y="714" type="line"/>
      <point x="464" y="714" type="line"/>
      <point x="464" y="661" type="line"/>
      <point x="467" y="661" type="line" smooth="yes"/>
      <point x="498" y="661"/>
      <point x="523" y="656"/>
      <point x="523" y="632" type="curve" smooth="yes"/>
      <point x="523" y="614"/>
      <point x="508" y="589"/>
      <point x="496" y="571" type="curve" smooth="yes"/>
      <point x="409" y="449" type="line"/>
      <point x="326" y="573" type="line" smooth="yes"/>
      <point x="311" y="596"/>
      <point x="300" y="618"/>
      <point x="300" y="632" type="curve" smooth="yes"/>
      <point x="300" y="648"/>
      <point x="313" y="661"/>
      <point x="359" y="661" type="curve" smooth="yes"/>
      <point x="362" y="661" type="line"/>
      <point x="362" y="714" type="line"/>
      <point x="31" y="714" type="line"/>
      <point x="31" y="661" type="line"/>
      <point x="44" y="661" type="line" smooth="yes"/>
      <point x="89" y="661"/>
      <point x="108" y="643"/>
      <point x="130" y="608" type="curve" smooth="yes"/>
      <point x="295" y="351" type="line"/>
      <point x="120" y="123" type="line" smooth="yes"/>
      <point x="87" y="80"/>
      <point x="64" y="53"/>
      <point x="16" y="53" type="curve" smooth="yes"/>
      <point x="10" y="53" type="line"/>
    </contour>
  </outline>
</glyph>
<glyph name="Y.mono" format="2">
  <advance width="600"/>
  <unicode hex="0059"/>
  <anchor x="300" y="0" name="bottom"/>
  <anchor x="300" y="714" name="top"/>
  <anchor x="20" y="714" name="topleft"/>
  <anchor x="580" y="714" name="topright"/>
  <outline>
    <contour>
      <point x="228" y="0" type="line"/>
      <point x="373" y="0" type="line"/>
      <point x="373" y="277" type="line"/>
      <point x="580" y="714" type="line"/>
      <point x="428" y="714" type="line"/>
      <point x="301" y="411" type="line"/>
      <point x="173" y="714" type="line"/>
      <point x="20" y="714" type="line"/>
      <point x="228" y="277" type="line"/>
    </contour>
  </outline>
</glyph>
<glyph name="Y.serif" format="2">
  <advance width="693"/>
  <unicode hex="0059"/>
  <anchor x="347" y="0" name="bottom"/>
  <anchor x="347" y="714" name="top"/>
  <anchor x="673" y="714" name="topright"/>
  <outline>
    <contour>
      <point x="164" y="0" type="line"/>
      <point x="533" y="0" type="line"/>
      <point x="533" y="53" type="line"/>
      <point x="484" y="53" type="line" smooth="yes"/>
      <point x="453" y="53"/>
      <point x="428" y="57"/>
      <point x="428" y="115" type="curve" smooth="yes"/>
      <point x="428" y="252" type="line"/>
      <point x="598" y="583" type="line"/>
      <point x="629" y="645"/>
      <point x="640" y="661"/>
      <point x="674" y="661" type="curve" smooth="yes"/>
      <point x="693" y="661" type="line"/>
      <point x="693" y="714" type="line"/>
      <point x="431" y="714" type="line"/>
      <point x="431" y="661" type="line"/>
      <point x="454" y="661" type="line" smooth="yes"/>
      <point x="498" y="661"/>
      <point x="520" y="646"/>
      <point x="520" y="612" type="curve" smooth="yes"/>
      <point x="520" y="601"/>
      <point x="517" y="581"/>
      <point x="503" y="552" type="curve"/>
      <point x="445" y="432" type="line" smooth="yes"/>
      <point x="423" y="387"/>
      <point x="405" y="345"/>
      <point x="391" y="310" type="curve"/>
      <point x="380" y="341"/>
      <point x="368" y="372"/>
      <point x="347" y="414" type="curve"/>
      <point x="273" y="561" type="line" smooth="yes"/>
      <point x="265" y="578"/>
      <point x="258" y="599"/>
      <point x="258" y="616" type="curve" smooth="yes"/>
      <point x="258" y="643"/>
      <point x="278" y="661"/>
      <point x="318" y="661" type="curve" smooth="yes"/>
      <point x="335" y="661" type="line"/>
      <point x="335" y="714" type="line"/>
      <point x="0" y="714" type="line"/>
      <point x="0" y="661" type="line"/>
      <point x="13" y="661" type="line" smooth="yes"/>
      <point x="52" y="661"/>
      <point x="64" y="647"/>
      <point x="84" y="608" type="curve" smooth="yes"/>
      <point x="269" y="253" type="line"/>
      <point x="269" y="114" type="line" smooth="yes"/>
      <point x="269" y="57"/>
      <point x="243" y="53"/>
      <point x="211" y="53" type="curve"/>
      <point x="164" y="53" type="line"/>
    </contour>
  </outline>
</glyph>
<glyph name="Z.mono" format="2">
  <advance width="600"/>
  <unicode hex="005A"/>
  <anchor x="312" y="0" name="bottom"/>
  <anchor x="312" y="714" name="top"/>
  <anchor x="580" y="714" name="topright"/>
  <outline>
    <contour>
      <point x="80" y="0" type="line"/>
      <point x="530" y="0" type="line"/>
      <point x="530" y="125" type="line"/>
      <point x="239" y="125" type="line"/>
      <point x="528" y="616" type="line"/>
      <point x="528" y="714" type="line"/>
      <point x="105" y="714" type="line"/>
      <point x="105" y="591" type="line"/>
      <point x="366" y="591" type="line"/>
      <point x="80" y="98" type="line"/>
    </contour>
  </outline>
</glyph>
<glyph name="bracketleft.mono" format="2">
  <advance width="600"/>
  <unicode hex="005B"/>
  <outline>
    <contour>
      <point x="230" y="-162" type="line"/>
      <point x="470" y="-162" type="line"/>
      <point x="470" y="-59" type="line"/>
      <point x="354" y="-59" type="line"/>
      <point x="354" y="619" type="line"/>
      <point x="470" y="619" type="line"/>
      <point x="470" y="721" type="line"/>
      <point x="230" y="721" type="line"/>
    </contour>
  </outline>
</glyph>
<glyph name="bracketright.serif" format="2">
  <advance width="414"/>
  <unicode hex="005D"/>
  <outline>
    <contour>
      <point x="37" y="-128" type="line"/>
      <point x="314" y="-128" type="line"/>
      <point x="314" y="760" type="line"/>
      <point x="37" y="760" type="line"/>
      <point x="37" y="707" type="line"/>
      <point x="80" y="707" type="line" smooth="yes"/>
      <point x="125" y="707"/>
      <point x="162" y="698"/>
      <point x="162" y="635" type="curve" smooth="yes"/>
      <point x="162" y="-3" type="line" smooth="yes"/>
      <point x="162" y="-66"/>
      <point x="125" y="-75"/>
      <point x="80" y="-75" type="curve" smooth="yes"/>
      <point x="37" y="-75" type="line"/>
    </contour>
  </outline>
</glyph>
<glyph name="asciicircum.mono" format="2">
  <advance width="600"/>
  <unicode hex="005E"/>
  <outline>
    <contour>
      <point x="40" y="266" type="line"/>
      <point x="158" y="266" type="line"/>
      <point x="294" y="554" type="line"/>
      <point x="442" y="266" type="line"/>
      <point x="560" y="266" type="line"/>
      <point x="327" y="716" type="line"/>
      <point x="258" y="716" type="line"/>
    </contour>
  </outline>
</glyph>
<glyph name="grave.mono" format="2">
  <advance width="600"/>
  <unicode hex="0060"/>
  <outline>
    <contour>
      <point x="297" y="606" type="curve"/>
      <point x="393" y="606" type="line"/>
      <point x="393" y="619" type="line"/>
      <point x="366" y="653"/>
      <point x="318" y="723"/>
      <point x="294" y="766" type="curve"/>
      <point x="136" y="766" type="line"/>
      <point x="136" y="757" type="line"/>
      <point x="168" y="720"/>
      <point x="254" y="639"/>
    </contour>
  </outline>
</glyph>
<glyph name="grave.serif" format="2">
  <advance width="334"/>
  <unicode hex="0060"/>
  <outline>
    <contour>
      <point x="226" y="606" type="curve"/>
      <point x="294" y="606" type="line"/>
      <point x="294" y="619" type="line"/>
      <point x="265" y="657"/>
      <point x="218" y="721"/>
      <point x="197" y="766" type="curve"/>
      <point x="40" y="766" type="line"/>
      <point x="40" y="756" type="line"/>
      <point x="65" y="721"/>
      <point x="163" y="642"/>
    </contour>
  </outline>
</glyph>
<glyph name="a.mono" format="2">
  <advance width="600"/>
  <unicode hex="0061"/>
  <anchor x="307" y="0" name="bottom"/>
  <anchor x="540" y="10" name="ogonek"/>
  <anchor x="308" y="546" name="top"/>
  <anchor x="580" y="546" name="topright"/>
  <outline>
    <contour>
      <point x="223" y="-10" type="curve" smooth="yes"/>
      <point x="289" y="-10"/>
      <point x="348" y="11"/>
      <point x="398" y="69" type="curve"/>
      <point x="402" y="69" type="line"/>
      <point x="425" y="0" type="line"/>
      <point x="535" y="0" type="line"/>
      <point x="535" y="364" type="line" smooth="yes"/>
      <point x="535" y="493"/>
      <point x="448" y="556"/>
      <point x="293" y="556" type="curve" smooth="yes"/>
      <point x="215" y="556"/>
      <point x="146" y="540"/>
      <point x="83" y="508" type="curve"/>
      <point x="130" y="407" type="line"/>
      <point x="189" y="429"/>
      <point x="241" y="440"/>
      <point x="288" y="440" type="curve" smooth="yes"/>
      <point x="361" y="440"/>
      <point x="397" y="414"/>
      <point x="397" y="364" type="curve" smooth="yes"/>
      <point x="397" y="340" type="line"/>
      <point x="277" y="337" type="line" smooth="yes"/>
      <point x="130" y="333"/>
      <point x="50" y="280"/>
      <point x="50" y="158" type="curve" smooth="yes"/>
      <point x="50" y="55"/>
      <point x="108" y="-10"/>
    </contour>
    <contour>
      <point x="274" y="104" type="curve" smooth="yes"/>
      <point x="227" y="104"/>
      <point x="191" y="123"/>
      <point x="191" y="171" type="curve" smooth="yes"/>
      <point x="191" y="224"/>
      <point x="234" y="249"/>
      <point x="314" y="251" type="curve" smooth="yes"/>
      <point x="397" y="253" type="line"/>
      <point x="397" y="208" type="line" smooth="yes"/>
      <point x="397" y="144"/>
      <point x="342" y="104"/>
    </contour>
  </outline>
</glyph>
<glyph name="b.mono" format="2">
  <advance width="600"/>
  <unicode hex="0062"/>
  <anchor x="300" y="0" name="bottom"/>
  <anchor x="300" y="760" name="top"/>
  <anchor x="580" y="760" name="topright"/>
  <outline>
    <contour>
      <point x="354" y="-10" type="curve" smooth="yes"/>
      <point x="496" y="-10"/>
      <point x="560" y="115"/>
      <point x="560" y="275" type="curve" smooth="yes"/>
      <point x="560" y="431"/>
      <point x="499" y="556"/>
      <point x="357" y="556" type="curve" smooth="yes"/>
      <point x="291" y="556"/>
      <point x="232" y="529"/>
      <point x="197" y="475" type="curve"/>
      <point x="191" y="475" type="line"/>
      <point x="195" y="524"/>
      <point x="197" y="561"/>
      <point x="197" y="583" type="curve" smooth="yes"/>
      <point x="197" y="760" type="line"/>
      <point x="55" y="760" type="line"/>
      <point x="55" y="0" type="line"/>
      <point x="165" y="0" type="line"/>
      <point x="187" y="60" type="line"/>
      <point x="197" y="60" type="line"/>
      <point x="234" y="14"/>
      <point x="292" y="-10"/>
    </contour>
    <contour>
      <point x="305" y="110" type="curve" smooth="yes"/>
      <point x="237" y="110"/>
      <point x="197" y="163"/>
      <point x="197" y="276" type="curve" smooth="yes"/>
      <point x="197" y="394"/>
      <point x="240" y="436"/>
      <point x="304" y="436" type="curve" smooth="yes"/>
      <point x="374" y="436"/>
      <point x="413" y="386"/>
      <point x="413" y="276" type="curve" smooth="yes"/>
      <point x="413" y="167"/>
      <point x="375" y="110"/>
    </contour>
  </outline>
</glyph>
<glyph name="c.mono" format="2">
  <advance width="600"/>
  <unicode hex="0063"/>
  <anchor x="330" y="0" name="bottom"/>
  <anchor x="325" y="546" name="top"/>
  <anchor x="580" y="546" name="topright"/>
  <outline>
    <contour>
      <point x="339" y="-10" type="curve" smooth="yes"/>
      <point x="396" y="-10"/>
      <point x="445" y="-1"/>
      <point x="503" y="28" type="curve"/>
      <point x="503" y="158" type="line"/>
      <point x="445" y="123"/>
      <point x="395" y="113"/>
      <point x="354" y="113" type="curve" smooth="yes"/>
      <point x="266" y="113"/>
      <point x="217" y="160"/>
      <point x="217" y="271" type="curve" smooth="yes"/>
      <point x="217" y="378"/>
      <point x="262" y="433"/>
      <point x="352" y="433" type="curve" smooth="yes"/>
      <point x="379" y="433"/>
      <point x="424" y="428"/>
      <point x="478" y="407" type="curve"/>
      <point x="520" y="522" type="line"/>
      <point x="462" y="547"/>
      <point x="399" y="556"/>
      <point x="344" y="556" type="curve" smooth="yes"/>
      <point x="161" y="556"/>
      <point x="70" y="455"/>
      <point x="70" y="266" type="curve" smooth="yes"/>
      <point x="70" y="83"/>
      <point x="155" y="-10"/>
    </contour>
  </outline>
</glyph>
<glyph name="c.serif" format="2">
  <advance width="527"/>
  <unicode hex="0063"/>
  <anchor x="284" y="0" name="bottom"/>
  <anchor x="291" y="536" name="top"/>
  <anchor x="507" y="536" name="topright"/>
  <outline>
    <contour>
      <point x="295" y="-10" type="curve" smooth="yes"/>
      <point x="430" y="-10"/>
      <point x="489" y="50"/>
      <point x="489" y="100" type="curve" smooth="yes"/>
      <point x="489" y="118"/>
      <point x="481" y="136"/>
      <point x="465" y="146" type="curve"/>
      <point x="442" y="100"/>
      <point x="389" y="65"/>
      <point x="320" y="65" type="curve"/>
      <point x="236" y="65"/>
      <point x="201" y="132"/>
      <point x="201" y="267" type="curve" smooth="yes"/>
      <point x="201" y="438"/>
      <point x="238" y="488"/>
      <point x="296" y="488" type="curve"/>
      <point x="346" y="488"/>
      <point x="361" y="428"/>
      <point x="361" y="359" type="curve"/>
      <point x="465" y="359"/>
      <point x="490" y="401"/>
      <point x="490" y="444" type="curve" smooth="yes"/>
      <point x="490" y="503"/>
      <point x="421" y="549"/>
      <point x="292" y="549" type="curve" smooth="yes"/>
      <point x="154" y="549"/>
      <point x="47" y="482"/>
      <point x="47" y="266" type="curve" smooth="yes"/>
      <point x="47" y="61"/>
      <point x="148" y="-10"/>
    </contour>
  </outline>
</glyph>
<glyph name="d.mono" format="2">
  <advance width="600"/>
  <unicode hex="0064"/>
  <anchor x="300" y="0" name="bottom"/>
  <anchor x="300" y="273" name="center"/>
  <anchor x="300" y="760" name="top"/>
  <anchor x="580" y="760" name="topright"/>
  <outline>
    <contour>
      <point x="243" y="-10" type="curve" smooth="yes"/>
      <point x="309" y="-10"/>
      <point x="365" y="17"/>
      <point x="399" y="71" type="curve"/>
      <point x="405" y="71" type="line"/>
      <point x="435" y="0" type="line"/>
      <point x="545" y="0" type="line"/>
      <point x="545" y="760" type="line"/>
      <point x="403" y="760" type="line"/>
      <point x="403" y="596" type="line" smooth="yes"/>
      <point x="403" y="553"/>
      <point x="407" y="517"/>
      <point x="414" y="476" type="curve"/>
      <point x="409" y="476" type="line"/>
      <point x="373" y="529"/>
      <point x="324" y="556"/>
      <point x="254" y="556" type="curve" smooth="yes"/>
      <point x="105" y="556"/>
      <point x="40" y="436"/>
      <point x="40" y="273" type="curve" smooth="yes"/>
      <point x="40" y="114"/>
      <point x="101" y="-10"/>
    </contour>
    <contour>
      <point x="300" y="110" type="curve" smooth="yes"/>
      <point x="224" y="110"/>
      <point x="187" y="158"/>
      <point x="187" y="267" type="curve" smooth="yes"/>
      <point x="187" y="378"/>
      <point x="225" y="436"/>
      <point x="305" y="436" type="curve" smooth="yes"/>
      <point x="391" y="436"/>
      <point x="414" y="367"/>
      <point x="414" y="271" type="curve" smooth="yes"/>
      <point x="414" y="255" type="line" smooth="yes"/>
      <point x="414" y="159"/>
      <point x="376" y="110"/>
    </contour>
  </outline>
</glyph>
<glyph name="d.serif" format="2">
  <advance width="649"/>
  <unicode hex="0064"/>
  <anchor x="325" y="0" name="bottom"/>
  <anchor x="325" y="268" name="center"/>
  <anchor x="474" y="760" name="top"/>
  <anchor x="619" y="760" name="topright"/>
  <outline>
    <contour>
      <point x="250" y="-10" type="curve" smooth="yes"/>
      <point x="328" y="-10"/>
      <point x="374" y="24"/>
      <point x="404" y="78" type="curve"/>
      <point x="413" y="78" type="line"/>
      <point x="441" y="0" type="line"/>
      <point x="635" y="0" type="line"/>
      <point x="635" y="53" type="line"/>
      <point x="631" y="53" type="line" smooth="yes"/>
      <point x="587" y="53"/>
      <point x="548" y="62"/>
      <point x="548" y="123" type="curve" smooth="yes"/>
      <point x="548" y="760" type="line"/>
      <point x="307" y="760" type="line"/>
      <point x="307" y="707" type="line"/>
      <point x="315" y="707" type="line" smooth="yes"/>
      <point x="359" y="707"/>
      <point x="396" y="700"/>
      <point x="396" y="645" type="curve" smooth="yes"/>
      <point x="396" y="590" type="line" smooth="yes"/>
      <point x="396" y="558"/>
      <point x="399" y="505"/>
      <point x="404" y="468" type="curve"/>
      <point x="397" y="468" type="line"/>
      <point x="369" y="514"/>
      <point x="323" y="548"/>
      <point x="248" y="548" type="curve" smooth="yes"/>
      <point x="119" y="548"/>
      <point x="46" y="460"/>
      <point x="46" y="267" type="curve" smooth="yes"/>
      <point x="46" y="75"/>
      <point x="119" y="-10"/>
    </contour>
    <contour>
      <point x="293" y="65" type="curve" smooth="yes"/>
      <point x="226" y="65"/>
      <point x="200" y="132"/>
      <point x="200" y="268" type="curve" smooth="yes"/>
      <point x="200" y="401"/>
      <point x="226" y="474"/>
      <point x="293" y="474" type="curve" smooth="yes"/>
      <point x="372" y="474"/>
      <point x="396" y="401"/>
      <point x="396" y="269" type="curve" smooth="yes"/>
      <point x="396" y="131"/>
      <point x="372" y="65"/>
    </contour>
  </outline>
</glyph>
<glyph name="e.mono" format="2">
  <advance width="600"/>
  <unicode hex="0065"/>
  <anchor x="310" y="0" name="bottom"/>
  <anchor x="310" y="10" name="ogonek"/>
  <anchor x="310" y="546" name="top"/>
  <anchor x="580" y="546" name="topright"/>
  <outline>
    <contour>
      <point x="351" y="-10" type="curve" smooth="yes"/>
      <point x="412" y="-10"/>
      <point x="475" y="0"/>
      <point x="534" y="29" type="curve"/>
      <point x="534" y="146" type="line"/>
      <point x="468" y="122"/>
      <point x="411" y="109"/>
      <point x="359" y="109" type="curve" smooth="yes"/>
      <point x="268" y="109"/>
      <point x="194" y="150"/>
      <point x="191" y="231" type="curve"/>
      <point x="550" y="231" type="line"/>
      <point x="550" y="303" type="line" smooth="yes"/>
      <point x="550" y="461"/>
      <point x="462" y="556"/>
      <point x="308" y="556" type="curve" smooth="yes"/>
      <point x="143" y="556"/>
      <point x="50" y="446"/>
      <point x="50" y="276" type="curve" smooth="yes"/>
      <point x="50" y="92"/>
      <point x="159" y="-10"/>
    </contour>
    <contour>
      <point x="420" y="330" type="curve"/>
      <point x="194" y="330" type="line"/>
      <point x="201" y="404"/>
      <point x="250" y="445"/>
      <point x="311" y="445" type="curve" smooth="yes"/>
      <point x="374" y="445"/>
      <point x="419" y="401"/>
    </contour>
  </outline>
</glyph>
<glyph name="e.serif" format="2">
  <advance width="571"/>
  <unicode hex="0065"/>
  <anchor x="296" y="0" name="bottom"/>
  <anchor x="296" y="536" name="top"/>
  <anchor x="551" y="536" name="topright"/>
  <outline>
    <contour>
      <point x="306" y="-10" type="curve" smooth="yes"/>
      <point x="441" y="-10"/>
      <point x="503" y="40"/>
      <point x="503" y="97" type="curve" smooth="yes"/>
      <point x="503" y="119"/>
      <point x="494" y="136"/>
      <point x="476" y="146" type="curve"/>
      <point x="453" y="100"/>
      <point x="404" y="65"/>
      <point x="335" y="65" type="curve" smooth="yes"/>
      <point x="252" y="65"/>
      <point x="205" y="123"/>
      <point x="201" y="257" type="curve"/>
      <point x="529" y="257" type="line"/>
      <point x="529" y="308" type="line" smooth="yes"/>
      <point x="529" y="467"/>
      <point x="440" y="549"/>
      <point x="295" y="549" type="curve" smooth="yes"/>
      <point x="137" y="549"/>
      <point x="47" y="453"/>
      <point x="47" y="265" type="curve" smooth="yes"/>
      <point x="47" y="91"/>
      <point x="136" y="-10"/>
    </contour>
    <contour>
      <point x="376" y="321" type="curve"/>
      <point x="203" y="321" type="line"/>
      <point x="206" y="427"/>
      <point x="241" y="484"/>
      <point x="297" y="484" type="curve" smooth="yes"/>
      <point x="354" y="484"/>
      <point x="376" y="423"/>
    </contour>
  </outline>
</glyph>
<glyph name="f.serif" format="2">
  <advance width="407"/>
  <unicode hex="0066"/>
  <anchor x="204" y="0" name="bottom"/>
  <anchor x="294" y="769" name="top"/>
  <anchor x="487" y="769" name="topright"/>
  <outline>
    <contour>
      <point x="19" y="0" type="line"/>
      <point x="382" y="0" type="line"/>
      <point x="382" y="53" type="line"/>
      <point x="335" y="53" type="line"/>
      <point x="306" y="53"/>
      <point x="264" y="61"/>
      <point x="264" y="118" type="curve"/>
      <point x="264" y="468" type="line"/>
      <point x="402" y="468" type="line"/>
      <point x="402" y="536" type="line"/>
      <point x="264" y="536" type="line"/>
      <point x="264" y="591" type="line"/>
      <point x="264" y="679"/>
      <point x="277" y="712"/>
      <point x="310" y="712" type="curve" smooth="yes"/>
      <point x="347" y="712"/>
      <point x="360" y="663"/>
      <point x="360" y="631" type="curve"/>
      <point x="442" y="631"/>
      <point x="483" y="651"/>
      <point x="483" y="696" type="curve" smooth="yes"/>
      <point x="483" y="737"/>
      <point x="445" y="769"/>
      <point x="316" y="769" type="curve" smooth="yes"/>
      <point x="175" y="769"/>
      <point x="112" y="697"/>
      <point x="112" y="573" type="curve"/>
      <point x="112" y="536" type="line"/>
      <point x="23" y="536" type="line"/>
      <point x="23" y="468" type="line"/>
      <point x="112" y="468" type="line"/>
      <point x="112" y="118" type="line"/>
      <point x="112" y="61"/>
      <point x="70" y="53"/>
      <point x="41" y="53" type="curve"/>
      <point x="19" y="53" type="line"/>
    </contour>
  </outline>
</glyph>
<glyph name="g.serif" format="2">
  <advance width="560"/>
  <unicode hex="0067"/>
  <anchor x="262" y="-240" name="bottom"/>
  <anchor x="262" y="536" name="top"/>
  <anchor x="550" y="536" name="topright"/>
  <outline>
    <contour>
      <point x="236" y="-240" type="curve" smooth="yes"/>
      <point x="433" y="-240"/>
      <point x="526" y="-167"/>
      <point x="526" y="-44" type="curve" smooth="yes"/>
      <point x="526" y="52"/>
      <point x="467" y="109"/>
      <point x="334" y="109" type="curve" smooth="yes"/>
      <point x="213" y="109" type="line" smooth="yes"/>
      <point x="185" y="109"/>
      <point x="166" y="119"/>
      <point x="166" y="141" type="curve" smooth="yes"/>
      <point x="166" y="165"/>
      <point x="183" y="184"/>
      <point x="202" y="192" type="curve"/>
      <point x="214" y="191"/>
      <point x="245" y="189"/>
      <point x="260" y="189" type="curve" smooth="yes"/>
      <point x="399" y="189"/>
      <point x="462" y="263"/>
      <point x="462" y="364" type="curve" smooth="yes"/>
      <point x="462" y="413"/>
      <point x="440" y="461"/>
      <point x="413" y="491" type="curve"/>
      <point x="420" y="497"/>
      <point x="435" y="502"/>
      <point x="446" y="502" type="curve" smooth="yes"/>
      <point x="465" y="502"/>
      <point x="484" y="487"/>
      <point x="484" y="460" type="curve"/>
      <point x="539" y="460"/>
      <point x="555" y="487"/>
      <point x="555" y="517" type="curve" smooth="yes"/>
      <point x="555" y="548"/>
      <point x="531" y="574"/>
      <point x="483" y="574" type="curve" smooth="yes"/>
      <point x="443" y="574"/>
      <point x="414" y="556"/>
      <point x="379" y="518" type="curve"/>
      <point x="349" y="535"/>
      <point x="307" y="549"/>
      <point x="260" y="549" type="curve" smooth="yes"/>
      <point x="117" y="549"/>
      <point x="51" y="481"/>
      <point x="51" y="364" type="curve" smooth="yes"/>
      <point x="51" y="283"/>
      <point x="94" y="230"/>
      <point x="153" y="209" type="curve"/>
      <point x="101" y="179"/>
      <point x="64" y="148"/>
      <point x="64" y="104" type="curve" smooth="yes"/>
      <point x="64" y="57"/>
      <point x="101" y="29"/>
      <point x="137" y="15" type="curve"/>
      <point x="50" y="8"/>
      <point x="2" y="-30"/>
      <point x="2" y="-101" type="curve" smooth="yes"/>
      <point x="2" y="-192"/>
      <point x="79" y="-240"/>
    </contour>
    <contour>
      <point x="238" y="-180" type="curve" smooth="yes"/>
      <point x="161" y="-180"/>
      <point x="120" y="-154"/>
      <point x="120" y="-99" type="curve" smooth="yes"/>
      <point x="120" y="-34"/>
      <point x="169" y="-23"/>
      <point x="209" y="-23" type="curve" smooth="yes"/>
      <point x="325" y="-23" type="line" smooth="yes"/>
      <point x="379" y="-23"/>
      <point x="406" y="-38"/>
      <point x="406" y="-80" type="curve" smooth="yes"/>
      <point x="406" y="-146"/>
      <point x="355" y="-180"/>
    </contour>
    <contour>
      <point x="257" y="248" type="curve" smooth="yes"/>
      <point x="205" y="248"/>
      <point x="187" y="294"/>
      <point x="187" y="364" type="curve" smooth="yes"/>
      <point x="187" y="437"/>
      <point x="204" y="489"/>
      <point x="256" y="489" type="curve" smooth="yes"/>
      <point x="309" y="489"/>
      <point x="325" y="439"/>
      <point x="325" y="365" type="curve" smooth="yes"/>
      <point x="325" y="293"/>
      <point x="310" y="248"/>
    </contour>
  </outline>
</glyph>
<glyph name="h.mono" format="2">
  <advance width="600"/>
  <unicode hex="0068"/>
  <anchor x="300" y="0" name="bottom"/>
  <anchor x="300" y="273" name="center"/>
  <anchor x="129" y="760" name="top"/>
  <anchor x="580" y="760" name="topright"/>
  <outline>
    <contour>
      <point x="55" y="0" type="line"/>
      <point x="200" y="0" type="line"/>
      <point x="200" y="257" type="line" smooth="yes"/>
      <point x="200" y="383"/>
      <point x="235" y="436"/>
      <point x="312" y="436" type="curve" smooth="yes"/>
      <point x="369" y="436"/>
      <point x="405" y="408"/>
      <point x="405" y="319" type="curve" smooth="yes"/>
      <point x="405" y="0" type="line"/>
      <point x="550" y="0" type="line"/>
      <point x="550" y="356" type="line" smooth="yes"/>
      <point x="550" y="485"/>
      <point x="482" y="556"/>
      <point x="360" y="556" type="curve" smooth="yes"/>
      <point x="283" y="556"/>
      <point x="238" y="528"/>
      <point x="205" y="476" type="curve"/>
      <point x="197" y="476" type="line"/>
      <point x="199" y="519"/>
      <point x="200" y="562"/>
      <point x="200" y="605" type="curve" smooth="yes"/>
      <point x="200" y="760" type="line"/>
      <point x="55" y="760" type="line"/>
    </contour>
  </outline>
</glyph>
<glyph name="h.serif" format="2">
  <advance width="667"/>
  <unicode hex="0068"/>
  <anchor x="334" y="0" name="bottom"/>
  <anchor x="334" y="268" name="center"/>
  <anchor x="175" y="760" name="top"/>
  <anchor x="597" y="760" name="topright"/>
  <outline>
    <contour>
      <point x="20" y="0" type="line"/>
      <point x="327" y="0" type="line"/>
      <point x="327" y="53" type="line"/>
      <point x="324" y="53" type="line" smooth="yes"/>
      <point x="280" y="53"/>
      <point x="253" y="62"/>
      <point x="253" y="118" type="curve"/>
      <point x="252" y="309" type="line"/>
      <point x="252" y="391"/>
      <point x="273" y="464"/>
      <point x="339" y="464" type="curve" smooth="yes"/>
      <point x="398" y="464"/>
      <point x="419" y="415"/>
      <point x="419" y="329" type="curve" smooth="yes"/>
      <point x="419" y="0" type="line"/>
      <point x="641" y="0" type="line"/>
      <point x="641" y="53" type="line"/>
      <point x="638" y="53" type="line" smooth="yes"/>
      <point x="593" y="53"/>
      <point x="571" y="62"/>
      <point x="571" y="124" type="curve" smooth="yes"/>
      <point x="571" y="356" type="line" smooth="yes"/>
      <point x="571" y="491"/>
      <point x="509" y="549"/>
      <point x="406" y="549" type="curve" smooth="yes"/>
      <point x="343" y="549"/>
      <point x="293" y="543"/>
      <point x="253" y="468" type="curve"/>
      <point x="244" y="468" type="line"/>
      <point x="244" y="468"/>
      <point x="252" y="543"/>
      <point x="252" y="595" type="curve" smooth="yes"/>
      <point x="252" y="760" type="line"/>
      <point x="17" y="760" type="line"/>
      <point x="17" y="707" type="line"/>
      <point x="29" y="707" type="line" smooth="yes"/>
      <point x="57" y="707"/>
      <point x="100" y="699"/>
      <point x="100" y="646" type="curve" smooth="yes"/>
      <point x="101" y="122" type="line"/>
      <point x="101" y="62"/>
      <point x="67" y="53"/>
      <point x="22" y="53" type="curve" smooth="yes"/>
      <point x="20" y="53" type="line"/>
    </contour>
  </outline>
</glyph>
<glyph name="j.mono" format="2">
  <advance width="600"/>
  <unicode hex="006A"/>
  <anchor x="211" y="-245" name="bottom"/>
  <anchor x="340" y="776" name="top"/>
  <anchor x="520" y="776" name="topright"/>
  <outline>
    <contour>
      <point x="196" y="-245" type="curve" smooth="yes"/>
      <point x="352" y="-245"/>
      <point x="429" y="-174"/>
      <point x="429" y="-19" type="curve" smooth="yes"/>
      <point x="429" y="546" type="line"/>
      <point x="129" y="546" type="line"/>
      <point x="129" y="443" type="line"/>
      <point x="284" y="426" type="line"/>
      <point x="284" y="9" type="line" smooth="yes"/>
      <point x="284" y="-85"/>
      <point x="253" y="-119"/>
      <point x="174" y="-119" type="curve" smooth="yes"/>
      <point x="141" y="-119"/>
      <point x="87" y="-113"/>
      <point x="40" y="-100" type="curve"/>
      <point x="40" y="-223" type="line"/>
      <point x="91" y="-238"/>
      <point x="148" y="-245"/>
    </contour>
    <contour>
      <point x="345" y="608" type="curve" smooth="yes"/>
      <point x="405" y="608"/>
      <point x="435" y="638"/>
      <point x="435" y="693" type="curve" smooth="yes"/>
      <point x="435" y="747"/>
      <point x="406" y="776"/>
      <point x="347" y="776" type="curve" smooth="yes"/>
      <point x="287" y="776"/>
      <point x="258" y="747"/>
      <point x="258" y="692" type="curve" smooth="yes"/>
      <point x="258" y="636"/>
      <point x="288" y="608"/>
    </contour>
  </outline>
</glyph>
<glyph name="k.serif" format="2">
  <advance width="636"/>
  <unicode hex="006B"/>
  <anchor x="318" y="0" name="bottom"/>
  <anchor x="169" y="760" name="top"/>
  <anchor x="486" y="900" name="topright"/>
  <outline>
    <contour>
      <point x="17" y="0" type="line"/>
      <point x="335" y="0" type="line"/>
      <point x="335" y="53" type="line"/>
      <point x="323" y="53" type="line" smooth="yes"/>
      <point x="294" y="53"/>
      <point x="252" y="61"/>
      <point x="252" y="118" type="curve"/>
      <point x="252" y="199" type="line"/>
      <point x="292" y="229" type="line"/>
      <point x="381" y="89" type="line" smooth="yes"/>
      <point x="433" y="7"/>
      <point x="476" y="0"/>
      <point x="622" y="0" type="curve" smooth="yes"/>
      <point x="636" y="0" type="line"/>
      <point x="636" y="53" type="line"/>
      <point x="633" y="53" type="line" smooth="yes"/>
      <point x="601" y="53"/>
      <point x="564" y="78"/>
      <point x="529" y="131" type="curve" smooth="yes"/>
      <point x="396" y="329" type="line"/>
      <point x="459" y="401" type="line"/>
      <point x="511" y="460"/>
      <point x="554" y="486"/>
      <point x="600" y="486" type="curve"/>
      <point x="600" y="536" type="line"/>
      <point x="348" y="536" type="line"/>
      <point x="348" y="486" type="line"/>
      <point x="381" y="486"/>
      <point x="400" y="476"/>
      <point x="400" y="459" type="curve" smooth="yes"/>
      <point x="400" y="449"/>
      <point x="395" y="436"/>
      <point x="373" y="411" type="curve" smooth="yes"/>
      <point x="247" y="270" type="line"/>
      <point x="247" y="270"/>
      <point x="252" y="338"/>
      <point x="252" y="374" type="curve" smooth="yes"/>
      <point x="252" y="760" type="line"/>
      <point x="17" y="760" type="line"/>
      <point x="17" y="707" type="line"/>
      <point x="29" y="707" type="line" smooth="yes"/>
      <point x="57" y="707"/>
      <point x="100" y="699"/>
      <point x="100" y="646" type="curve" smooth="yes"/>
      <point x="100" y="118" type="line" smooth="yes"/>
      <point x="100" y="61"/>
      <point x="58" y="53"/>
      <point x="29" y="53" type="curve" smooth="yes"/>
      <point x="17" y="53" type="line"/>
    </contour>
  </outline>
</glyph>
<glyph name="l.mono" format="2">
  <advance width="600"/>
  <unicode hex="006C"/>
  <anchor x="315" y="0" name="bottom"/>
  <anchor x="315" y="376" name="center"/>
  <anchor x="300" y="760" name="top"/>
  <anchor x="498" y="760" name="topright"/>
  <outline>
    <contour>
      <point x="60" y="0" type="line"/>
      <point x="550" y="0" type="line"/>
      <point x="550" y="90" type="line"/>
      <point x="385" y="120" type="line"/>
      <point x="385" y="760" type="line"/>
      <point x="95" y="760" type="line"/>
      <point x="95" y="670" type="line"/>
      <point x="240" y="640" type="line"/>
      <point x="240" y="120" type="line"/>
      <point x="60" y="90" type="line"/>
    </contour>
  </outline>
</glyph>
<glyph name="l.serif" format="2">
  <advance width="352"/>
  <unicode hex="006C"/>
  <anchor x="176" y="0" name="bottom"/>
  <anchor x="176" y="268" name="center"/>
  <anchor x="176" y="760" name="top"/>
  <anchor x="302" y="760" name="topright"/>
  <outline>
    <contour>
      <point x="17" y="0" type="line"/>
      <point x="335" y="0" type="line"/>
      <point x="335" y="53" type="line"/>
      <point x="323" y="53" type="line" smooth="yes"/>
      <point x="294" y="53"/>
      <point x="252" y="61"/>
      <point x="252" y="118" type="curve" smooth="yes"/>
      <point x="252" y="760" type="line"/>
      <point x="17" y="760" type="line"/>
      <point x="17" y="707" type="line"/>
      <point x="29" y="707" type="line" smooth="yes"/>
      <point x="57" y="707"/>
      <point x="100" y="699"/>
      <point x="100" y="646" type="curve" smooth="yes"/>
      <point x="100" y="118" type="line" smooth="yes"/>
      <point x="100" y="61"/>
      <point x="58" y="53"/>
      <point x="29" y="53" type="curve" smooth="yes"/>
      <point x="17" y="53" type="line"/>
    </contour>
  </outline>
</glyph>
<glyph name="m.mono" format="2">
  <advance width="600"/>
  <unicode hex="006D"/>
  <anchor x="310" y="0" name="bottom"/>
  <anchor x="330" y="546" name="top"/>
  <anchor x="580" y="546" name="topright"/>
  <outline>
    <contour>
      <point x="30" y="0" type="line"/>
      <point x="155" y="0" type="line"/>
      <point x="155" y="353" type="line" smooth="yes"/>
      <point x="155" y="415"/>
      <point x="166" y="436"/>
      <point x="200" y="436" type="curve" smooth="yes"/>
      <point x="229" y="436"/>
      <point x="237" y="418"/>
      <point x="237" y="384" type="curve" smooth="yes"/>
      <point x="237" y="0" type="line"/>
      <point x="364" y="0" type="line"/>
      <point x="364" y="353" type="line" smooth="yes"/>
      <point x="364" y="413"/>
      <point x="375" y="436"/>
      <point x="409" y="436" type="curve" smooth="yes"/>
      <point x="438" y="436"/>
      <point x="445" y="417"/>
      <point x="445" y="384" type="curve" smooth="yes"/>
      <point x="445" y="0" type="line"/>
      <point x="570" y="0" type="line"/>
      <point x="570" y="355" type="line" smooth="yes"/>
      <point x="570" y="487"/>
      <point x="553" y="556"/>
      <point x="467" y="556" type="curve" smooth="yes"/>
      <point x="409" y="556"/>
      <point x="380" y="525"/>
      <point x="356" y="466" type="curve"/>
      <point x="351" y="466" type="line"/>
      <point x="340" y="525"/>
      <point x="312" y="556"/>
      <point x="253" y="556" type="curve" smooth="yes"/>
      <point x="201" y="556"/>
      <point x="172" y="532"/>
      <point x="152" y="478" type="curve"/>
      <point x="144" y="478" type="line"/>
      <point x="128" y="546" type="line"/>
      <point x="30" y="546" type="line"/>
    </contour>
  </outline>
</glyph>
<glyph name="n.mono" format="2">
  <advance width="600"/>
  <unicode hex="006E"/>
  <anchor x="304" y="0" name="bottom"/>
  <anchor x="304" y="546" name="top"/>
  <anchor x="580" y="546" name="topright"/>
  <outline>
    <contour>
      <point x="55" y="0" type="line"/>
      <point x="200" y="0" type="line"/>
      <point x="200" y="257" type="line" smooth="yes"/>
      <point x="200" y="367"/>
      <point x="233" y="436"/>
      <point x="312" y="436" type="curve" smooth="yes"/>
      <point x="372" y="436"/>
      <point x="405" y="399"/>
      <point x="405" y="319" type="curve" smooth="yes"/>
      <point x="405" y="0" type="line"/>
      <point x="550" y="0" type="line"/>
      <point x="550" y="356" type="line" smooth="yes"/>
      <point x="550" y="485"/>
      <point x="484" y="556"/>
      <point x="362" y="556" type="curve" smooth="yes"/>
      <point x="287" y="556"/>
      <point x="230" y="529"/>
      <point x="197" y="476" type="curve"/>
      <point x="189" y="476" type="line"/>
      <point x="165" y="546" type="line"/>
      <point x="55" y="546" type="line"/>
    </contour>
  </outline>
</glyph>
<glyph name="n.serif" format="2">
  <advance width="667"/>
  <unicode hex="006E"/>
  <anchor x="336" y="0" name="bottom"/>
  <anchor x="363" y="536" name="top"/>
  <anchor x="637" y="536" name="topright"/>
  <outline>
    <contour>
      <point x="20" y="0" type="line"/>
      <point x="327" y="0" type="line"/>
      <point x="327" y="53" type="line"/>
      <point x="324" y="53" type="line"/>
      <point x="280" y="53"/>
      <point x="252" y="62"/>
      <point x="252" y="118" type="curve" smooth="yes"/>
      <point x="252" y="309" type="line" smooth="yes"/>
      <point x="252" y="391"/>
      <point x="273" y="464"/>
      <point x="339" y="464" type="curve" smooth="yes"/>
      <point x="398" y="464"/>
      <point x="419" y="415"/>
      <point x="419" y="329" type="curve" smooth="yes"/>
      <point x="419" y="0" type="line"/>
      <point x="641" y="0" type="line"/>
      <point x="641" y="53" type="line"/>
      <point x="638" y="53" type="line" smooth="yes"/>
      <point x="593" y="53"/>
      <point x="571" y="62"/>
      <point x="571" y="124" type="curve" smooth="yes"/>
      <point x="571" y="356" type="line" smooth="yes"/>
      <point x="571" y="491"/>
      <point x="509" y="549"/>
      <point x="406" y="549" type="curve" smooth="yes"/>
      <point x="343" y="549"/>
      <point x="293" y="540"/>
      <point x="253" y="465" type="curve"/>
      <point x="248" y="465" type="line"/>
      <point x="235" y="536" type="line"/>
      <point x="25" y="536" type="line"/>
      <point x="25" y="483" type="line"/>
      <point x="28" y="483" type="line" smooth="yes"/>
      <point x="72" y="483"/>
      <point x="100" y="474"/>
      <point x="100" y="418" type="curve" smooth="yes"/>
      <point x="100" y="122" type="line" smooth="yes"/>
      <point x="100" y="62"/>
      <point x="67" y="53"/>
      <point x="22" y="53" type="curve" smooth="yes"/>
      <point x="20" y="53" type="line"/>
    </contour>
  </outline>
</glyph>
<glyph name="o.mono" format="2">
  <advance width="600"/>
  <unicode hex="006F"/>
  <anchor x="300" y="0" name="bottom"/>
  <anchor x="300" y="273" name="center"/>
  <anchor x="305" y="10" name="ogonek"/>
  <anchor x="300" y="546" name="top"/>
  <anchor x="580" y="546" name="topright"/>
  <outline>
    <contour>
      <point x="300" y="-10" type="curve"/>
      <point x="469" y="-10"/>
      <point x="560" y="104"/>
      <point x="560" y="273" type="curve" smooth="yes"/>
      <point x="560" y="451"/>
      <point x="460" y="556"/>
      <point x="302" y="556" type="curve" smooth="yes"/>
      <point x="139" y="556"/>
      <point x="40" y="444"/>
      <point x="40" y="271" type="curve" smooth="yes"/>
      <point x="40" y="101"/>
      <point x="136" y="-10"/>
    </contour>
    <contour>
      <point x="302" y="107" type="curve" smooth="yes"/>
      <point x="225" y="107"/>
      <point x="187" y="171"/>
      <point x="187" y="273" type="curve" smooth="yes"/>
      <point x="187" y="375"/>
      <point x="225" y="439"/>
      <point x="302" y="439" type="curve" smooth="yes"/>
      <point x="380" y="439"/>
      <point x="413" y="373"/>
      <point x="413" y="273" type="curve" smooth="yes"/>
      <point x="413" y="170"/>
      <point x="378" y="107"/>
    </contour>
  </outline>
</glyph>
<glyph name="r.mono" format="2">
  <advance width="600"/>
  <unicode hex="0072"/>
  <anchor x="260" y="0" name="bottom"/>
  <anchor x="330" y="546" name="top"/>
  <anchor x="580" y="546" name="topright"/>
  <outline>
    <contour>
      <point x="41" y="0" type="line"/>
      <point x="471" y="0" type="line"/>
      <point x="471" y="90" type="line"/>
      <point x="328" y="120" type="line"/>
      <point x="328" y="262" type="line" smooth="yes"/>
      <point x="328" y="350"/>
      <point x="373" y="417"/>
      <point x="465" y="417" type="curve" smooth="yes"/>
      <point x="495" y="417"/>
      <point x="525" y="410"/>
      <point x="544" y="404" type="curve"/>
      <point x="583" y="539" type="line"/>
      <point x="548" y="553"/>
      <point x="510" y="556"/>
      <point x="488" y="556" type="curve" smooth="yes"/>
      <point x="406" y="556"/>
      <point x="356" y="515"/>
      <point x="321" y="454" type="curve"/>
      <point x="314" y="454" type="line"/>
      <point x="293" y="546" type="line"/>
      <point x="68" y="546" type="line"/>
      <point x="68" y="443" type="line"/>
      <point x="183" y="426" type="line"/>
      <point x="183" y="120" type="line"/>
      <point x="41" y="90" type="line"/>
    </contour>
  </outline>
</glyph>
<glyph name="r.serif" format="2">
  <advance width="523"/>
  <unicode hex="0072"/>
  <anchor x="192" y="0" name="bottom"/>
  <anchor x="272" y="536" name="top"/>
  <anchor x="503" y="536" name="topright"/>
  <outline>
    <contour>
      <point x="20" y="0" type="line"/>
      <point x="354" y="0" type="line"/>
      <point x="354" y="53" type="line"/>
      <point x="322" y="53" type="line" smooth="yes"/>
      <point x="282" y="53"/>
      <point x="252" y="61"/>
      <point x="252" y="120" type="curve" smooth="yes"/>
      <point x="252" y="293" type="line" smooth="yes"/>
      <point x="252" y="339"/>
      <point x="262" y="453"/>
      <point x="332" y="453" type="curve" smooth="yes"/>
      <point x="370" y="453"/>
      <point x="381" y="425"/>
      <point x="381" y="370" type="curve"/>
      <point x="461" y="370"/>
      <point x="508" y="406"/>
      <point x="508" y="467" type="curve" smooth="yes"/>
      <point x="508" y="519"/>
      <point x="471" y="548"/>
      <point x="393" y="548" type="curve" smooth="yes"/>
      <point x="311" y="548"/>
      <point x="278" y="518"/>
      <point x="252" y="458" type="curve"/>
      <point x="247" y="458" type="line"/>
      <point x="227" y="536" type="line"/>
      <point x="25" y="536" type="line"/>
      <point x="25" y="483" type="line"/>
      <point x="28" y="483" type="line" smooth="yes"/>
      <point x="72" y="483"/>
      <point x="100" y="474"/>
      <point x="100" y="415" type="curve" smooth="yes"/>
      <point x="100" y="125" type="line" smooth="yes"/>
      <point x="100" y="62"/>
      <point x="68" y="53"/>
      <point x="23" y="53" type="curve" smooth="yes"/>
      <point x="20" y="53" type="line"/>
    </contour>
  </outline>
</glyph>
<glyph name="s.mono" format="2">
  <advance width="600"/>
  <unicode hex="0073"/>
  <anchor x="305" y="0" name="bottom"/>
  <anchor x="305" y="546" name="top"/>
  <anchor x="580" y="546" name="topright"/>
  <outline>
    <contour>
      <point x="272" y="-10" type="curve" smooth="yes"/>
      <point x="436" y="-10"/>
      <point x="520" y="39"/>
      <point x="520" y="151" type="curve" smooth="yes"/>
      <point x="520" y="260"/>
      <point x="441" y="295"/>
      <point x="352" y="327" type="curve" smooth="yes"/>
      <point x="276" y="354"/>
      <point x="232" y="365"/>
      <point x="232" y="401" type="curve" smooth="yes"/>
      <point x="232" y="428"/>
      <point x="258" y="437"/>
      <point x="302" y="437" type="curve" smooth="yes"/>
      <point x="359" y="437"/>
      <point x="412" y="425"/>
      <point x="474" y="402" type="curve"/>
      <point x="519" y="513" type="line"/>
      <point x="451" y="542"/>
      <point x="377" y="556"/>
      <point x="307" y="556" type="curve" smooth="yes"/>
      <point x="176" y="556"/>
      <point x="84" y="508"/>
      <point x="84" y="396" type="curve" smooth="yes"/>
      <point x="84" y="301"/>
      <point x="150" y="268"/>
      <point x="241" y="233" type="curve" smooth="yes"/>
      <point x="326" y="200"/>
      <point x="371" y="189"/>
      <point x="371" y="152" type="curve" smooth="yes"/>
      <point x="371" y="122"/>
      <point x="340" y="111"/>
      <point x="289" y="111" type="curve" smooth="yes"/>
      <point x="212" y="111"/>
      <point x="137" y="132"/>
      <point x="80" y="157" type="curve"/>
      <point x="80" y="22" type="line"/>
      <point x="144" y="-2"/>
      <point x="206" y="-10"/>
    </contour>
  </outline>
</glyph>
<glyph name="s.serif" format="2">
  <advance width="488"/>
  <unicode hex="0073"/>
  <anchor x="244" y="0" name="bottom"/>
  <anchor x="244" y="536" name="top"/>
  <anchor x="468" y="536" name="topright"/>
  <outline>
    <contour>
      <point x="231" y="-10" type="curve" smooth="yes"/>
      <point x="369" y="-10"/>
      <point x="448" y="55"/>
      <point x="448" y="166" type="curve" smooth="yes"/>
      <point x="448" y="250"/>
      <point x="385" y="296"/>
      <point x="296" y="327" type="curve" smooth="yes"/>
      <point x="187" y="365"/>
      <point x="159" y="386"/>
      <point x="159" y="429" type="curve" smooth="yes"/>
      <point x="159" y="470"/>
      <point x="197" y="491"/>
      <point x="240" y="491" type="curve" smooth="yes"/>
      <point x="298" y="491"/>
      <point x="328" y="452"/>
      <point x="328" y="386" type="curve"/>
      <point x="401" y="386"/>
      <point x="430" y="410"/>
      <point x="430" y="455" type="curve" smooth="yes"/>
      <point x="430" y="501"/>
      <point x="381" y="548"/>
      <point x="255" y="548" type="curve" smooth="yes"/>
      <point x="126" y="548"/>
      <point x="40" y="496"/>
      <point x="40" y="389" type="curve" smooth="yes"/>
      <point x="40" y="299"/>
      <point x="99" y="254"/>
      <point x="207" y="217" type="curve" smooth="yes"/>
      <point x="301" y="184"/>
      <point x="330" y="161"/>
      <point x="330" y="117" type="curve" smooth="yes"/>
      <point x="330" y="80"/>
      <point x="300" y="49"/>
      <point x="231" y="49" type="curve" smooth="yes"/>
      <point x="166" y="49"/>
      <point x="123" y="100"/>
      <point x="123" y="183" type="curve"/>
      <point x="88" y="183"/>
      <point x="30" y="172"/>
      <point x="30" y="107" type="curve" smooth="yes"/>
      <point x="30" y="40"/>
      <point x="86" y="-10"/>
    </contour>
  </outline>
</glyph>
<glyph name="t.mono" format="2">
  <advance width="600"/>
  <unicode hex="0074"/>
  <anchor x="366" y="0" name="bottom"/>
  <anchor x="261" y="273" name="center"/>
  <anchor x="269" y="682" name="top"/>
  <anchor x="460" y="860" name="topright"/>
  <outline>
    <contour>
      <point x="391" y="-10" type="curve" smooth="yes"/>
      <point x="436" y="-10"/>
      <point x="484" y="-4"/>
      <point x="533" y="12" type="curve"/>
      <point x="533" y="126" type="line"/>
      <point x="480" y="116"/>
      <point x="451" y="111"/>
      <point x="419" y="111" type="curve" smooth="yes"/>
      <point x="366" y="111"/>
      <point x="323" y="125"/>
      <point x="323" y="203" type="curve" smooth="yes"/>
      <point x="323" y="426" type="line"/>
      <point x="528" y="426" type="line"/>
      <point x="528" y="546" type="line"/>
      <point x="323" y="546" type="line"/>
      <point x="323" y="682" type="line"/>
      <point x="213" y="682" type="line"/>
      <point x="189" y="546" type="line"/>
      <point x="53" y="516" type="line"/>
      <point x="53" y="426" type="line"/>
      <point x="178" y="426" type="line"/>
      <point x="178" y="188" type="line" smooth="yes"/>
      <point x="178" y="49"/>
      <point x="250" y="-10"/>
    </contour>
  </outline>
</glyph>
<glyph name="t.serif" format="2">
  <advance width="405"/>
  <unicode hex="0074"/>
  <anchor x="243" y="0" name="bottom"/>
  <anchor x="183" y="268" name="center"/>
  <anchor x="203" y="660" name="top"/>
  <anchor x="250" y="1000" name="topright"/>
  <outline>
    <contour>
      <point x="243" y="-10" type="curve" smooth="yes"/>
      <point x="313" y="-10"/>
      <point x="364" y="5"/>
      <point x="385" y="15" type="curve"/>
      <point x="385" y="80" type="line"/>
      <point x="364" y="75"/>
      <point x="340" y="71"/>
      <point x="314" y="71" type="curve" smooth="yes"/>
      <point x="267" y="71"/>
      <point x="248" y="98"/>
      <point x="248" y="158" type="curve"/>
      <point x="248" y="468" type="line"/>
      <point x="376" y="468" type="line"/>
      <point x="376" y="536" type="line"/>
      <point x="248" y="536" type="line"/>
      <point x="248" y="660" type="line"/>
      <point x="165" y="660" type="line"/>
      <point x="155" y="615"/>
      <point x="139" y="582"/>
      <point x="119" y="561" type="curve" smooth="yes"/>
      <point x="99" y="539"/>
      <point x="64" y="519"/>
      <point x="21" y="519" type="curve"/>
      <point x="21" y="468" type="line"/>
      <point x="96" y="468" type="line"/>
      <point x="96" y="148" type="line"/>
      <point x="96" y="31"/>
      <point x="153" y="-10"/>
    </contour>
  </outline>
</glyph>
<glyph name="u.mono" format="2">
  <advance width="600"/>
  <unicode hex="0075"/>
  <anchor x="300" y="0" name="bottom"/>
  <anchor x="540" y="10" name="ogonek"/>
  <anchor x="300" y="546" name="top"/>
  <anchor x="580" y="546" name="topright"/>
  <outline>
    <contour>
      <point x="234" y="-10" type="curve" smooth="yes"/>
      <point x="308" y="-10"/>
      <point x="371" y="19"/>
      <point x="403" y="70" type="curve"/>
      <point x="411" y="70" type="line"/>
      <point x="435" y="0" type="line"/>
      <point x="545" y="0" type="line"/>
      <point x="545" y="546" type="line"/>
      <point x="400" y="546" type="line"/>
      <point x="400" y="289" type="line" smooth="yes"/>
      <point x="400" y="180"/>
      <point x="378" y="110"/>
      <point x="283" y="110" type="curve" smooth="yes"/>
      <point x="216" y="110"/>
      <point x="195" y="154"/>
      <point x="195" y="227" type="curve" smooth="yes"/>
      <point x="195" y="546" type="line"/>
      <point x="50" y="546" type="line"/>
      <point x="50" y="190" type="line" smooth="yes"/>
      <point x="50" y="61"/>
      <point x="118" y="-10"/>
    </contour>
  </outline>
</glyph>
<glyph name="u.serif" format="2">
  <advance width="667"/>
  <unicode hex="0075"/>
  <anchor x="563" y="0" name="bottom"/>
  <anchor x="334" y="536" name="top"/>
  <anchor x="637" y="536" name="topright"/>
  <outline>
    <contour>
      <point x="258" y="-10" type="curve" smooth="yes"/>
      <point x="321" y="-10"/>
      <point x="376" y="2"/>
      <point x="416" y="71" type="curve"/>
      <point x="421" y="71" type="line"/>
      <point x="443" y="0" type="line"/>
      <point x="642" y="0" type="line"/>
      <point x="642" y="53" type="line"/>
      <point x="634" y="53" type="line" smooth="yes"/>
      <point x="595" y="53"/>
      <point x="567" y="58"/>
      <point x="567" y="116" type="curve" smooth="yes"/>
      <point x="567" y="536" type="line"/>
      <point x="340" y="536" type="line"/>
      <point x="340" y="483" type="line"/>
      <point x="343" y="483" type="line" smooth="yes"/>
      <point x="382" y="483"/>
      <point x="415" y="477"/>
      <point x="415" y="419" type="curve" smooth="yes"/>
      <point x="415" y="227" type="line"/>
      <point x="415" y="134"/>
      <point x="388" y="75"/>
      <point x="324" y="75" type="curve" smooth="yes"/>
      <point x="265" y="75"/>
      <point x="248" y="130"/>
      <point x="248" y="216" type="curve" smooth="yes"/>
      <point x="248" y="536" type="line"/>
      <point x="26" y="536" type="line"/>
      <point x="26" y="483" type="line"/>
      <point x="28" y="483" type="line" smooth="yes"/>
      <point x="76" y="483"/>
      <point x="96" y="470"/>
      <point x="96" y="412" type="curve" smooth="yes"/>
      <point x="96" y="188" type="line" smooth="yes"/>
      <point x="96" y="53"/>
      <point x="154" y="-10"/>
    </contour>
  </outline>
</glyph>
<glyph name="v.mono" format="2">
  <advance width="600"/>
  <unicode hex="0076"/>
  <anchor x="300" y="0" name="bottom"/>
  <anchor x="300" y="546" name="top"/>
  <anchor x="580" y="546" name="topright"/>
  <outline>
    <contour>
      <point x="223" y="0" type="line"/>
      <point x="376" y="0" type="line"/>
      <point x="580" y="546" type="line"/>
      <point x="427" y="546" type="line"/>
      <point x="329" y="234" type="line" smooth="yes"/>
      <point x="315" y="188"/>
      <point x="308" y="158"/>
      <point x="304" y="123" type="curve"/>
      <point x="301" y="123" type="line"/>
      <point x="297" y="158"/>
      <point x="287" y="196"/>
      <point x="275" y="235" type="curve" smooth="yes"/>
      <point x="176" y="546" type="line"/>
      <point x="20" y="546" type="line"/>
    </contour>
  </outline>
</glyph>
<glyph name="v.serif" format="2">
  <advance width="606"/>
  <unicode hex="0076"/>
  <anchor x="313" y="0" name="bottom"/>
  <anchor x="313" y="536" name="top"/>
  <anchor x="606" y="536" name="topright"/>
  <outline>
    <contour>
      <point x="80" y="435" type="curve" smooth="yes"/>
      <point x="244" y="0" type="line"/>
      <point x="376" y="0" type="line"/>
      <point x="521" y="410" type="line" smooth="yes"/>
      <point x="544" y="474"/>
      <point x="559" y="483"/>
      <point x="586" y="483" type="curve" smooth="yes"/>
      <point x="606" y="483" type="line"/>
      <point x="606" y="536" type="line"/>
      <point x="386" y="536" type="line"/>
      <point x="386" y="483" type="line"/>
      <point x="415" y="483" type="line" smooth="yes"/>
      <point x="438" y="483"/>
      <point x="454" y="476"/>
      <point x="454" y="454" type="curve" smooth="yes"/>
      <point x="454" y="436"/>
      <point x="449" y="417"/>
      <point x="443" y="399" type="curve" smooth="yes"/>
      <point x="375" y="198" type="line" smooth="yes"/>
      <point x="366" y="171"/>
      <point x="353" y="125"/>
      <point x="347" y="93" type="curve"/>
      <point x="341" y="127"/>
      <point x="326" y="176"/>
      <point x="311" y="218" type="curve" smooth="yes"/>
      <point x="244" y="407" type="line" smooth="yes"/>
      <point x="240" y="418"/>
      <point x="235" y="435"/>
      <point x="235" y="451" type="curve" smooth="yes"/>
      <point x="235" y="472"/>
      <point x="248" y="483"/>
      <point x="268" y="483" type="curve" smooth="yes"/>
      <point x="310" y="483" type="line"/>
      <point x="310" y="536" type="line"/>
      <point x="0" y="536" type="line"/>
      <point x="0" y="483" type="line"/>
      <point x="44" y="483"/>
      <point x="66" y="473"/>
    </contour>
  </outline>
</glyph>
<glyph name="w.mono" format="2">
  <advance width="600"/>
  <unicode hex="0077"/>
  <anchor x="302" y="0" name="bottom"/>
  <anchor x="302" y="546" name="top"/>
  <anchor x="580" y="546" name="topright"/>
  <outline>
    <contour>
      <point x="80" y="0" type="line"/>
      <point x="243" y="0" type="line"/>
      <point x="282" y="212" type="line" smooth="yes"/>
      <point x="290" y="256"/>
      <point x="293" y="278"/>
      <point x="298" y="313" type="curve"/>
      <point x="302" y="313" type="line"/>
      <point x="307" y="279"/>
      <point x="310" y="256"/>
      <point x="318" y="212" type="curve" smooth="yes"/>
      <point x="356" y="0" type="line"/>
      <point x="521" y="0" type="line"/>
      <point x="598" y="546" type="line"/>
      <point x="468" y="546" type="line"/>
      <point x="443" y="264" type="line" smooth="yes"/>
      <point x="440" y="225"/>
      <point x="437" y="182"/>
      <point x="431" y="124" type="curve"/>
      <point x="427" y="124" type="line"/>
      <point x="418" y="182"/>
      <point x="411" y="226"/>
      <point x="403" y="265" type="curve" smooth="yes"/>
      <point x="363" y="466" type="line"/>
      <point x="239" y="466" type="line"/>
      <point x="199" y="266" type="line" smooth="yes"/>
      <point x="189" y="218"/>
      <point x="185" y="187"/>
      <point x="177" y="124" type="curve"/>
      <point x="173" y="124" type="line"/>
      <point x="167" y="188"/>
      <point x="164" y="221"/>
      <point x="160" y="264" type="curve" smooth="yes"/>
      <point x="135" y="546" type="line"/>
      <point x="3" y="546" type="line"/>
    </contour>
  </outline>
</glyph>
<glyph name="w.serif" format="2">
  <advance width="856"/>
  <unicode hex="0077"/>
  <anchor x="428" y="0" name="bottom"/>
  <anchor x="456" y="536" name="top"/>
  <anchor x="856" y="536" name="topright"/>
  <outline>
    <contour>
      <point x="71" y="430" type="curve"/>
      <point x="199" y="0" type="line"/>
      <point x="308" y="0" type="line"/>
      <point x="423" y="332" type="line"/>
      <point x="532" y="0" type="line"/>
      <point x="640" y="0" type="line"/>
      <point x="769" y="405" type="line" smooth="yes"/>
      <point x="790" y="470"/>
      <point x="805" y="483"/>
      <point x="844" y="483" type="curve" smooth="yes"/>
      <point x="857" y="483" type="line"/>
      <point x="857" y="536" type="line"/>
      <point x="628" y="536" type="line"/>
      <point x="628" y="483" type="line"/>
      <point x="635" y="483" type="line" smooth="yes"/>
      <point x="679" y="483"/>
      <point x="701" y="468"/>
      <point x="701" y="434" type="curve" smooth="yes"/>
      <point x="701" y="423"/>
      <point x="697" y="401"/>
      <point x="692" y="384" type="curve" smooth="yes"/>
      <point x="648" y="238" type="line" smooth="yes"/>
      <point x="633" y="188"/>
      <point x="627" y="164"/>
      <point x="621" y="131" type="curve"/>
      <point x="618" y="131" type="line"/>
      <point x="614" y="156"/>
      <point x="608" y="188"/>
      <point x="592" y="236" type="curve" smooth="yes"/>
      <point x="494" y="531" type="line"/>
      <point x="429" y="531" type="line"/>
      <point x="327" y="246" type="line"/>
      <point x="310" y="197"/>
      <point x="301" y="164"/>
      <point x="295" y="131" type="curve"/>
      <point x="292" y="131" type="line"/>
      <point x="286" y="164"/>
      <point x="275" y="220"/>
      <point x="262" y="268" type="curve" smooth="yes"/>
      <point x="225" y="398" type="line" smooth="yes"/>
      <point x="221" y="413"/>
      <point x="217" y="430"/>
      <point x="217" y="441" type="curve" smooth="yes"/>
      <point x="217" y="474"/>
      <point x="237" y="483"/>
      <point x="277" y="483" type="curve" smooth="yes"/>
      <point x="290" y="483" type="line"/>
      <point x="290" y="536" type="line"/>
      <point x="-3" y="536" type="line"/>
      <point x="-3" y="483" type="line"/>
      <point x="0" y="483" type="line" smooth="yes"/>
      <point x="39" y="483"/>
      <point x="56" y="472"/>
    </contour>
  </outline>
</glyph>
<glyph name="x.mono" format="2">
  <advance width="600"/>
  <unicode hex="0078"/>
  <anchor x="300" y="0" name="bottom"/>
  <anchor x="300" y="546" name="top"/>
  <anchor x="580" y="546" name="topright"/>
  <outline>
    <contour>
      <point x="20" y="0" type="line"/>
      <point x="194" y="0" type="line"/>
      <point x="303" y="180" type="line"/>
      <point x="406" y="0" type="line"/>
      <point x="580" y="0" type="line"/>
      <point x="392" y="278" type="line"/>
      <point x="580" y="546" type="line"/>
      <point x="406" y="546" type="line"/>
      <point x="302" y="374" type="line"/>
      <point x="203" y="546" type="line"/>
      <point x="29" y="546" type="line"/>
      <point x="213" y="278" type="line"/>
    </contour>
  </outline>
</glyph>
<glyph name="y.mono" format="2">
  <advance width="600"/>
  <unicode hex="0079"/>
  <anchor x="300" y="-245" name="bottom"/>
  <anchor x="300" y="546" name="top"/>
  <anchor x="580" y="546" name="topright"/>
  <outline>
    <contour>
      <point x="133" y="-245" type="curve" smooth="yes"/>
      <point x="246" y="-245"/>
      <point x="317" y="-177"/>
      <point x="371" y="-29" type="curve" smooth="yes"/>
      <point x="580" y="546" type="line"/>
      <point x="424" y="546" type="line"/>
      <point x="331" y="232" type="line" smooth="yes"/>
      <point x="322" y="201"/>
      <point x="314" y="174"/>
      <point x="308" y="137" type="curve"/>
      <point x="305" y="137" type="line"/>
      <point x="300" y="174"/>
      <point x="292" y="205"/>
      <point x="283" y="232" type="curve" smooth="yes"/>
      <point x="178" y="546" type="line"/>
      <point x="20" y="546" type="line"/>
      <point x="235" y="4" type="line"/>
      <point x="226" y="-23" type="line" smooth="yes"/>
      <point x="205" y="-85"/>
      <point x="172" y="-119"/>
      <point x="111" y="-119" type="curve" smooth="yes"/>
      <point x="97" y="-119"/>
      <point x="77" y="-117"/>
      <point x="59" y="-113" type="curve"/>
      <point x="59" y="-237" type="line"/>
      <point x="84" y="-242"/>
      <point x="109" y="-245"/>
    </contour>
  </outline>
</glyph>
<glyph name="y.serif" format="2">
  <advance width="579"/>
  <unicode hex="0079"/>
  <anchor x="150" y="-240" name="bottom"/>
  <anchor x="320" y="536" name="top"/>
  <anchor x="579" y="536" name="topright"/>
  <outline>
    <contour>
      <point x="27" y="-182" type="curve"/>
      <point x="27" y="-240" type="line"/>
      <point x="44" y="-240" type="line"/>
      <point x="241" y="-240"/>
      <point x="278" y="-194"/>
      <point x="348" y="0" type="curve"/>
      <point x="499" y="410" type="line"/>
      <point x="519" y="464"/>
      <point x="538" y="482"/>
      <point x="575" y="483" type="curve"/>
      <point x="579" y="483" type="line"/>
      <point x="579" y="536" type="line"/>
      <point x="354" y="536" type="line"/>
      <point x="354" y="483" type="line"/>
      <point x="358" y="483" type="line"/>
      <point x="402" y="482"/>
      <point x="427" y="472"/>
      <point x="427" y="443" type="curve" smooth="yes"/>
      <point x="427" y="431"/>
      <point x="422" y="407"/>
      <point x="417" y="394" type="curve"/>
      <point x="351" y="198" type="line" smooth="yes"/>
      <point x="347" y="188"/>
      <point x="331" y="146"/>
      <point x="329" y="118" type="curve"/>
      <point x="326" y="145"/>
      <point x="320" y="173"/>
      <point x="301" y="224" type="curve"/>
      <point x="232" y="407" type="line"/>
      <point x="228" y="417"/>
      <point x="222" y="435"/>
      <point x="222" y="446" type="curve" smooth="yes"/>
      <point x="222" y="474"/>
      <point x="245" y="483"/>
      <point x="282" y="483" type="curve"/>
      <point x="285" y="483" type="line"/>
      <point x="285" y="536" type="line"/>
      <point x="0" y="536" type="line"/>
      <point x="0" y="477" type="line"/>
      <point x="4" y="477" type="line"/>
      <point x="32" y="476"/>
      <point x="53" y="470"/>
      <point x="68" y="435" type="curve"/>
      <point x="248" y="-5" type="line"/>
      <point x="216" y="-111"/>
      <point x="166" y="-182"/>
    </contour>
  </outline>
</glyph>
<glyph name="z.mono" format="2">
  <advance width="600"/>
  <unicode hex="007A"/>
  <anchor x="308" y="0" name="bottom"/>
  <anchor x="308" y="546" name="top"/>
  <anchor x="580" y="546" name="topright"/>
  <outline>
    <contour>
      <point x="65" y="0" type="line"/>
      <point x="535" y="0" type="line"/>
      <point x="535" y="114" type="line"/>
      <point x="250" y="114" type="line"/>
      <point x="526" y="449" type="line"/>
      <point x="526" y="546" type="line"/>
      <point x="80" y="546" type="line"/>
      <point x="80" y="432" type="line"/>
      <point x="343" y="432" type="line"/>
      <point x="65" y="88" type="line"/>
    </contour>
  </outline>
</glyph>
<glyph name="braceleft.mono" format="2">
  <advance width="600"/>
  <unicode hex="007B"/>
  <outline>
    <contour>
      <point x="463" y="-162" type="curve"/>
      <point x="463" y="-55" type="line"/>
      <point x="404" y="-53"/>
      <point x="376" y="-38"/>
      <point x="376" y="15" type="curve" smooth="yes"/>
      <point x="376" y="161" type="line" smooth="yes"/>
      <point x="376" y="226"/>
      <point x="344" y="264"/>
      <point x="274" y="275" type="curve"/>
      <point x="274" y="281" type="line"/>
      <point x="343" y="292"/>
      <point x="376" y="329"/>
      <point x="376" y="397" type="curve" smooth="yes"/>
      <point x="376" y="542" type="line" smooth="yes"/>
      <point x="376" y="597"/>
      <point x="408" y="609"/>
      <point x="463" y="611" type="curve"/>
      <point x="463" y="718" type="line"/>
      <point x="295" y="717"/>
      <point x="250" y="674"/>
      <point x="250" y="568" type="curve" smooth="yes"/>
      <point x="250" y="421" type="line" smooth="yes"/>
      <point x="250" y="359"/>
      <point x="212" y="333"/>
      <point x="137" y="333" type="curve"/>
      <point x="137" y="223" type="line"/>
      <point x="213" y="223"/>
      <point x="250" y="195"/>
      <point x="250" y="135" type="curve" smooth="yes"/>
      <point x="250" y="-12" type="line" smooth="yes"/>
      <point x="250" y="-123"/>
      <point x="300" y="-162"/>
    </contour>
  </outline>
</glyph>
<glyph name="asciitilde.mono" format="2">
  <advance width="600"/>
  <unicode hex="007E"/>
  <outline>
    <contour>
      <point x="66" y="271" type="curve"/>
      <point x="139" y="271" type="line"/>
      <point x="139" y="352"/>
      <point x="160" y="387"/>
      <point x="200" y="387" type="curve" smooth="yes"/>
      <point x="220" y="387"/>
      <point x="230" y="378"/>
      <point x="276" y="336" type="curve" smooth="yes"/>
      <point x="328" y="288"/>
      <point x="360" y="271"/>
      <point x="403" y="271" type="curve" smooth="yes"/>
      <point x="497" y="271"/>
      <point x="528" y="354"/>
      <point x="532" y="460" type="curve"/>
      <point x="458" y="460" type="line"/>
      <point x="455" y="382"/>
      <point x="436" y="344"/>
      <point x="401" y="344" type="curve" smooth="yes"/>
      <point x="381" y="344"/>
      <point x="367" y="353"/>
      <point x="326" y="393" type="curve" smooth="yes"/>
      <point x="274" y="443"/>
      <point x="246" y="460"/>
      <point x="198" y="460" type="curve" smooth="yes"/>
      <point x="96" y="460"/>
      <point x="66" y="368"/>
    </contour>
  </outline>
</glyph>
<glyph name="cent.mono" format="2">
  <advance width="600"/>
  <unicode hex="00A2"/>
  <outline>
    <contour>
      <point x="299" y="86" type="curve"/>
      <point x="299" y="-10" type="line"/>
      <point x="379" y="-10" type="line"/>
      <point x="379" y="83" type="line"/>
      <point x="428" y="87"/>
      <point x="483" y="100"/>
      <point x="516" y="119" type="curve"/>
      <point x="516" y="237" type="line"/>
      <point x="473" y="213"/>
      <point x="415" y="198"/>
      <point x="359" y="198" type="curve" smooth="yes"/>
      <point x="262" y="198"/>
      <point x="208" y="248"/>
      <point x="208" y="363" type="curve" smooth="yes"/>
      <point x="208" y="481"/>
      <point x="262" y="532"/>
      <point x="360" y="532" type="curve" smooth="yes"/>
      <point x="398" y="532"/>
      <point x="453" y="521"/>
      <point x="491" y="502" type="curve"/>
      <point x="530" y="612" type="line"/>
      <point x="497" y="630"/>
      <point x="438" y="644"/>
      <point x="379" y="647" type="curve"/>
      <point x="379" y="724" type="line"/>
      <point x="299" y="724" type="line"/>
      <point x="299" y="643" type="line"/>
      <point x="156" y="627"/>
      <point x="73" y="535"/>
      <point x="70" y="362" type="curve" smooth="yes"/>
      <point x="73" y="195"/>
      <point x="151" y="101"/>
    </contour>
  </outline>
</glyph>
<glyph name="cent.serif" format="2">
  <advance width="559"/>
  <unicode hex="00A2"/>
  <outline>
    <contour>
      <point x="279" y="83" type="curve"/>
      <point x="279" y="0" type="line"/>
      <point x="341" y="0" type="line"/>
      <point x="341" y="83" type="line"/>
      <point x="457" y="91"/>
      <point x="509" y="146"/>
      <point x="509" y="192" type="curve" smooth="yes"/>
      <point x="509" y="210"/>
      <point x="501" y="228"/>
      <point x="484" y="238" type="curve"/>
      <point x="461" y="193"/>
      <point x="408" y="159"/>
      <point x="341" y="157" type="curve"/>
      <point x="341" y="575" type="line"/>
      <point x="377" y="560"/>
      <point x="389" y="508"/>
      <point x="389" y="451" type="curve"/>
      <point x="493" y="451"/>
      <point x="518" y="493"/>
      <point x="518" y="536" type="curve" smooth="yes"/>
      <point x="518" y="590"/>
      <point x="456" y="634"/>
      <point x="341" y="640" type="curve"/>
      <point x="341" y="714" type="line"/>
      <point x="279" y="714" type="line"/>
      <point x="279" y="640" type="line"/>
      <point x="151" y="630"/>
      <point x="57" y="557"/>
      <point x="57" y="358" type="curve" smooth="yes"/>
      <point x="57" y="168"/>
      <point x="145" y="93"/>
    </contour>
    <contour>
      <point x="279" y="573" type="curve"/>
      <point x="279" y="169" type="line"/>
      <point x="231" y="193"/>
      <point x="210" y="257"/>
      <point x="210" y="359" type="curve" smooth="yes"/>
      <point x="210" y="494"/>
      <point x="236" y="554"/>
    </contour>
  </outline>
</glyph>
<glyph name="sterling.mono" format="2">
  <advance width="600"/>
  <unicode hex="00A3"/>
  <outline>
    <contour>
      <point x="81" y="117" type="curve"/>
      <point x="81" y="0" type="line"/>
      <point x="540" y="0" type="line"/>
      <point x="540" y="123" type="line"/>
      <point x="228" y="123" type="line"/>
      <point x="267" y="145"/>
      <point x="297" y="181"/>
      <point x="297" y="244" type="curve" smooth="yes"/>
      <point x="297" y="313" type="line"/>
      <point x="460" y="313" type="line"/>
      <point x="460" y="417" type="line"/>
      <point x="297" y="417" type="line"/>
      <point x="297" y="520" type="line" smooth="yes"/>
      <point x="297" y="580"/>
      <point x="338" y="604"/>
      <point x="377" y="604" type="curve" smooth="yes"/>
      <point x="420" y="604"/>
      <point x="450" y="594"/>
      <point x="491" y="574" type="curve"/>
      <point x="532" y="684" type="line"/>
      <point x="483" y="709"/>
      <point x="427" y="724"/>
      <point x="366" y="724" type="curve" smooth="yes"/>
      <point x="242" y="724"/>
      <point x="157" y="661"/>
      <point x="157" y="520" type="curve" smooth="yes"/>
      <point x="157" y="417" type="line"/>
      <point x="80" y="417" type="line"/>
      <point x="80" y="313" type="line"/>
      <point x="157" y="313" type="line"/>
      <point x="157" y="243" type="line" smooth="yes"/>
      <point x="157" y="171"/>
      <point x="130" y="143"/>
    </contour>
  </outline>
</glyph>
<glyph name="currency.mono" format="2">
  <advance width="600"/>
  <unicode hex="00A4"/>
  <outline>
    <contour>
      <point x="403" y="199" type="curve"/>
      <point x="469" y="134" type="line"/>
      <point x="536" y="202" type="line"/>
      <point x="472" y="266" type="line"/>
      <point x="492" y="298"/>
      <point x="503" y="333"/>
      <point x="503" y="372" type="curve" smooth="yes"/>
      <point x="503" y="410"/>
      <point x="491" y="447"/>
      <point x="472" y="477" type="curve"/>
      <point x="539" y="544" type="line"/>
      <point x="469" y="610" type="line"/>
      <point x="403" y="544" type="line"/>
      <point x="371" y="565"/>
      <point x="336" y="575"/>
      <point x="299" y="575" type="curve" smooth="yes"/>
      <point x="261" y="575"/>
      <point x="225" y="565"/>
      <point x="194" y="545" type="curve"/>
      <point x="129" y="610" type="line"/>
      <point x="60" y="542" type="line"/>
      <point x="127" y="476" type="line"/>
      <point x="107" y="444"/>
      <point x="96" y="409"/>
      <point x="96" y="372" type="curve" smooth="yes"/>
      <point x="96" y="333"/>
      <point x="107" y="299"/>
      <point x="127" y="267" type="curve"/>
      <point x="61" y="203" type="line"/>
      <point x="129" y="135" type="line"/>
      <point x="193" y="199" type="line"/>
      <point x="224" y="180"/>
      <point x="259" y="170"/>
      <point x="299" y="170" type="curve" smooth="yes"/>
      <point x="336" y="170"/>
      <point x="372" y="181"/>
    </contour>
    <contour>
      <point x="299" y="272" type="curve" smooth="yes"/>
      <point x="243" y="272"/>
      <point x="199" y="310"/>
      <point x="199" y="372" type="curve" smooth="yes"/>
      <point x="199" y="428"/>
      <point x="236" y="473"/>
      <point x="299" y="473" type="curve" smooth="yes"/>
      <point x="363" y="473"/>
      <point x="401" y="431"/>
      <point x="401" y="372" type="curve" smooth="yes"/>
      <point x="401" y="312"/>
      <point x="359" y="272"/>
    </contour>
  </outline>
</glyph>
<glyph name="currency.serif" format="2">
  <advance width="559"/>
  <unicode hex="00A4"/>
  <outline>
    <contour>
      <point x="117" y="146" type="line"/>
      <point x="175" y="204" type="line"/>
      <point x="204" y="184"/>
      <point x="240" y="173"/>
      <point x="278" y="173" type="curve" smooth="yes"/>
      <point x="316" y="173"/>
      <point x="352" y="185"/>
      <point x="382" y="205" type="curve"/>
      <point x="441" y="146" type="line"/>
      <point x="491" y="196" type="line"/>
      <point x="432" y="255" type="line"/>
      <point x="451" y="284"/>
      <point x="462" y="318"/>
      <point x="462" y="356" type="curve" smooth="yes"/>
      <point x="462" y="394"/>
      <point x="450" y="429"/>
      <point x="430" y="458" type="curve"/>
      <point x="491" y="520" type="line"/>
      <point x="441" y="571" type="line"/>
      <point x="379" y="509" type="line"/>
      <point x="350" y="529"/>
      <point x="315" y="540"/>
      <point x="278" y="540" type="curve" smooth="yes"/>
      <point x="240" y="540"/>
      <point x="206" y="529"/>
      <point x="177" y="510" type="curve"/>
      <point x="117" y="570" type="line"/>
      <point x="67" y="520" type="line"/>
      <point x="127" y="460" type="line"/>
      <point x="106" y="431"/>
      <point x="95" y="394"/>
      <point x="95" y="356" type="curve" smooth="yes"/>
      <point x="95" y="318"/>
      <point x="105" y="284"/>
      <point x="124" y="255" type="curve"/>
      <point x="66" y="197" type="line"/>
    </contour>
    <contour>
      <point x="278" y="240" type="curve" smooth="yes"/>
      <point x="214" y="240"/>
      <point x="163" y="292"/>
      <point x="163" y="356" type="curve" smooth="yes"/>
      <point x="163" y="422"/>
      <point x="214" y="473"/>
      <point x="278" y="473" type="curve" smooth="yes"/>
      <point x="344" y="473"/>
      <point x="393" y="422"/>
      <point x="393" y="356" type="curve" smooth="yes"/>
      <point x="393" y="292"/>
      <point x="344" y="240"/>
    </contour>
  </outline>
</glyph>
<glyph name="yen.mono" format="2">
  <advance width="600"/>
  <unicode hex="00A5"/>
  <outline>
    <contour>
      <point x="232" y="0" type="line"/>
      <point x="368" y="0" type="line"/>
      <point x="368" y="111" type="line"/>
      <point x="512" y="111" type="line"/>
      <point x="512" y="197" type="line"/>
      <point x="368" y="197" type="line"/>
      <point x="368" y="265" type="line"/>
      <point x="512" y="265" type="line"/>
      <point x="512" y="352" type="line"/>
      <point x="391" y="352" type="line"/>
      <point x="575" y="714" type="line"/>
      <point x="428" y="714" type="line"/>
      <point x="300" y="427" type="line"/>
      <point x="172" y="714" type="line"/>
      <point x="25" y="714" type="line"/>
      <point x="206" y="352" type="line"/>
      <point x="88" y="352" type="line"/>
      <point x="88" y="265" type="line"/>
      <point x="232" y="265" type="line"/>
      <point x="232" y="197" type="line"/>
      <point x="88" y="197" type="line"/>
      <point x="88" y="111" type="line"/>
      <point x="232" y="111" type="line"/>
    </contour>
  </outline>
</glyph>
<glyph name="yen.serif" format="2">
  <advance width="559"/>
  <unicode hex="00A5"/>
  <outline>
    <contour>
      <point x="105" y="0" type="line"/>
      <point x="464" y="0" type="line"/>
      <point x="464" y="53" type="line"/>
      <point x="441" y="53" type="line" smooth="yes"/>
      <point x="396" y="53"/>
      <point x="359" y="52"/>
      <point x="359" y="115" type="curve" smooth="yes"/>
      <point x="359" y="165" type="line"/>
      <point x="499" y="165" type="line"/>
      <point x="499" y="224" type="line"/>
      <point x="359" y="224" type="line"/>
      <point x="359" y="282" type="line"/>
      <point x="499" y="282" type="line"/>
      <point x="499" y="341" type="line"/>
      <point x="368" y="341" type="line"/>
      <point x="471" y="583" type="line" smooth="yes"/>
      <point x="498" y="646"/>
      <point x="513" y="661"/>
      <point x="547" y="661" type="curve" smooth="yes"/>
      <point x="550" y="661" type="line"/>
      <point x="550" y="714" type="line"/>
      <point x="342" y="714" type="line"/>
      <point x="342" y="661" type="line"/>
      <point x="345" y="661" type="line" smooth="yes"/>
      <point x="389" y="661"/>
      <point x="406" y="648"/>
      <point x="406" y="621" type="curve" smooth="yes"/>
      <point x="406" y="604"/>
      <point x="403" y="585"/>
      <point x="386" y="540" type="curve" smooth="yes"/>
      <point x="344" y="430" type="line" smooth="yes"/>
      <point x="333" y="402"/>
      <point x="322" y="375"/>
      <point x="318" y="357" type="curve"/>
      <point x="313" y="384"/>
      <point x="300" y="426"/>
      <point x="283" y="468" type="curve" smooth="yes"/>
      <point x="245" y="563" type="line" smooth="yes"/>
      <point x="235" y="587"/>
      <point x="229" y="606"/>
      <point x="229" y="622" type="curve" smooth="yes"/>
      <point x="229" y="649"/>
      <point x="246" y="661"/>
      <point x="286" y="661" type="curve" smooth="yes"/>
      <point x="293" y="661" type="line"/>
      <point x="293" y="714" type="line"/>
      <point x="7" y="714" type="line"/>
      <point x="7" y="661" type="line"/>
      <point x="10" y="661" type="line" smooth="yes"/>
      <point x="44" y="661"/>
      <point x="57" y="648"/>
      <point x="75" y="608" type="curve" smooth="yes"/>
      <point x="193" y="341" type="line"/>
      <point x="70" y="341" type="line"/>
      <point x="70" y="282" type="line"/>
      <point x="210" y="282" type="line"/>
      <point x="210" y="224" type="line"/>
      <point x="70" y="224" type="line"/>
      <point x="70" y="165" type="line"/>
      <point x="210" y="165" type="line"/>
      <point x="210" y="110" type="line"/>
      <point x="208" y="51"/>
      <point x="172" y="53"/>
      <point x="128" y="53" type="curve" smooth="yes"/>
      <point x="105" y="53" type="line"/>
    </contour>
  </outline>
</glyph>
<glyph name="brokenbar.mono" format="2">
  <advance width="600"/>
  <unicode hex="00A6"/>
  <outline>
    <contour>
      <point x="244" y="362" type="line"/>
      <point x="355" y="362" type="line"/>
      <point x="355" y="758" type="line"/>
      <point x="244" y="758" type="line"/>
    </contour>
    <contour>
      <point x="244" y="-230" type="line"/>
      <point x="355" y="-230" type="line"/>
      <point x="355" y="167" type="line"/>
      <point x="244" y="167" type="line"/>
    </contour>
  </outline>
</glyph>
<glyph name="section.mono" format="2">
  <advance width="600"/>
  <unicode hex="00A7"/>
  <outline>
    <contour>
      <point x="276" y="-10" type="curve" smooth="yes"/>
      <point x="410" y="-10"/>
      <point x="493" y="51"/>
      <point x="493" y="146" type="curve" smooth="yes"/>
      <point x="493" y="193"/>
      <point x="472" y="231"/>
      <point x="429" y="260" type="curve"/>
      <point x="472" y="288"/>
      <point x="498" y="327"/>
      <point x="498" y="382" type="curve" smooth="yes"/>
      <point x="498" y="463"/>
      <point x="441" y="508"/>
      <point x="338" y="549" type="curve" smooth="yes"/>
      <point x="271" y="576"/>
      <point x="238" y="594"/>
      <point x="238" y="626" type="curve" smooth="yes"/>
      <point x="238" y="657"/>
      <point x="263" y="673"/>
      <point x="314" y="673" type="curve" smooth="yes"/>
      <point x="358" y="673"/>
      <point x="403" y="657"/>
      <point x="449" y="633" type="curve"/>
      <point x="491" y="726" type="line"/>
      <point x="433" y="750"/>
      <point x="378" y="765"/>
      <point x="313" y="765" type="curve" smooth="yes"/>
      <point x="192" y="765"/>
      <point x="110" y="711"/>
      <point x="110" y="626" type="curve" smooth="yes"/>
      <point x="110" y="578"/>
      <point x="135" y="540"/>
      <point x="181" y="511" type="curve"/>
      <point x="135" y="486"/>
      <point x="104" y="445"/>
      <point x="104" y="386" type="curve" smooth="yes"/>
      <point x="104" y="310"/>
      <point x="156" y="271"/>
      <point x="263" y="225" type="curve" smooth="yes"/>
      <point x="348" y="189"/>
      <point x="364" y="173"/>
      <point x="364" y="139" type="curve" smooth="yes"/>
      <point x="364" y="105"/>
      <point x="338" y="82"/>
      <point x="274" y="82" type="curve" smooth="yes"/>
      <point x="224" y="82"/>
      <point x="152" y="104"/>
      <point x="103" y="131" type="curve"/>
      <point x="103" y="29" type="line"/>
      <point x="149" y="4"/>
      <point x="205" y="-10"/>
    </contour>
    <contour>
      <point x="343" y="303" type="curve"/>
      <point x="321" y="313" type="line"/>
      <point x="254" y="342"/>
      <point x="223" y="368"/>
      <point x="223" y="405" type="curve" smooth="yes"/>
      <point x="223" y="435"/>
      <point x="242" y="458"/>
      <point x="266" y="468" type="curve"/>
      <point x="355" y="435"/>
      <point x="378" y="409"/>
      <point x="378" y="369" type="curve" smooth="yes"/>
      <point x="378" y="339"/>
      <point x="362" y="318"/>
    </contour>
  </outline>
</glyph>
<glyph name="section.serif" format="2">
  <advance width="544"/>
  <unicode hex="00A7"/>
  <outline>
    <contour>
      <point x="276" y="-113" type="curve" smooth="yes"/>
      <point x="409" y="-113"/>
      <point x="477" y="-39"/>
      <point x="477" y="67" type="curve" smooth="yes"/>
      <point x="477" y="106"/>
      <point x="464" y="146"/>
      <point x="442" y="174" type="curve"/>
      <point x="477" y="196"/>
      <point x="506" y="244"/>
      <point x="506" y="292" type="curve" smooth="yes"/>
      <point x="506" y="378"/>
      <point x="447" y="426"/>
      <point x="306" y="493" type="curve" smooth="yes"/>
      <point x="231" y="529"/>
      <point x="187" y="547"/>
      <point x="187" y="611" type="curve" smooth="yes"/>
      <point x="187" y="671"/>
      <point x="224" y="705"/>
      <point x="280" y="705" type="curve" smooth="yes"/>
      <point x="350" y="705"/>
      <point x="368" y="633"/>
      <point x="368" y="574" type="curve"/>
      <point x="429" y="574"/>
      <point x="463" y="605"/>
      <point x="463" y="646" type="curve" smooth="yes"/>
      <point x="463" y="712"/>
      <point x="402" y="760"/>
      <point x="284" y="760" type="curve" smooth="yes"/>
      <point x="170" y="760"/>
      <point x="87" y="701"/>
      <point x="87" y="599" type="curve" smooth="yes"/>
      <point x="87" y="545"/>
      <point x="107" y="504"/>
      <point x="130" y="480" type="curve"/>
      <point x="92" y="460"/>
      <point x="65" y="422"/>
      <point x="65" y="377" type="curve" smooth="yes"/>
      <point x="65" y="298"/>
      <point x="108" y="244"/>
      <point x="219" y="189" type="curve" smooth="yes"/>
      <point x="367" y="116"/>
      <point x="391" y="93"/>
      <point x="391" y="38" type="curve" smooth="yes"/>
      <point x="391" y="-21"/>
      <point x="353" y="-59"/>
      <point x="289" y="-59" type="curve" smooth="yes"/>
      <point x="211" y="-59"/>
      <point x="171" y="6"/>
      <point x="171" y="94" type="curve"/>
      <point x="119" y="94"/>
      <point x="82" y="67"/>
      <point x="82" y="15" type="curve" smooth="yes"/>
      <point x="82" y="-46"/>
      <point x="126" y="-113"/>
    </contour>
    <contour>
      <point x="395" y="214" type="curve"/>
      <point x="369" y="232"/>
      <point x="338" y="248"/>
      <point x="295" y="270" type="curve"/>
      <point x="188" y="322"/>
      <point x="154" y="348"/>
      <point x="154" y="403" type="curve" smooth="yes"/>
      <point x="154" y="420"/>
      <point x="160" y="436"/>
      <point x="170" y="447" type="curve"/>
      <point x="202" y="425"/>
      <point x="242" y="406"/>
      <point x="286" y="385" type="curve" smooth="yes"/>
      <point x="384" y="337"/>
      <point x="408" y="302"/>
      <point x="408" y="257" type="curve" smooth="yes"/>
      <point x="408" y="239"/>
      <point x="402" y="224"/>
    </contour>
  </outline>
</glyph>
<glyph name="dieresis.mono" format="2">
  <advance width="600"/>
  <unicode hex="00A8"/>
  <anchor x="300" y="546" name="_top"/>
  <anchor x="300" y="656" name="top"/>
  <outline>
    <contour>
      <point x="419" y="610" type="curve" smooth="yes"/>
      <point x="460" y="610"/>
      <point x="492" y="636"/>
      <point x="492" y="684" type="curve" smooth="yes"/>
      <point x="492" y="733"/>
      <point x="460" y="757"/>
      <point x="419" y="757" type="curve" smooth="yes"/>
      <point x="377" y="757"/>
      <point x="347" y="734"/>
      <point x="347" y="684" type="curve" smooth="yes"/>
      <point x="347" y="636"/>
      <point x="377" y="610"/>
    </contour>
    <contour>
      <point x="185" y="610" type="curve" smooth="yes"/>
      <point x="226" y="610"/>
      <point x="258" y="636"/>
      <point x="258" y="684" type="curve" smooth="yes"/>
      <point x="258" y="733"/>
      <point x="226" y="757"/>
      <point x="185" y="757" type="curve" smooth="yes"/>
      <point x="144" y="757"/>
      <point x="114" y="734"/>
      <point x="114" y="684" type="curve" smooth="yes"/>
      <point x="114" y="635"/>
      <point x="144" y="610"/>
    </contour>
  </outline>
</glyph>
<glyph name="copyright.mono" format="2">
  <advance width="600"/>
  <unicode hex="00A9"/>
  <outline>
    <contour>
      <point x="298" y="77" type="curve" smooth="yes"/>
      <point x="462" y="77"/>
      <point x="574" y="186"/>
      <point x="574" y="346" type="curve" smooth="yes"/>
      <point x="574" y="501"/>
      <point x="469" y="622"/>
      <point x="300" y="622" type="curve" smooth="yes"/>
      <point x="133" y="622"/>
      <point x="26" y="504"/>
      <point x="26" y="350" type="curve" smooth="yes"/>
      <point x="26" y="205"/>
      <point x="120" y="77"/>
    </contour>
    <contour>
      <point x="311" y="180" type="curve" smooth="yes"/>
      <point x="344" y="180"/>
      <point x="369" y="187"/>
      <point x="395" y="198" type="curve"/>
      <point x="395" y="264" type="line"/>
      <point x="369" y="253"/>
      <point x="340" y="247"/>
      <point x="316" y="247" type="curve" smooth="yes"/>
      <point x="260" y="247"/>
      <point x="235" y="281"/>
      <point x="235" y="346" type="curve" smooth="yes"/>
      <point x="235" y="417"/>
      <point x="265" y="455"/>
      <point x="315" y="455" type="curve" smooth="yes"/>
      <point x="336" y="455"/>
      <point x="360" y="448"/>
      <point x="383" y="435" type="curve"/>
      <point x="407" y="498" type="line"/>
      <point x="374" y="514"/>
      <point x="344" y="521"/>
      <point x="312" y="521" type="curve" smooth="yes"/>
      <point x="212" y="521"/>
      <point x="155" y="455"/>
      <point x="155" y="349" type="curve" smooth="yes"/>
      <point x="155" y="245"/>
      <point x="210" y="180"/>
    </contour>
    <contour>
      <point x="298" y="142" type="curve" smooth="yes"/>
      <point x="171" y="142"/>
      <point x="99" y="235"/>
      <point x="99" y="349" type="curve" smooth="yes"/>
      <point x="99" y="461"/>
      <point x="171" y="557"/>
      <point x="300" y="557" type="curve" smooth="yes"/>
      <point x="417" y="557"/>
      <point x="501" y="477"/>
      <point x="501" y="352" type="curve" smooth="yes"/>
      <point x="501" y="228"/>
      <point x="420" y="142"/>
    </contour>
  </outline>
</glyph>
<glyph name="ordfeminine.mono" format="2">
  <advance width="600"/>
  <unicode hex="00AA"/>
  <anchor x="302" y="368" name="bottom"/>
  <anchor x="306" y="722" name="top"/>
  <outline>
    <contour>
      <point x="257" y="369" type="curve" smooth="yes"/>
      <point x="309" y="369"/>
      <point x="349" y="390"/>
      <point x="377" y="427" type="curve"/>
      <point x="392" y="375" type="line"/>
      <point x="456" y="375" type="line"/>
      <point x="456" y="591" type="line" smooth="yes"/>
      <point x="456" y="672"/>
      <point x="413" y="722"/>
      <point x="314" y="722" type="curve" smooth="yes"/>
      <point x="261" y="722"/>
      <point x="211" y="708"/>
      <point x="172" y="687" type="curve"/>
      <point x="203" y="623" type="line"/>
      <point x="237" y="640"/>
      <point x="271" y="648"/>
      <point x="299" y="648" type="curve" smooth="yes"/>
      <point x="339" y="648"/>
      <point x="361" y="631"/>
      <point x="361" y="598" type="curve" smooth="yes"/>
      <point x="361" y="589" type="line"/>
      <point x="313" y="587" type="line" smooth="yes"/>
      <point x="205" y="582"/>
      <point x="143" y="555"/>
      <point x="143" y="474" type="curve" smooth="yes"/>
      <point x="143" y="405"/>
      <point x="189" y="369"/>
    </contour>
    <contour>
      <point x="283" y="440" type="curve" smooth="yes"/>
      <point x="255" y="440"/>
      <point x="239" y="452"/>
      <point x="239" y="478" type="curve" smooth="yes"/>
      <point x="239" y="502"/>
      <point x="252" y="525"/>
      <point x="313" y="529" type="curve" smooth="yes"/>
      <point x="361" y="532" type="line"/>
      <point x="361" y="514" type="line" smooth="yes"/>
      <point x="361" y="471"/>
      <point x="329" y="440"/>
    </contour>
  </outline>
</glyph>
<glyph name="ordfeminine.serif" format="2">
  <advance width="420"/>
  <unicode hex="00AA"/>
  <anchor x="192" y="386" name="bottom"/>
  <anchor x="198" y="719" name="top"/>
  <outline>
    <contour>
      <point x="138" y="380" type="curve" smooth="yes"/>
      <point x="192" y="380"/>
      <point x="227" y="406"/>
      <point x="251" y="435" type="curve"/>
      <point x="258" y="435" type="line"/>
      <point x="282" y="386" type="line"/>
      <point x="399" y="386" type="line"/>
      <point x="399" y="430" type="line"/>
      <point x="367" y="430"/>
      <point x="356" y="439"/>
      <point x="356" y="468" type="curve"/>
      <point x="356" y="615" type="line"/>
      <point x="356" y="691"/>
      <point x="306" y="719"/>
      <point x="205" y="719" type="curve" smooth="yes"/>
      <point x="123" y="719"/>
      <point x="56" y="702"/>
      <point x="56" y="657" type="curve" smooth="yes"/>
      <point x="56" y="626"/>
      <point x="96" y="614"/>
      <point x="165" y="614" type="curve"/>
      <point x="165" y="649"/>
      <point x="171" y="676"/>
      <point x="203" y="676" type="curve"/>
      <point x="238" y="676"/>
      <point x="243" y="650"/>
      <point x="243" y="612" type="curve"/>
      <point x="243" y="585" type="line"/>
      <point x="198" y="583" type="line"/>
      <point x="85" y="578"/>
      <point x="29" y="548"/>
      <point x="29" y="482" type="curve" smooth="yes"/>
      <point x="29" y="415"/>
      <point x="71" y="380"/>
    </contour>
    <contour>
      <point x="182" y="436" type="curve" smooth="yes"/>
      <point x="161" y="436"/>
      <point x="144" y="449"/>
      <point x="144" y="484" type="curve"/>
      <point x="144" y="522"/>
      <point x="165" y="543"/>
      <point x="220" y="545" type="curve" smooth="yes"/>
      <point x="243" y="546" type="line"/>
      <point x="243" y="505" type="line"/>
      <point x="243" y="465"/>
      <point x="223" y="436"/>
    </contour>
  </outline>
</glyph>
<glyph name="guillemetleft.display" format="2">
  <advance width="609"/>
  <unicode hex="00AB"/>
  <outline>
    <contour>
      <point x="36" y="280" type="line"/>
      <point x="36" y="267" type="line"/>
      <point x="210" y="46" type="line"/>
      <point x="325" y="104" type="line"/>
      <point x="199" y="274" type="line"/>
      <point x="325" y="444" type="line"/>
      <point x="210" y="502" type="line"/>
    </contour>
    <contour>
      <point x="284" y="280" type="line"/>
      <point x="284" y="267" type="line"/>
      <point x="458" y="46" type="line"/>
      <point x="573" y="104" type="line"/>
      <point x="446" y="274" type="line"/>
      <point x="573" y="444" type="line"/>
      <point x="458" y="502" type="line"/>
    </contour>
  </outline>
</glyph>
<glyph name="guillemetleft.mono" format="2">
  <advance width="600"/>
  <unicode hex="00AB"/>
  <outline>
    <contour>
      <point x="440" y="48" type="line"/>
      <point x="540" y="102" type="line"/>
      <point x="421" y="274" type="line"/>
      <point x="540" y="447" type="line"/>
      <point x="440" y="500" type="line"/>
      <point x="274" y="281" type="line"/>
      <point x="274" y="267" type="line"/>
    </contour>
    <contour>
      <point x="226" y="48" type="line"/>
      <point x="326" y="102" type="line"/>
      <point x="206" y="274" type="line"/>
      <point x="326" y="447" type="line"/>
      <point x="226" y="500" type="line"/>
      <point x="60" y="281" type="line"/>
      <point x="60" y="267" type="line"/>
    </contour>
  </outline>
</glyph>
<glyph name="logicalnot.mono" format="2">
  <advance width="600"/>
  <unicode hex="00AC"/>
  <outline>
    <contour>
      <point x="413" y="120" type="line"/>
      <point x="520" y="120" type="line"/>
      <point x="520" y="406" type="line"/>
      <point x="70" y="406" type="line"/>
      <point x="70" y="300" type="line"/>
      <point x="413" y="300" type="line"/>
    </contour>
  </outline>
</glyph>
<glyph name="registered.mono" format="2">
  <advance width="600"/>
  <unicode hex="00AE"/>
  <outline>
    <contour>
      <point x="298" y="78" type="curve" smooth="yes"/>
      <point x="462" y="78"/>
      <point x="573" y="186"/>
      <point x="573" y="347" type="curve" smooth="yes"/>
      <point x="573" y="502"/>
      <point x="468" y="622"/>
      <point x="300" y="622" type="curve" smooth="yes"/>
      <point x="134" y="622"/>
      <point x="27" y="504"/>
      <point x="27" y="351" type="curve" smooth="yes"/>
      <point x="27" y="206"/>
      <point x="121" y="78"/>
    </contour>
    <contour>
      <point x="298" y="143" type="curve" smooth="yes"/>
      <point x="172" y="143"/>
      <point x="100" y="235"/>
      <point x="100" y="349" type="curve" smooth="yes"/>
      <point x="100" y="461"/>
      <point x="172" y="557"/>
      <point x="300" y="557" type="curve" smooth="yes"/>
      <point x="417" y="557"/>
      <point x="500" y="478"/>
      <point x="500" y="353" type="curve" smooth="yes"/>
      <point x="500" y="229"/>
      <point x="420" y="143"/>
    </contour>
    <contour>
      <point x="192" y="196" type="line"/>
      <point x="264" y="196" type="line"/>
      <point x="264" y="317" type="line"/>
      <point x="301" y="317" type="line"/>
      <point x="347" y="196" type="line"/>
      <point x="425" y="196" type="line"/>
      <point x="366" y="330" type="line"/>
      <point x="395" y="344"/>
      <point x="414" y="371"/>
      <point x="414" y="416" type="curve" smooth="yes"/>
      <point x="414" y="481"/>
      <point x="373" y="511"/>
      <point x="290" y="511" type="curve" smooth="yes"/>
      <point x="192" y="511" type="line"/>
    </contour>
    <contour>
      <point x="287" y="368" type="curve" smooth="yes"/>
      <point x="264" y="368" type="line"/>
      <point x="264" y="455" type="line"/>
      <point x="288" y="455" type="line" smooth="yes"/>
      <point x="323" y="455"/>
      <point x="337" y="444"/>
      <point x="337" y="415" type="curve" smooth="yes"/>
      <point x="337" y="382"/>
      <point x="317" y="368"/>
    </contour>
  </outline>
</glyph>
<glyph name="degree.mono" format="2">
  <advance width="600"/>
  <unicode hex="00B0"/>
  <outline>
    <contour>
      <point x="300" y="409" type="curve" smooth="yes"/>
      <point x="399" y="409"/>
      <point x="460" y="478"/>
      <point x="460" y="567" type="curve" smooth="yes"/>
      <point x="460" y="654"/>
      <point x="389" y="724"/>
      <point x="300" y="724" type="curve" smooth="yes"/>
      <point x="212" y="724"/>
      <point x="141" y="655"/>
      <point x="141" y="567" type="curve" smooth="yes"/>
      <point x="141" y="478"/>
      <point x="208" y="409"/>
    </contour>
    <contour>
      <point x="300" y="495" type="curve" smooth="yes"/>
      <point x="257" y="495"/>
      <point x="231" y="527"/>
      <point x="231" y="567" type="curve" smooth="yes"/>
      <point x="231" y="608"/>
      <point x="261" y="639"/>
      <point x="300" y="639" type="curve" smooth="yes"/>
      <point x="339" y="639"/>
      <point x="370" y="610"/>
      <point x="370" y="567" type="curve" smooth="yes"/>
      <point x="370" y="527"/>
      <point x="345" y="495"/>
    </contour>
  </outline>
</glyph>
